<mxfile host="app.diagrams.net" agent="Mozilla/5.0 (X11; Linux x86_64) AppleWebKit/537.36 (KHTML, like Gecko) Chrome/132.0.0.0 Safari/537.36" version="27.0.3" pages="8">
  <diagram name="Преступники" id="rvx9Eytj60oc7GgqrsQo">
    <mxGraphModel dx="1042" dy="570" grid="1" gridSize="10" guides="1" tooltips="1" connect="1" arrows="1" fold="1" page="1" pageScale="1" pageWidth="850" pageHeight="1100" math="0" shadow="0">
      <root>
        <mxCell id="0" />
        <mxCell id="1" parent="0" />
        <mxCell id="3wvi0kcAIpPuui1gEmCT-31" value="" style="group" parent="1" vertex="1" connectable="0">
          <mxGeometry x="30" y="40" width="180" height="90" as="geometry" />
        </mxCell>
        <mxCell id="3wvi0kcAIpPuui1gEmCT-33" value="" style="group" parent="3wvi0kcAIpPuui1gEmCT-31" vertex="1" connectable="0">
          <mxGeometry width="180" height="90" as="geometry" />
        </mxCell>
        <mxCell id="3wvi0kcAIpPuui1gEmCT-35" value="" style="group" parent="3wvi0kcAIpPuui1gEmCT-33" vertex="1" connectable="0">
          <mxGeometry width="180" height="90" as="geometry" />
        </mxCell>
        <mxCell id="3wvi0kcAIpPuui1gEmCT-1" value="&lt;font face=&quot;Times New Roman&quot; style=&quot;font-size: 16px;&quot;&gt;Виктор Люстиг&lt;/font&gt;" style="rounded=0;whiteSpace=wrap;html=1;movable=1;resizable=1;rotatable=1;deletable=1;editable=1;locked=0;connectable=1;" parent="3wvi0kcAIpPuui1gEmCT-35" vertex="1">
          <mxGeometry width="180" height="90" as="geometry" />
        </mxCell>
        <mxCell id="3wvi0kcAIpPuui1gEmCT-2" value="&lt;font face=&quot;Times New Roman&quot; style=&quot;font-size: 14px;&quot;&gt;1&lt;/font&gt;" style="rounded=0;whiteSpace=wrap;html=1;movable=1;resizable=1;rotatable=1;deletable=1;editable=1;locked=0;connectable=1;" parent="3wvi0kcAIpPuui1gEmCT-35" vertex="1">
          <mxGeometry x="60" width="60.00000000000001" height="30.000000000000004" as="geometry" />
        </mxCell>
        <mxCell id="3wvi0kcAIpPuui1gEmCT-36" value="" style="group" parent="1" vertex="1" connectable="0">
          <mxGeometry x="230" y="40" width="180" height="90" as="geometry" />
        </mxCell>
        <mxCell id="3wvi0kcAIpPuui1gEmCT-37" value="&lt;font face=&quot;Times New Roman&quot; style=&quot;font-size: 16px;&quot;&gt;Мориарти&lt;/font&gt;" style="rounded=0;whiteSpace=wrap;html=1;movable=1;resizable=1;rotatable=1;deletable=1;editable=1;locked=0;connectable=1;" parent="3wvi0kcAIpPuui1gEmCT-36" vertex="1">
          <mxGeometry width="180" height="90" as="geometry" />
        </mxCell>
        <mxCell id="3wvi0kcAIpPuui1gEmCT-38" value="&lt;font face=&quot;Times New Roman&quot; style=&quot;font-size: 14px;&quot;&gt;2&lt;/font&gt;" style="rounded=0;whiteSpace=wrap;html=1;movable=1;resizable=1;rotatable=1;deletable=1;editable=1;locked=0;connectable=1;" parent="3wvi0kcAIpPuui1gEmCT-36" vertex="1">
          <mxGeometry x="60" width="60.00000000000001" height="30.000000000000004" as="geometry" />
        </mxCell>
        <mxCell id="3wvi0kcAIpPuui1gEmCT-57" value="" style="group" parent="1" vertex="1" connectable="0">
          <mxGeometry x="440" y="40" width="180" height="90" as="geometry" />
        </mxCell>
        <mxCell id="3wvi0kcAIpPuui1gEmCT-58" value="" style="group" parent="3wvi0kcAIpPuui1gEmCT-57" vertex="1" connectable="0">
          <mxGeometry width="180" height="90" as="geometry" />
        </mxCell>
        <mxCell id="3wvi0kcAIpPuui1gEmCT-59" value="" style="group" parent="3wvi0kcAIpPuui1gEmCT-58" vertex="1" connectable="0">
          <mxGeometry width="180" height="90" as="geometry" />
        </mxCell>
        <mxCell id="3wvi0kcAIpPuui1gEmCT-60" value="&lt;font face=&quot;Times New Roman&quot;&gt;&lt;span style=&quot;font-size: 16px;&quot;&gt;Аль Капоне&lt;/span&gt;&lt;/font&gt;" style="rounded=0;whiteSpace=wrap;html=1;movable=1;resizable=1;rotatable=1;deletable=1;editable=1;locked=0;connectable=1;" parent="3wvi0kcAIpPuui1gEmCT-59" vertex="1">
          <mxGeometry width="180" height="90" as="geometry" />
        </mxCell>
        <mxCell id="3wvi0kcAIpPuui1gEmCT-61" value="&lt;font face=&quot;Times New Roman&quot; style=&quot;font-size: 14px;&quot;&gt;3&lt;/font&gt;" style="rounded=0;whiteSpace=wrap;html=1;movable=1;resizable=1;rotatable=1;deletable=1;editable=1;locked=0;connectable=1;" parent="3wvi0kcAIpPuui1gEmCT-59" vertex="1">
          <mxGeometry x="60" width="60.00000000000001" height="30.000000000000004" as="geometry" />
        </mxCell>
        <mxCell id="3wvi0kcAIpPuui1gEmCT-62" value="" style="group" parent="1" vertex="1" connectable="0">
          <mxGeometry x="640" y="40" width="180" height="90" as="geometry" />
        </mxCell>
        <mxCell id="3wvi0kcAIpPuui1gEmCT-63" value="&lt;font face=&quot;Times New Roman&quot; style=&quot;&quot;&gt;&lt;span style=&quot;font-size: 16px;&quot;&gt;Сергей Мавроди&lt;/span&gt;&lt;/font&gt;" style="rounded=0;whiteSpace=wrap;html=1;movable=1;resizable=1;rotatable=1;deletable=1;editable=1;locked=0;connectable=1;" parent="3wvi0kcAIpPuui1gEmCT-62" vertex="1">
          <mxGeometry width="180" height="90" as="geometry" />
        </mxCell>
        <mxCell id="3wvi0kcAIpPuui1gEmCT-64" value="&lt;font face=&quot;Times New Roman&quot; style=&quot;font-size: 14px;&quot;&gt;4&lt;/font&gt;" style="rounded=0;whiteSpace=wrap;html=1;movable=1;resizable=1;rotatable=1;deletable=1;editable=1;locked=0;connectable=1;" parent="3wvi0kcAIpPuui1gEmCT-62" vertex="1">
          <mxGeometry x="60" width="60.00000000000001" height="30.000000000000004" as="geometry" />
        </mxCell>
        <mxCell id="3wvi0kcAIpPuui1gEmCT-65" value="" style="group" parent="1" vertex="1" connectable="0">
          <mxGeometry x="30" y="150" width="180" height="90" as="geometry" />
        </mxCell>
        <mxCell id="3wvi0kcAIpPuui1gEmCT-66" value="" style="group" parent="3wvi0kcAIpPuui1gEmCT-65" vertex="1" connectable="0">
          <mxGeometry width="180" height="90" as="geometry" />
        </mxCell>
        <mxCell id="3wvi0kcAIpPuui1gEmCT-67" value="" style="group" parent="3wvi0kcAIpPuui1gEmCT-66" vertex="1" connectable="0">
          <mxGeometry width="180" height="90" as="geometry" />
        </mxCell>
        <mxCell id="3wvi0kcAIpPuui1gEmCT-68" value="&lt;font face=&quot;Times New Roman&quot;&gt;&lt;span style=&quot;font-size: 16px;&quot;&gt;Пабло Эскобар&lt;/span&gt;&lt;/font&gt;" style="rounded=0;whiteSpace=wrap;html=1;movable=1;resizable=1;rotatable=1;deletable=1;editable=1;locked=0;connectable=1;" parent="3wvi0kcAIpPuui1gEmCT-67" vertex="1">
          <mxGeometry width="180" height="90" as="geometry" />
        </mxCell>
        <mxCell id="3wvi0kcAIpPuui1gEmCT-69" value="&lt;font face=&quot;Times New Roman&quot; style=&quot;font-size: 14px;&quot;&gt;5&lt;/font&gt;" style="rounded=0;whiteSpace=wrap;html=1;movable=1;resizable=1;rotatable=1;deletable=1;editable=1;locked=0;connectable=1;" parent="3wvi0kcAIpPuui1gEmCT-67" vertex="1">
          <mxGeometry x="60" width="60.00000000000001" height="30.000000000000004" as="geometry" />
        </mxCell>
        <mxCell id="3wvi0kcAIpPuui1gEmCT-70" value="" style="group" parent="1" vertex="1" connectable="0">
          <mxGeometry x="230" y="150" width="180" height="90" as="geometry" />
        </mxCell>
        <mxCell id="3wvi0kcAIpPuui1gEmCT-71" value="&lt;font face=&quot;Times New Roman&quot;&gt;&lt;span style=&quot;font-size: 16px;&quot;&gt;Вольдеморт&lt;/span&gt;&lt;/font&gt;" style="rounded=0;whiteSpace=wrap;html=1;movable=1;resizable=1;rotatable=1;deletable=1;editable=1;locked=0;connectable=1;" parent="3wvi0kcAIpPuui1gEmCT-70" vertex="1">
          <mxGeometry width="180" height="90" as="geometry" />
        </mxCell>
        <mxCell id="3wvi0kcAIpPuui1gEmCT-72" value="&lt;font face=&quot;Times New Roman&quot; style=&quot;font-size: 14px;&quot;&gt;6&lt;/font&gt;" style="rounded=0;whiteSpace=wrap;html=1;movable=1;resizable=1;rotatable=1;deletable=1;editable=1;locked=0;connectable=1;" parent="3wvi0kcAIpPuui1gEmCT-70" vertex="1">
          <mxGeometry x="60" width="60.00000000000001" height="30.000000000000004" as="geometry" />
        </mxCell>
        <mxCell id="3wvi0kcAIpPuui1gEmCT-73" value="" style="group" parent="1" vertex="1" connectable="0">
          <mxGeometry x="440" y="150" width="180" height="90" as="geometry" />
        </mxCell>
        <mxCell id="3wvi0kcAIpPuui1gEmCT-74" value="" style="group" parent="3wvi0kcAIpPuui1gEmCT-73" vertex="1" connectable="0">
          <mxGeometry width="180" height="90" as="geometry" />
        </mxCell>
        <mxCell id="3wvi0kcAIpPuui1gEmCT-75" value="" style="group" parent="3wvi0kcAIpPuui1gEmCT-74" vertex="1" connectable="0">
          <mxGeometry width="180" height="90" as="geometry" />
        </mxCell>
        <mxCell id="3wvi0kcAIpPuui1gEmCT-76" value="&lt;font face=&quot;Times New Roman&quot;&gt;&lt;span style=&quot;font-size: 16px;&quot;&gt;Джордан Белфорт&lt;/span&gt;&lt;/font&gt;" style="rounded=0;whiteSpace=wrap;html=1;movable=1;resizable=1;rotatable=1;deletable=1;editable=1;locked=0;connectable=1;" parent="3wvi0kcAIpPuui1gEmCT-75" vertex="1">
          <mxGeometry width="180" height="90" as="geometry" />
        </mxCell>
        <mxCell id="3wvi0kcAIpPuui1gEmCT-77" value="&lt;font face=&quot;Times New Roman&quot; style=&quot;font-size: 14px;&quot;&gt;7&lt;/font&gt;" style="rounded=0;whiteSpace=wrap;html=1;movable=1;resizable=1;rotatable=1;deletable=1;editable=1;locked=0;connectable=1;" parent="3wvi0kcAIpPuui1gEmCT-75" vertex="1">
          <mxGeometry x="60" width="60.00000000000001" height="30.000000000000004" as="geometry" />
        </mxCell>
        <mxCell id="3wvi0kcAIpPuui1gEmCT-78" value="" style="group" parent="1" vertex="1" connectable="0">
          <mxGeometry x="640" y="150" width="180" height="90" as="geometry" />
        </mxCell>
        <mxCell id="3wvi0kcAIpPuui1gEmCT-79" value="&lt;font face=&quot;Times New Roman&quot;&gt;&lt;span style=&quot;font-size: 16px;&quot;&gt;Фрэнк Абигнейл&lt;/span&gt;&lt;/font&gt;" style="rounded=0;whiteSpace=wrap;html=1;movable=1;resizable=1;rotatable=1;deletable=1;editable=1;locked=0;connectable=1;" parent="3wvi0kcAIpPuui1gEmCT-78" vertex="1">
          <mxGeometry width="180" height="90" as="geometry" />
        </mxCell>
        <mxCell id="3wvi0kcAIpPuui1gEmCT-80" value="&lt;font face=&quot;Times New Roman&quot;&gt;&lt;span style=&quot;font-size: 14px;&quot;&gt;8&lt;/span&gt;&lt;/font&gt;" style="rounded=0;whiteSpace=wrap;html=1;movable=1;resizable=1;rotatable=1;deletable=1;editable=1;locked=0;connectable=1;" parent="3wvi0kcAIpPuui1gEmCT-78" vertex="1">
          <mxGeometry x="60" width="60.00000000000001" height="30.000000000000004" as="geometry" />
        </mxCell>
        <mxCell id="3wvi0kcAIpPuui1gEmCT-81" value="" style="group" parent="1" vertex="1" connectable="0">
          <mxGeometry x="30" y="260" width="180" height="90" as="geometry" />
        </mxCell>
        <mxCell id="3wvi0kcAIpPuui1gEmCT-82" value="" style="group" parent="3wvi0kcAIpPuui1gEmCT-81" vertex="1" connectable="0">
          <mxGeometry width="180" height="90" as="geometry" />
        </mxCell>
        <mxCell id="3wvi0kcAIpPuui1gEmCT-83" value="" style="group" parent="3wvi0kcAIpPuui1gEmCT-82" vertex="1" connectable="0">
          <mxGeometry width="180" height="90" as="geometry" />
        </mxCell>
        <mxCell id="3wvi0kcAIpPuui1gEmCT-84" value="&lt;font face=&quot;Times New Roman&quot;&gt;&lt;span style=&quot;font-size: 16px;&quot;&gt;Кевин Митник&lt;/span&gt;&lt;/font&gt;" style="rounded=0;whiteSpace=wrap;html=1;movable=1;resizable=1;rotatable=1;deletable=1;editable=1;locked=0;connectable=1;" parent="3wvi0kcAIpPuui1gEmCT-83" vertex="1">
          <mxGeometry width="180" height="90" as="geometry" />
        </mxCell>
        <mxCell id="3wvi0kcAIpPuui1gEmCT-85" value="&lt;font face=&quot;Times New Roman&quot; style=&quot;font-size: 14px;&quot;&gt;9&lt;/font&gt;" style="rounded=0;whiteSpace=wrap;html=1;movable=1;resizable=1;rotatable=1;deletable=1;editable=1;locked=0;connectable=1;" parent="3wvi0kcAIpPuui1gEmCT-83" vertex="1">
          <mxGeometry x="60" width="60.00000000000001" height="30.000000000000004" as="geometry" />
        </mxCell>
        <mxCell id="3wvi0kcAIpPuui1gEmCT-86" value="" style="group" parent="1" vertex="1" connectable="0">
          <mxGeometry x="230" y="260" width="180" height="90" as="geometry" />
        </mxCell>
        <mxCell id="3wvi0kcAIpPuui1gEmCT-87" value="&lt;font face=&quot;Times New Roman&quot; style=&quot;font-size: 16px;&quot;&gt;Елена Блиновская&lt;/font&gt;" style="rounded=0;whiteSpace=wrap;html=1;movable=1;resizable=1;rotatable=1;deletable=1;editable=1;locked=0;connectable=1;" parent="3wvi0kcAIpPuui1gEmCT-86" vertex="1">
          <mxGeometry width="180" height="90" as="geometry" />
        </mxCell>
        <mxCell id="3wvi0kcAIpPuui1gEmCT-88" value="&lt;font face=&quot;Times New Roman&quot; style=&quot;font-size: 14px;&quot;&gt;10&lt;/font&gt;" style="rounded=0;whiteSpace=wrap;html=1;movable=1;resizable=1;rotatable=1;deletable=1;editable=1;locked=0;connectable=1;" parent="3wvi0kcAIpPuui1gEmCT-86" vertex="1">
          <mxGeometry x="60" width="60.00000000000001" height="30.000000000000004" as="geometry" />
        </mxCell>
      </root>
    </mxGraphModel>
  </diagram>
  <diagram id="XTxBVJDKm-QedY_-0BoC" name="Преступления">
    <mxGraphModel dx="1042" dy="570" grid="1" gridSize="10" guides="1" tooltips="1" connect="1" arrows="1" fold="1" page="1" pageScale="1" pageWidth="850" pageHeight="1100" math="0" shadow="0">
      <root>
        <mxCell id="0" />
        <mxCell id="1" parent="0" />
        <mxCell id="cDAiwFoL0pdVmDAMkeIU-3" value="" style="group" vertex="1" connectable="0" parent="1">
          <mxGeometry x="40" y="30" width="170" height="130" as="geometry" />
        </mxCell>
        <mxCell id="cDAiwFoL0pdVmDAMkeIU-1" value="&lt;font face=&quot;Times New Roman&quot; style=&quot;font-size: 16px;&quot;&gt;Продажа Эйфелевой башни&lt;/font&gt;" style="ellipse;whiteSpace=wrap;html=1;" vertex="1" parent="cDAiwFoL0pdVmDAMkeIU-3">
          <mxGeometry width="170" height="130" as="geometry" />
        </mxCell>
        <mxCell id="cDAiwFoL0pdVmDAMkeIU-2" value="&lt;font face=&quot;Times New Roman&quot; style=&quot;font-size: 14px;&quot;&gt;1&lt;/font&gt;" style="ellipse;whiteSpace=wrap;html=1;" vertex="1" parent="cDAiwFoL0pdVmDAMkeIU-3">
          <mxGeometry x="55" width="60" height="40" as="geometry" />
        </mxCell>
        <mxCell id="cDAiwFoL0pdVmDAMkeIU-4" value="" style="group" vertex="1" connectable="0" parent="1">
          <mxGeometry x="240" y="30" width="170" height="130" as="geometry" />
        </mxCell>
        <mxCell id="cDAiwFoL0pdVmDAMkeIU-5" value="&lt;font face=&quot;Times New Roman&quot;&gt;&lt;span style=&quot;font-size: 16px;&quot;&gt;Похищение данных телефонной компании&lt;/span&gt;&lt;/font&gt;" style="ellipse;whiteSpace=wrap;html=1;" vertex="1" parent="cDAiwFoL0pdVmDAMkeIU-4">
          <mxGeometry width="170" height="130" as="geometry" />
        </mxCell>
        <mxCell id="cDAiwFoL0pdVmDAMkeIU-6" value="&lt;font face=&quot;Times New Roman&quot; style=&quot;font-size: 14px;&quot;&gt;2&lt;/font&gt;" style="ellipse;whiteSpace=wrap;html=1;" vertex="1" parent="cDAiwFoL0pdVmDAMkeIU-4">
          <mxGeometry x="55" width="60" height="40" as="geometry" />
        </mxCell>
        <mxCell id="cDAiwFoL0pdVmDAMkeIU-9" value="" style="group" vertex="1" connectable="0" parent="1">
          <mxGeometry x="40" y="180" width="170" height="130" as="geometry" />
        </mxCell>
        <mxCell id="cDAiwFoL0pdVmDAMkeIU-10" value="&lt;font face=&quot;Times New Roman&quot; style=&quot;font-size: 16px;&quot;&gt;Создание финансовой пирамиды&lt;/font&gt;" style="ellipse;whiteSpace=wrap;html=1;" vertex="1" parent="cDAiwFoL0pdVmDAMkeIU-9">
          <mxGeometry width="170" height="130" as="geometry" />
        </mxCell>
        <mxCell id="cDAiwFoL0pdVmDAMkeIU-11" value="&lt;font face=&quot;Times New Roman&quot; style=&quot;font-size: 14px;&quot;&gt;5&lt;/font&gt;" style="ellipse;whiteSpace=wrap;html=1;" vertex="1" parent="cDAiwFoL0pdVmDAMkeIU-9">
          <mxGeometry x="55" width="60" height="40" as="geometry" />
        </mxCell>
        <mxCell id="cDAiwFoL0pdVmDAMkeIU-12" value="" style="group" vertex="1" connectable="0" parent="1">
          <mxGeometry x="240" y="180" width="170" height="130" as="geometry" />
        </mxCell>
        <mxCell id="cDAiwFoL0pdVmDAMkeIU-13" value="&lt;font face=&quot;Times New Roman&quot; style=&quot;font-size: 16px;&quot;&gt;Продажа Эйфелевой башни второй раз&lt;/font&gt;" style="ellipse;whiteSpace=wrap;html=1;" vertex="1" parent="cDAiwFoL0pdVmDAMkeIU-12">
          <mxGeometry width="170" height="130" as="geometry" />
        </mxCell>
        <mxCell id="cDAiwFoL0pdVmDAMkeIU-14" value="&lt;font face=&quot;Times New Roman&quot; style=&quot;font-size: 14px;&quot;&gt;6&lt;/font&gt;" style="ellipse;whiteSpace=wrap;html=1;" vertex="1" parent="cDAiwFoL0pdVmDAMkeIU-12">
          <mxGeometry x="55" width="60" height="40" as="geometry" />
        </mxCell>
        <mxCell id="cDAiwFoL0pdVmDAMkeIU-17" value="" style="group" vertex="1" connectable="0" parent="1">
          <mxGeometry x="40" y="330" width="170" height="130" as="geometry" />
        </mxCell>
        <mxCell id="cDAiwFoL0pdVmDAMkeIU-18" value="&lt;font face=&quot;Times New Roman&quot; style=&quot;font-size: 16px;&quot;&gt;Наркоторговля&lt;/font&gt;" style="ellipse;whiteSpace=wrap;html=1;" vertex="1" parent="cDAiwFoL0pdVmDAMkeIU-17">
          <mxGeometry width="170" height="130" as="geometry" />
        </mxCell>
        <mxCell id="cDAiwFoL0pdVmDAMkeIU-19" value="&lt;font face=&quot;Times New Roman&quot; style=&quot;font-size: 14px;&quot;&gt;9&lt;/font&gt;" style="ellipse;whiteSpace=wrap;html=1;" vertex="1" parent="cDAiwFoL0pdVmDAMkeIU-17">
          <mxGeometry x="55" width="60" height="40" as="geometry" />
        </mxCell>
        <mxCell id="cDAiwFoL0pdVmDAMkeIU-20" value="" style="group" vertex="1" connectable="0" parent="1">
          <mxGeometry x="240" y="330" width="170" height="130" as="geometry" />
        </mxCell>
        <mxCell id="cDAiwFoL0pdVmDAMkeIU-21" value="&lt;font face=&quot;Times New Roman&quot;&gt;&lt;span style=&quot;font-size: 16px;&quot;&gt;Финансовые&lt;/span&gt;&lt;/font&gt;&lt;div&gt;&lt;font face=&quot;Times New Roman&quot;&gt;&lt;span style=&quot;font-size: 16px;&quot;&gt;махинации&lt;/span&gt;&lt;/font&gt;&lt;/div&gt;" style="ellipse;whiteSpace=wrap;html=1;" vertex="1" parent="cDAiwFoL0pdVmDAMkeIU-20">
          <mxGeometry width="170" height="130" as="geometry" />
        </mxCell>
        <mxCell id="cDAiwFoL0pdVmDAMkeIU-22" value="&lt;font face=&quot;Times New Roman&quot; style=&quot;font-size: 14px;&quot;&gt;10&lt;/font&gt;" style="ellipse;whiteSpace=wrap;html=1;" vertex="1" parent="cDAiwFoL0pdVmDAMkeIU-20">
          <mxGeometry x="55" width="60" height="40" as="geometry" />
        </mxCell>
        <mxCell id="cDAiwFoL0pdVmDAMkeIU-25" value="" style="group" vertex="1" connectable="0" parent="1">
          <mxGeometry x="440" y="30" width="170" height="130" as="geometry" />
        </mxCell>
        <mxCell id="cDAiwFoL0pdVmDAMkeIU-26" value="&lt;font face=&quot;Times New Roman&quot;&gt;&lt;span style=&quot;font-size: 16px;&quot;&gt;Отмывание денег&lt;/span&gt;&lt;/font&gt;" style="ellipse;whiteSpace=wrap;html=1;" vertex="1" parent="cDAiwFoL0pdVmDAMkeIU-25">
          <mxGeometry width="170" height="130" as="geometry" />
        </mxCell>
        <mxCell id="cDAiwFoL0pdVmDAMkeIU-27" value="&lt;font face=&quot;Times New Roman&quot; style=&quot;font-size: 14px;&quot;&gt;3&lt;/font&gt;" style="ellipse;whiteSpace=wrap;html=1;" vertex="1" parent="cDAiwFoL0pdVmDAMkeIU-25">
          <mxGeometry x="55" width="60" height="40" as="geometry" />
        </mxCell>
        <mxCell id="cDAiwFoL0pdVmDAMkeIU-28" value="" style="group" vertex="1" connectable="0" parent="1">
          <mxGeometry x="640" y="30" width="170" height="130" as="geometry" />
        </mxCell>
        <mxCell id="cDAiwFoL0pdVmDAMkeIU-29" value="&lt;font face=&quot;Times New Roman&quot; style=&quot;font-size: 16px;&quot;&gt;Убийство родителей Поттера&lt;/font&gt;" style="ellipse;whiteSpace=wrap;html=1;" vertex="1" parent="cDAiwFoL0pdVmDAMkeIU-28">
          <mxGeometry width="170" height="130" as="geometry" />
        </mxCell>
        <mxCell id="cDAiwFoL0pdVmDAMkeIU-30" value="&lt;font face=&quot;Times New Roman&quot; style=&quot;font-size: 14px;&quot;&gt;4&lt;/font&gt;" style="ellipse;whiteSpace=wrap;html=1;" vertex="1" parent="cDAiwFoL0pdVmDAMkeIU-28">
          <mxGeometry x="55" width="60" height="40" as="geometry" />
        </mxCell>
        <mxCell id="cDAiwFoL0pdVmDAMkeIU-31" value="" style="group" vertex="1" connectable="0" parent="1">
          <mxGeometry x="440" y="180" width="170" height="130" as="geometry" />
        </mxCell>
        <mxCell id="cDAiwFoL0pdVmDAMkeIU-32" value="&lt;font face=&quot;Times New Roman&quot; style=&quot;font-size: 16px;&quot;&gt;Убийство&lt;/font&gt;" style="ellipse;whiteSpace=wrap;html=1;" vertex="1" parent="cDAiwFoL0pdVmDAMkeIU-31">
          <mxGeometry width="170" height="130" as="geometry" />
        </mxCell>
        <mxCell id="cDAiwFoL0pdVmDAMkeIU-33" value="&lt;font face=&quot;Times New Roman&quot; style=&quot;font-size: 14px;&quot;&gt;7&lt;/font&gt;" style="ellipse;whiteSpace=wrap;html=1;" vertex="1" parent="cDAiwFoL0pdVmDAMkeIU-31">
          <mxGeometry x="55" width="60" height="40" as="geometry" />
        </mxCell>
        <mxCell id="cDAiwFoL0pdVmDAMkeIU-34" value="" style="group" vertex="1" connectable="0" parent="1">
          <mxGeometry x="640" y="180" width="170" height="130" as="geometry" />
        </mxCell>
        <mxCell id="cDAiwFoL0pdVmDAMkeIU-35" value="&lt;font face=&quot;Times New Roman&quot; style=&quot;font-size: 16px;&quot;&gt;Кража денег у банков&lt;/font&gt;" style="ellipse;whiteSpace=wrap;html=1;" vertex="1" parent="cDAiwFoL0pdVmDAMkeIU-34">
          <mxGeometry width="170" height="130" as="geometry" />
        </mxCell>
        <mxCell id="cDAiwFoL0pdVmDAMkeIU-36" value="&lt;font face=&quot;Times New Roman&quot; style=&quot;font-size: 14px;&quot;&gt;8&lt;/font&gt;" style="ellipse;whiteSpace=wrap;html=1;" vertex="1" parent="cDAiwFoL0pdVmDAMkeIU-34">
          <mxGeometry x="55" width="60" height="40" as="geometry" />
        </mxCell>
        <mxCell id="cDAiwFoL0pdVmDAMkeIU-37" value="" style="group" vertex="1" connectable="0" parent="1">
          <mxGeometry x="440" y="330" width="170" height="130" as="geometry" />
        </mxCell>
        <mxCell id="cDAiwFoL0pdVmDAMkeIU-38" value="&lt;font face=&quot;Times New Roman&quot; style=&quot;font-size: 16px;&quot;&gt;Мошенничество и инфоциганство&lt;/font&gt;" style="ellipse;whiteSpace=wrap;html=1;" vertex="1" parent="cDAiwFoL0pdVmDAMkeIU-37">
          <mxGeometry width="170" height="130" as="geometry" />
        </mxCell>
        <mxCell id="cDAiwFoL0pdVmDAMkeIU-39" value="&lt;font face=&quot;Times New Roman&quot; style=&quot;font-size: 14px;&quot;&gt;11&lt;/font&gt;" style="ellipse;whiteSpace=wrap;html=1;" vertex="1" parent="cDAiwFoL0pdVmDAMkeIU-37">
          <mxGeometry x="55" width="60" height="40" as="geometry" />
        </mxCell>
      </root>
    </mxGraphModel>
  </diagram>
  <diagram id="ubCkxAWy6tgxAh7r-hoX" name="Улики">
    <mxGraphModel dx="1042" dy="2770" grid="1" gridSize="10" guides="1" tooltips="1" connect="1" arrows="1" fold="1" page="1" pageScale="1" pageWidth="850" pageHeight="1100" math="0" shadow="0">
      <root>
        <mxCell id="0" />
        <mxCell id="1" parent="0" />
        <mxCell id="AjVUMKlilgp0ESnhzVmI-3" value="" style="group" vertex="1" connectable="0" parent="1">
          <mxGeometry x="30" y="-2170" width="170" height="100" as="geometry" />
        </mxCell>
        <mxCell id="AjVUMKlilgp0ESnhzVmI-1" value="&lt;font face=&quot;Times New Roman&quot; style=&quot;font-size: 16px;&quot;&gt;Отпечаток пальца&lt;/font&gt;" style="shape=hexagon;perimeter=hexagonPerimeter2;whiteSpace=wrap;html=1;fixedSize=1;" vertex="1" parent="AjVUMKlilgp0ESnhzVmI-3">
          <mxGeometry width="170" height="100" as="geometry" />
        </mxCell>
        <mxCell id="AjVUMKlilgp0ESnhzVmI-2" value="&lt;font face=&quot;Times New Roman&quot; style=&quot;font-size: 14px;&quot;&gt;1&lt;/font&gt;" style="shape=hexagon;perimeter=hexagonPerimeter2;whiteSpace=wrap;html=1;fixedSize=1;" vertex="1" parent="AjVUMKlilgp0ESnhzVmI-3">
          <mxGeometry x="54.09" width="61.82" height="30" as="geometry" />
        </mxCell>
        <mxCell id="OWYfTBaAOQgAK-0S-6aG-7" value="" style="group" vertex="1" connectable="0" parent="1">
          <mxGeometry x="230" y="-2170" width="170" height="100" as="geometry" />
        </mxCell>
        <mxCell id="OWYfTBaAOQgAK-0S-6aG-8" value="&lt;font face=&quot;Times New Roman&quot; style=&quot;font-size: 16px;&quot;&gt;Чеки и документы&lt;/font&gt;" style="shape=hexagon;perimeter=hexagonPerimeter2;whiteSpace=wrap;html=1;fixedSize=1;" vertex="1" parent="OWYfTBaAOQgAK-0S-6aG-7">
          <mxGeometry width="170" height="100" as="geometry" />
        </mxCell>
        <mxCell id="OWYfTBaAOQgAK-0S-6aG-9" value="&lt;font face=&quot;Times New Roman&quot; style=&quot;font-size: 14px;&quot;&gt;2&lt;/font&gt;" style="shape=hexagon;perimeter=hexagonPerimeter2;whiteSpace=wrap;html=1;fixedSize=1;" vertex="1" parent="OWYfTBaAOQgAK-0S-6aG-7">
          <mxGeometry x="54.09" width="61.82" height="30" as="geometry" />
        </mxCell>
        <mxCell id="OWYfTBaAOQgAK-0S-6aG-10" value="" style="group;" vertex="1" connectable="0" parent="1">
          <mxGeometry x="430" y="-2170" width="170" height="100" as="geometry" />
        </mxCell>
        <mxCell id="OWYfTBaAOQgAK-0S-6aG-11" value="&lt;font face=&quot;Times New Roman&quot; style=&quot;font-size: 16px;&quot;&gt;Свидетели&lt;/font&gt;" style="shape=hexagon;perimeter=hexagonPerimeter2;whiteSpace=wrap;html=1;fixedSize=1;" vertex="1" parent="OWYfTBaAOQgAK-0S-6aG-10">
          <mxGeometry width="170" height="100" as="geometry" />
        </mxCell>
        <mxCell id="OWYfTBaAOQgAK-0S-6aG-12" value="&lt;font face=&quot;Times New Roman&quot; style=&quot;font-size: 14px;&quot;&gt;3&lt;/font&gt;" style="shape=hexagon;perimeter=hexagonPerimeter2;whiteSpace=wrap;html=1;fixedSize=1;" vertex="1" parent="OWYfTBaAOQgAK-0S-6aG-10">
          <mxGeometry x="54.09" width="61.82" height="30" as="geometry" />
        </mxCell>
        <mxCell id="OWYfTBaAOQgAK-0S-6aG-13" value="" style="group" vertex="1" connectable="0" parent="1">
          <mxGeometry x="630" y="-2170" width="170" height="100" as="geometry" />
        </mxCell>
        <mxCell id="OWYfTBaAOQgAK-0S-6aG-14" value="&lt;font face=&quot;Times New Roman&quot; style=&quot;font-size: 16px;&quot;&gt;Показания&lt;/font&gt;&lt;div&gt;&lt;font face=&quot;Times New Roman&quot; style=&quot;font-size: 16px;&quot;&gt;потерпевших&lt;/font&gt;&lt;/div&gt;" style="shape=hexagon;perimeter=hexagonPerimeter2;whiteSpace=wrap;html=1;fixedSize=1;" vertex="1" parent="OWYfTBaAOQgAK-0S-6aG-13">
          <mxGeometry width="170" height="100" as="geometry" />
        </mxCell>
        <mxCell id="OWYfTBaAOQgAK-0S-6aG-15" value="&lt;font face=&quot;Times New Roman&quot; style=&quot;font-size: 14px;&quot;&gt;4&lt;/font&gt;" style="shape=hexagon;perimeter=hexagonPerimeter2;whiteSpace=wrap;html=1;fixedSize=1;" vertex="1" parent="OWYfTBaAOQgAK-0S-6aG-13">
          <mxGeometry x="54.09" width="61.82" height="30" as="geometry" />
        </mxCell>
        <mxCell id="OWYfTBaAOQgAK-0S-6aG-16" value="" style="group" vertex="1" connectable="0" parent="1">
          <mxGeometry x="30" y="-2050" width="170" height="100" as="geometry" />
        </mxCell>
        <mxCell id="OWYfTBaAOQgAK-0S-6aG-17" value="&lt;font face=&quot;Times New Roman&quot; style=&quot;font-size: 16px;&quot;&gt;Образец ДНК&lt;/font&gt;" style="shape=hexagon;perimeter=hexagonPerimeter2;whiteSpace=wrap;html=1;fixedSize=1;" vertex="1" parent="OWYfTBaAOQgAK-0S-6aG-16">
          <mxGeometry width="170" height="100" as="geometry" />
        </mxCell>
        <mxCell id="OWYfTBaAOQgAK-0S-6aG-18" value="&lt;font face=&quot;Times New Roman&quot; style=&quot;font-size: 14px;&quot;&gt;5&lt;/font&gt;" style="shape=hexagon;perimeter=hexagonPerimeter2;whiteSpace=wrap;html=1;fixedSize=1;" vertex="1" parent="OWYfTBaAOQgAK-0S-6aG-16">
          <mxGeometry x="54.09" width="61.82" height="30" as="geometry" />
        </mxCell>
        <mxCell id="OWYfTBaAOQgAK-0S-6aG-19" value="" style="group" vertex="1" connectable="0" parent="1">
          <mxGeometry x="230" y="-2050" width="170" height="100" as="geometry" />
        </mxCell>
        <mxCell id="OWYfTBaAOQgAK-0S-6aG-20" value="&lt;font face=&quot;Times New Roman&quot; style=&quot;font-size: 16px;&quot;&gt;Следы выстрелов&lt;/font&gt;" style="shape=hexagon;perimeter=hexagonPerimeter2;whiteSpace=wrap;html=1;fixedSize=1;" vertex="1" parent="OWYfTBaAOQgAK-0S-6aG-19">
          <mxGeometry width="170" height="100" as="geometry" />
        </mxCell>
        <mxCell id="OWYfTBaAOQgAK-0S-6aG-21" value="&lt;font face=&quot;Times New Roman&quot; style=&quot;font-size: 14px;&quot;&gt;6&lt;/font&gt;" style="shape=hexagon;perimeter=hexagonPerimeter2;whiteSpace=wrap;html=1;fixedSize=1;" vertex="1" parent="OWYfTBaAOQgAK-0S-6aG-19">
          <mxGeometry x="54.09" width="61.82" height="30" as="geometry" />
        </mxCell>
        <mxCell id="OWYfTBaAOQgAK-0S-6aG-22" value="" style="group" vertex="1" connectable="0" parent="1">
          <mxGeometry x="430" y="-2050" width="170" height="100" as="geometry" />
        </mxCell>
        <mxCell id="OWYfTBaAOQgAK-0S-6aG-23" value="&lt;font face=&quot;Times New Roman&quot; style=&quot;font-size: 16px;&quot;&gt;Неосторожность в&lt;/font&gt;&lt;div&gt;&lt;font face=&quot;Times New Roman&quot; style=&quot;font-size: 16px;&quot;&gt;сети&lt;/font&gt;&lt;/div&gt;" style="shape=hexagon;perimeter=hexagonPerimeter2;whiteSpace=wrap;html=1;fixedSize=1;" vertex="1" parent="OWYfTBaAOQgAK-0S-6aG-22">
          <mxGeometry width="170" height="100" as="geometry" />
        </mxCell>
        <mxCell id="OWYfTBaAOQgAK-0S-6aG-24" value="&lt;font face=&quot;Times New Roman&quot; style=&quot;font-size: 14px;&quot;&gt;7&lt;/font&gt;" style="shape=hexagon;perimeter=hexagonPerimeter2;whiteSpace=wrap;html=1;fixedSize=1;" vertex="1" parent="OWYfTBaAOQgAK-0S-6aG-22">
          <mxGeometry x="54.09" width="61.82" height="30" as="geometry" />
        </mxCell>
        <mxCell id="OWYfTBaAOQgAK-0S-6aG-28" value="" style="group;" vertex="1" connectable="0" parent="1">
          <mxGeometry x="630" y="-2050" width="190" height="100" as="geometry" />
        </mxCell>
        <mxCell id="OWYfTBaAOQgAK-0S-6aG-29" value="&lt;font face=&quot;Times New Roman&quot; style=&quot;font-size: 16px;&quot;&gt;Жалобы в комиссию по&lt;/font&gt;&lt;div&gt;&lt;font face=&quot;Times New Roman&quot; style=&quot;font-size: 16px;&quot;&gt;ценным бумагам&lt;/font&gt;&lt;/div&gt;" style="shape=hexagon;perimeter=hexagonPerimeter2;whiteSpace=wrap;html=1;fixedSize=1;" vertex="1" parent="OWYfTBaAOQgAK-0S-6aG-28">
          <mxGeometry width="190" height="100" as="geometry" />
        </mxCell>
        <mxCell id="OWYfTBaAOQgAK-0S-6aG-30" value="&lt;font face=&quot;Times New Roman&quot; style=&quot;font-size: 14px;&quot;&gt;8&lt;/font&gt;" style="shape=hexagon;perimeter=hexagonPerimeter2;whiteSpace=wrap;html=1;fixedSize=1;" vertex="1" parent="OWYfTBaAOQgAK-0S-6aG-28">
          <mxGeometry x="60.45352941176471" width="69.09294117647059" height="30" as="geometry" />
        </mxCell>
      </root>
    </mxGraphModel>
  </diagram>
  <diagram id="KcT0E21txZGhkkX47jvZ" name="Детективы">
    <mxGraphModel dx="1042" dy="570" grid="1" gridSize="10" guides="1" tooltips="1" connect="1" arrows="1" fold="1" page="1" pageScale="1" pageWidth="850" pageHeight="1100" math="0" shadow="0">
      <root>
        <mxCell id="0" />
        <mxCell id="1" parent="0" />
        <mxCell id="kUEWaUUmq19tg5iHSMB5-3" value="" style="group" vertex="1" connectable="0" parent="1">
          <mxGeometry x="30" y="40" width="180" height="90" as="geometry" />
        </mxCell>
        <mxCell id="kUEWaUUmq19tg5iHSMB5-1" value="&lt;font face=&quot;Times New Roman&quot; style=&quot;font-size: 16px;&quot;&gt;Шерлок Холмс&lt;/font&gt;" style="shape=parallelogram;perimeter=parallelogramPerimeter;whiteSpace=wrap;html=1;fixedSize=1;" vertex="1" parent="kUEWaUUmq19tg5iHSMB5-3">
          <mxGeometry width="180" height="90" as="geometry" />
        </mxCell>
        <mxCell id="kUEWaUUmq19tg5iHSMB5-2" value="&lt;font face=&quot;Times New Roman&quot; style=&quot;font-size: 14px;&quot;&gt;1&lt;/font&gt;" style="shape=parallelogram;perimeter=parallelogramPerimeter;whiteSpace=wrap;html=1;fixedSize=1;" vertex="1" parent="kUEWaUUmq19tg5iHSMB5-3">
          <mxGeometry x="55" width="70" height="30" as="geometry" />
        </mxCell>
        <mxCell id="kUEWaUUmq19tg5iHSMB5-4" value="" style="group" vertex="1" connectable="0" parent="1">
          <mxGeometry x="230" y="40" width="180" height="90" as="geometry" />
        </mxCell>
        <mxCell id="kUEWaUUmq19tg5iHSMB5-5" value="&lt;font face=&quot;Times New Roman&quot;&gt;&lt;span style=&quot;font-size: 16px;&quot;&gt;Экрюль Пуаро&lt;/span&gt;&lt;/font&gt;" style="shape=parallelogram;perimeter=parallelogramPerimeter;whiteSpace=wrap;html=1;fixedSize=1;" vertex="1" parent="kUEWaUUmq19tg5iHSMB5-4">
          <mxGeometry width="180" height="90" as="geometry" />
        </mxCell>
        <mxCell id="kUEWaUUmq19tg5iHSMB5-6" value="&lt;font face=&quot;Times New Roman&quot; style=&quot;font-size: 14px;&quot;&gt;2&lt;/font&gt;" style="shape=parallelogram;perimeter=parallelogramPerimeter;whiteSpace=wrap;html=1;fixedSize=1;" vertex="1" parent="kUEWaUUmq19tg5iHSMB5-4">
          <mxGeometry x="55" width="70" height="30" as="geometry" />
        </mxCell>
        <mxCell id="kUEWaUUmq19tg5iHSMB5-49" value="" style="group" vertex="1" connectable="0" parent="1">
          <mxGeometry x="430" y="40" width="180" height="90" as="geometry" />
        </mxCell>
        <mxCell id="kUEWaUUmq19tg5iHSMB5-50" value="&lt;font face=&quot;Times New Roman&quot;&gt;&lt;span style=&quot;font-size: 16px;&quot;&gt;Мухтар&lt;/span&gt;&lt;/font&gt;" style="shape=parallelogram;perimeter=parallelogramPerimeter;whiteSpace=wrap;html=1;fixedSize=1;" vertex="1" parent="kUEWaUUmq19tg5iHSMB5-49">
          <mxGeometry width="180" height="90" as="geometry" />
        </mxCell>
        <mxCell id="kUEWaUUmq19tg5iHSMB5-51" value="&lt;font face=&quot;Times New Roman&quot; style=&quot;font-size: 14px;&quot;&gt;3&lt;/font&gt;" style="shape=parallelogram;perimeter=parallelogramPerimeter;whiteSpace=wrap;html=1;fixedSize=1;" vertex="1" parent="kUEWaUUmq19tg5iHSMB5-49">
          <mxGeometry x="55" width="70" height="30" as="geometry" />
        </mxCell>
        <mxCell id="kUEWaUUmq19tg5iHSMB5-52" value="" style="group" vertex="1" connectable="0" parent="1">
          <mxGeometry x="630" y="40" width="180" height="90" as="geometry" />
        </mxCell>
        <mxCell id="kUEWaUUmq19tg5iHSMB5-53" value="&lt;font face=&quot;Times New Roman&quot;&gt;&lt;span style=&quot;font-size: 16px;&quot;&gt;Инспектор Сидоров&lt;/span&gt;&lt;/font&gt;" style="shape=parallelogram;perimeter=parallelogramPerimeter;whiteSpace=wrap;html=1;fixedSize=1;" vertex="1" parent="kUEWaUUmq19tg5iHSMB5-52">
          <mxGeometry width="180" height="90" as="geometry" />
        </mxCell>
        <mxCell id="kUEWaUUmq19tg5iHSMB5-54" value="&lt;font face=&quot;Times New Roman&quot; style=&quot;font-size: 14px;&quot;&gt;4&lt;/font&gt;" style="shape=parallelogram;perimeter=parallelogramPerimeter;whiteSpace=wrap;html=1;fixedSize=1;" vertex="1" parent="kUEWaUUmq19tg5iHSMB5-52">
          <mxGeometry x="55" width="70" height="30" as="geometry" />
        </mxCell>
        <mxCell id="kUEWaUUmq19tg5iHSMB5-55" value="" style="group" vertex="1" connectable="0" parent="1">
          <mxGeometry x="20" y="150" width="180" height="90" as="geometry" />
        </mxCell>
        <mxCell id="kUEWaUUmq19tg5iHSMB5-56" value="&lt;font face=&quot;Times New Roman&quot;&gt;&lt;span style=&quot;font-size: 16px;&quot;&gt;Оперуполномоченный&lt;/span&gt;&lt;/font&gt;&lt;div&gt;&lt;font face=&quot;Times New Roman&quot;&gt;&lt;span style=&quot;font-size: 16px;&quot;&gt;Евгений&lt;/span&gt;&lt;/font&gt;&lt;/div&gt;" style="shape=parallelogram;perimeter=parallelogramPerimeter;whiteSpace=wrap;html=1;fixedSize=1;" vertex="1" parent="kUEWaUUmq19tg5iHSMB5-55">
          <mxGeometry width="180" height="90" as="geometry" />
        </mxCell>
        <mxCell id="kUEWaUUmq19tg5iHSMB5-57" value="&lt;font face=&quot;Times New Roman&quot; style=&quot;font-size: 14px;&quot;&gt;5&lt;/font&gt;" style="shape=parallelogram;perimeter=parallelogramPerimeter;whiteSpace=wrap;html=1;fixedSize=1;" vertex="1" parent="kUEWaUUmq19tg5iHSMB5-55">
          <mxGeometry x="55" width="70" height="30" as="geometry" />
        </mxCell>
        <mxCell id="kUEWaUUmq19tg5iHSMB5-58" value="" style="group" vertex="1" connectable="0" parent="1">
          <mxGeometry x="220" y="150" width="180" height="90" as="geometry" />
        </mxCell>
        <mxCell id="kUEWaUUmq19tg5iHSMB5-59" value="&lt;font face=&quot;Times New Roman&quot;&gt;&lt;span style=&quot;font-size: 16px;&quot;&gt;Капитан Воробьев&lt;/span&gt;&lt;/font&gt;" style="shape=parallelogram;perimeter=parallelogramPerimeter;whiteSpace=wrap;html=1;fixedSize=1;" vertex="1" parent="kUEWaUUmq19tg5iHSMB5-58">
          <mxGeometry width="180" height="90" as="geometry" />
        </mxCell>
        <mxCell id="kUEWaUUmq19tg5iHSMB5-60" value="&lt;font face=&quot;Times New Roman&quot; style=&quot;font-size: 14px;&quot;&gt;6&lt;/font&gt;" style="shape=parallelogram;perimeter=parallelogramPerimeter;whiteSpace=wrap;html=1;fixedSize=1;" vertex="1" parent="kUEWaUUmq19tg5iHSMB5-58">
          <mxGeometry x="55" width="70" height="30" as="geometry" />
        </mxCell>
        <mxCell id="kUEWaUUmq19tg5iHSMB5-61" value="" style="group" vertex="1" connectable="0" parent="1">
          <mxGeometry x="420" y="150" width="180" height="90" as="geometry" />
        </mxCell>
        <mxCell id="kUEWaUUmq19tg5iHSMB5-62" value="&lt;font face=&quot;Times New Roman&quot;&gt;&lt;span style=&quot;font-size: 16px;&quot;&gt;Следователь Петров&lt;/span&gt;&lt;/font&gt;" style="shape=parallelogram;perimeter=parallelogramPerimeter;whiteSpace=wrap;html=1;fixedSize=1;" vertex="1" parent="kUEWaUUmq19tg5iHSMB5-61">
          <mxGeometry width="180" height="90" as="geometry" />
        </mxCell>
        <mxCell id="kUEWaUUmq19tg5iHSMB5-63" value="&lt;font face=&quot;Times New Roman&quot; style=&quot;font-size: 14px;&quot;&gt;7&lt;/font&gt;" style="shape=parallelogram;perimeter=parallelogramPerimeter;whiteSpace=wrap;html=1;fixedSize=1;" vertex="1" parent="kUEWaUUmq19tg5iHSMB5-61">
          <mxGeometry x="55" width="70" height="30" as="geometry" />
        </mxCell>
        <mxCell id="kUEWaUUmq19tg5iHSMB5-64" value="" style="group" vertex="1" connectable="0" parent="1">
          <mxGeometry x="620" y="150" width="180" height="90" as="geometry" />
        </mxCell>
        <mxCell id="kUEWaUUmq19tg5iHSMB5-65" value="&lt;font face=&quot;Times New Roman&quot;&gt;&lt;span style=&quot;font-size: 16px;&quot;&gt;Инспектор Лестрейд&lt;/span&gt;&lt;/font&gt;" style="shape=parallelogram;perimeter=parallelogramPerimeter;whiteSpace=wrap;html=1;fixedSize=1;" vertex="1" parent="kUEWaUUmq19tg5iHSMB5-64">
          <mxGeometry width="180" height="90" as="geometry" />
        </mxCell>
        <mxCell id="kUEWaUUmq19tg5iHSMB5-66" value="&lt;font face=&quot;Times New Roman&quot; style=&quot;font-size: 14px;&quot;&gt;8&lt;/font&gt;" style="shape=parallelogram;perimeter=parallelogramPerimeter;whiteSpace=wrap;html=1;fixedSize=1;" vertex="1" parent="kUEWaUUmq19tg5iHSMB5-64">
          <mxGeometry x="55" width="70" height="30" as="geometry" />
        </mxCell>
        <mxCell id="kUEWaUUmq19tg5iHSMB5-67" value="" style="group" vertex="1" connectable="0" parent="1">
          <mxGeometry x="20" y="260" width="180" height="90" as="geometry" />
        </mxCell>
        <mxCell id="kUEWaUUmq19tg5iHSMB5-68" value="&lt;font face=&quot;Times New Roman&quot; style=&quot;font-size: 16px;&quot;&gt;Хлоя Декер&lt;/font&gt;" style="shape=parallelogram;perimeter=parallelogramPerimeter;whiteSpace=wrap;html=1;fixedSize=1;" vertex="1" parent="kUEWaUUmq19tg5iHSMB5-67">
          <mxGeometry width="180" height="90" as="geometry" />
        </mxCell>
        <mxCell id="kUEWaUUmq19tg5iHSMB5-69" value="&lt;font face=&quot;Times New Roman&quot; style=&quot;font-size: 14px;&quot;&gt;9&lt;/font&gt;" style="shape=parallelogram;perimeter=parallelogramPerimeter;whiteSpace=wrap;html=1;fixedSize=1;" vertex="1" parent="kUEWaUUmq19tg5iHSMB5-67">
          <mxGeometry x="55" width="70" height="30" as="geometry" />
        </mxCell>
        <mxCell id="kUEWaUUmq19tg5iHSMB5-70" value="" style="group" vertex="1" connectable="0" parent="1">
          <mxGeometry x="220" y="260" width="180" height="90" as="geometry" />
        </mxCell>
        <mxCell id="kUEWaUUmq19tg5iHSMB5-71" value="&lt;font face=&quot;Times New Roman&quot;&gt;&lt;span style=&quot;font-size: 16px;&quot;&gt;Джейсон Стейтем&lt;/span&gt;&lt;/font&gt;" style="shape=parallelogram;perimeter=parallelogramPerimeter;whiteSpace=wrap;html=1;fixedSize=1;" vertex="1" parent="kUEWaUUmq19tg5iHSMB5-70">
          <mxGeometry width="180" height="90" as="geometry" />
        </mxCell>
        <mxCell id="kUEWaUUmq19tg5iHSMB5-72" value="&lt;font face=&quot;Times New Roman&quot; style=&quot;font-size: 14px;&quot;&gt;10&lt;/font&gt;" style="shape=parallelogram;perimeter=parallelogramPerimeter;whiteSpace=wrap;html=1;fixedSize=1;" vertex="1" parent="kUEWaUUmq19tg5iHSMB5-70">
          <mxGeometry x="55" width="70" height="30" as="geometry" />
        </mxCell>
      </root>
    </mxGraphModel>
  </diagram>
  <diagram id="m9698AMI3BZ4ZtnOoSHc" name="Оставляет улику">
    <mxGraphModel dx="2084" dy="1140" grid="1" gridSize="10" guides="1" tooltips="1" connect="1" arrows="1" fold="1" page="1" pageScale="1" pageWidth="850" pageHeight="1100" math="0" shadow="0">
      <root>
        <mxCell id="0" />
        <mxCell id="1" parent="0" />
        <mxCell id="tT3CNW5afVvHy7vdmMBc-1" value="" style="group" parent="1" vertex="1" connectable="0">
          <mxGeometry x="130" y="280" width="180" height="90" as="geometry" />
        </mxCell>
        <mxCell id="tT3CNW5afVvHy7vdmMBc-2" value="" style="group" parent="tT3CNW5afVvHy7vdmMBc-1" vertex="1" connectable="0">
          <mxGeometry width="180" height="90" as="geometry" />
        </mxCell>
        <mxCell id="tT3CNW5afVvHy7vdmMBc-3" value="" style="group" parent="tT3CNW5afVvHy7vdmMBc-2" vertex="1" connectable="0">
          <mxGeometry width="180" height="90" as="geometry" />
        </mxCell>
        <mxCell id="tT3CNW5afVvHy7vdmMBc-4" value="&lt;font face=&quot;Times New Roman&quot; style=&quot;font-size: 16px;&quot;&gt;Виктор Люстиг&lt;/font&gt;" style="rounded=0;whiteSpace=wrap;html=1;movable=1;resizable=1;rotatable=1;deletable=1;editable=1;locked=0;connectable=1;" parent="tT3CNW5afVvHy7vdmMBc-3" vertex="1">
          <mxGeometry width="180" height="90" as="geometry" />
        </mxCell>
        <mxCell id="tT3CNW5afVvHy7vdmMBc-5" value="&lt;font face=&quot;Times New Roman&quot; style=&quot;font-size: 14px;&quot;&gt;1&lt;/font&gt;" style="rounded=0;whiteSpace=wrap;html=1;movable=1;resizable=1;rotatable=1;deletable=1;editable=1;locked=0;connectable=1;" parent="tT3CNW5afVvHy7vdmMBc-3" vertex="1">
          <mxGeometry x="60" width="60.00000000000001" height="30.000000000000004" as="geometry" />
        </mxCell>
        <mxCell id="tT3CNW5afVvHy7vdmMBc-6" value="" style="group" parent="1" vertex="1" connectable="0">
          <mxGeometry x="440" y="260" width="180" height="90" as="geometry" />
        </mxCell>
        <mxCell id="tT3CNW5afVvHy7vdmMBc-7" value="&lt;font face=&quot;Times New Roman&quot; style=&quot;font-size: 16px;&quot;&gt;Мориарти&lt;/font&gt;" style="rounded=0;whiteSpace=wrap;html=1;movable=1;resizable=1;rotatable=1;deletable=1;editable=1;locked=0;connectable=1;" parent="tT3CNW5afVvHy7vdmMBc-6" vertex="1">
          <mxGeometry width="180" height="90" as="geometry" />
        </mxCell>
        <mxCell id="tT3CNW5afVvHy7vdmMBc-8" value="&lt;font face=&quot;Times New Roman&quot; style=&quot;font-size: 14px;&quot;&gt;2&lt;/font&gt;" style="rounded=0;whiteSpace=wrap;html=1;movable=1;resizable=1;rotatable=1;deletable=1;editable=1;locked=0;connectable=1;" parent="tT3CNW5afVvHy7vdmMBc-6" vertex="1">
          <mxGeometry x="60" width="60.00000000000001" height="30.000000000000004" as="geometry" />
        </mxCell>
        <mxCell id="tT3CNW5afVvHy7vdmMBc-9" value="" style="group" parent="1" vertex="1" connectable="0">
          <mxGeometry x="970" y="270" width="180" height="90" as="geometry" />
        </mxCell>
        <mxCell id="tT3CNW5afVvHy7vdmMBc-10" value="" style="group" parent="tT3CNW5afVvHy7vdmMBc-9" vertex="1" connectable="0">
          <mxGeometry width="180" height="90" as="geometry" />
        </mxCell>
        <mxCell id="tT3CNW5afVvHy7vdmMBc-11" value="" style="group" parent="tT3CNW5afVvHy7vdmMBc-10" vertex="1" connectable="0">
          <mxGeometry width="180" height="90" as="geometry" />
        </mxCell>
        <mxCell id="tT3CNW5afVvHy7vdmMBc-12" value="&lt;font face=&quot;Times New Roman&quot;&gt;&lt;span style=&quot;font-size: 16px;&quot;&gt;Аль Капоне&lt;/span&gt;&lt;/font&gt;" style="rounded=0;whiteSpace=wrap;html=1;movable=1;resizable=1;rotatable=1;deletable=1;editable=1;locked=0;connectable=1;" parent="tT3CNW5afVvHy7vdmMBc-11" vertex="1">
          <mxGeometry width="180" height="90" as="geometry" />
        </mxCell>
        <mxCell id="tT3CNW5afVvHy7vdmMBc-13" value="&lt;font face=&quot;Times New Roman&quot; style=&quot;font-size: 14px;&quot;&gt;3&lt;/font&gt;" style="rounded=0;whiteSpace=wrap;html=1;movable=1;resizable=1;rotatable=1;deletable=1;editable=1;locked=0;connectable=1;" parent="tT3CNW5afVvHy7vdmMBc-11" vertex="1">
          <mxGeometry x="60" width="60.00000000000001" height="30.000000000000004" as="geometry" />
        </mxCell>
        <mxCell id="tT3CNW5afVvHy7vdmMBc-14" value="" style="group" parent="1" vertex="1" connectable="0">
          <mxGeometry x="680" y="270" width="180" height="90" as="geometry" />
        </mxCell>
        <mxCell id="tT3CNW5afVvHy7vdmMBc-15" value="&lt;font face=&quot;Times New Roman&quot; style=&quot;&quot;&gt;&lt;span style=&quot;font-size: 16px;&quot;&gt;Сергей Мавроди&lt;/span&gt;&lt;/font&gt;" style="rounded=0;whiteSpace=wrap;html=1;movable=1;resizable=1;rotatable=1;deletable=1;editable=1;locked=0;connectable=1;" parent="tT3CNW5afVvHy7vdmMBc-14" vertex="1">
          <mxGeometry width="180" height="90" as="geometry" />
        </mxCell>
        <mxCell id="tT3CNW5afVvHy7vdmMBc-16" value="&lt;font face=&quot;Times New Roman&quot; style=&quot;font-size: 14px;&quot;&gt;4&lt;/font&gt;" style="rounded=0;whiteSpace=wrap;html=1;movable=1;resizable=1;rotatable=1;deletable=1;editable=1;locked=0;connectable=1;" parent="tT3CNW5afVvHy7vdmMBc-14" vertex="1">
          <mxGeometry x="60" width="60.00000000000001" height="30.000000000000004" as="geometry" />
        </mxCell>
        <mxCell id="tT3CNW5afVvHy7vdmMBc-17" value="" style="group" parent="1" vertex="1" connectable="0">
          <mxGeometry x="1290" y="290" width="180" height="90" as="geometry" />
        </mxCell>
        <mxCell id="tT3CNW5afVvHy7vdmMBc-18" value="" style="group" parent="tT3CNW5afVvHy7vdmMBc-17" vertex="1" connectable="0">
          <mxGeometry width="180" height="90" as="geometry" />
        </mxCell>
        <mxCell id="tT3CNW5afVvHy7vdmMBc-19" value="" style="group" parent="tT3CNW5afVvHy7vdmMBc-18" vertex="1" connectable="0">
          <mxGeometry width="180" height="90" as="geometry" />
        </mxCell>
        <mxCell id="tT3CNW5afVvHy7vdmMBc-20" value="&lt;font face=&quot;Times New Roman&quot;&gt;&lt;span style=&quot;font-size: 16px;&quot;&gt;Пабло Эскобар&lt;/span&gt;&lt;/font&gt;" style="rounded=0;whiteSpace=wrap;html=1;movable=1;resizable=1;rotatable=1;deletable=1;editable=1;locked=0;connectable=1;" parent="tT3CNW5afVvHy7vdmMBc-19" vertex="1">
          <mxGeometry width="180" height="90" as="geometry" />
        </mxCell>
        <mxCell id="tT3CNW5afVvHy7vdmMBc-21" value="&lt;font face=&quot;Times New Roman&quot; style=&quot;font-size: 14px;&quot;&gt;5&lt;/font&gt;" style="rounded=0;whiteSpace=wrap;html=1;movable=1;resizable=1;rotatable=1;deletable=1;editable=1;locked=0;connectable=1;" parent="tT3CNW5afVvHy7vdmMBc-19" vertex="1">
          <mxGeometry x="60" width="60.00000000000001" height="30.000000000000004" as="geometry" />
        </mxCell>
        <mxCell id="tT3CNW5afVvHy7vdmMBc-22" value="" style="group" parent="1" vertex="1" connectable="0">
          <mxGeometry x="1380" y="640" width="180" height="90" as="geometry" />
        </mxCell>
        <mxCell id="tT3CNW5afVvHy7vdmMBc-23" value="&lt;font face=&quot;Times New Roman&quot;&gt;&lt;span style=&quot;font-size: 16px;&quot;&gt;Вольдеморт&lt;/span&gt;&lt;/font&gt;" style="rounded=0;whiteSpace=wrap;html=1;movable=1;resizable=1;rotatable=1;deletable=1;editable=1;locked=0;connectable=1;" parent="tT3CNW5afVvHy7vdmMBc-22" vertex="1">
          <mxGeometry width="180" height="90" as="geometry" />
        </mxCell>
        <mxCell id="tT3CNW5afVvHy7vdmMBc-24" value="&lt;font face=&quot;Times New Roman&quot; style=&quot;font-size: 14px;&quot;&gt;6&lt;/font&gt;" style="rounded=0;whiteSpace=wrap;html=1;movable=1;resizable=1;rotatable=1;deletable=1;editable=1;locked=0;connectable=1;" parent="tT3CNW5afVvHy7vdmMBc-22" vertex="1">
          <mxGeometry x="60" width="60.00000000000001" height="30.000000000000004" as="geometry" />
        </mxCell>
        <mxCell id="tT3CNW5afVvHy7vdmMBc-25" value="" style="group" parent="1" vertex="1" connectable="0">
          <mxGeometry x="420" y="660" width="180" height="90" as="geometry" />
        </mxCell>
        <mxCell id="tT3CNW5afVvHy7vdmMBc-26" value="" style="group" parent="tT3CNW5afVvHy7vdmMBc-25" vertex="1" connectable="0">
          <mxGeometry width="180" height="90" as="geometry" />
        </mxCell>
        <mxCell id="tT3CNW5afVvHy7vdmMBc-27" value="" style="group" parent="tT3CNW5afVvHy7vdmMBc-26" vertex="1" connectable="0">
          <mxGeometry width="180" height="90" as="geometry" />
        </mxCell>
        <mxCell id="tT3CNW5afVvHy7vdmMBc-28" value="&lt;font face=&quot;Times New Roman&quot;&gt;&lt;span style=&quot;font-size: 16px;&quot;&gt;Джордан Белфорт&lt;/span&gt;&lt;/font&gt;" style="rounded=0;whiteSpace=wrap;html=1;movable=1;resizable=1;rotatable=1;deletable=1;editable=1;locked=0;connectable=1;" parent="tT3CNW5afVvHy7vdmMBc-27" vertex="1">
          <mxGeometry width="180" height="90" as="geometry" />
        </mxCell>
        <mxCell id="tT3CNW5afVvHy7vdmMBc-29" value="&lt;font face=&quot;Times New Roman&quot; style=&quot;font-size: 14px;&quot;&gt;7&lt;/font&gt;" style="rounded=0;whiteSpace=wrap;html=1;movable=1;resizable=1;rotatable=1;deletable=1;editable=1;locked=0;connectable=1;" parent="tT3CNW5afVvHy7vdmMBc-27" vertex="1">
          <mxGeometry x="60" width="60.00000000000001" height="30.000000000000004" as="geometry" />
        </mxCell>
        <mxCell id="tT3CNW5afVvHy7vdmMBc-30" value="" style="group" parent="1" vertex="1" connectable="0">
          <mxGeometry x="100" y="650" width="180" height="90" as="geometry" />
        </mxCell>
        <mxCell id="tT3CNW5afVvHy7vdmMBc-31" value="&lt;font face=&quot;Times New Roman&quot;&gt;&lt;span style=&quot;font-size: 16px;&quot;&gt;Фрэнк Абигнейл&lt;/span&gt;&lt;/font&gt;" style="rounded=0;whiteSpace=wrap;html=1;movable=1;resizable=1;rotatable=1;deletable=1;editable=1;locked=0;connectable=1;" parent="tT3CNW5afVvHy7vdmMBc-30" vertex="1">
          <mxGeometry width="180" height="90" as="geometry" />
        </mxCell>
        <mxCell id="tT3CNW5afVvHy7vdmMBc-32" value="&lt;font face=&quot;Times New Roman&quot;&gt;&lt;span style=&quot;font-size: 14px;&quot;&gt;8&lt;/span&gt;&lt;/font&gt;" style="rounded=0;whiteSpace=wrap;html=1;movable=1;resizable=1;rotatable=1;deletable=1;editable=1;locked=0;connectable=1;" parent="tT3CNW5afVvHy7vdmMBc-30" vertex="1">
          <mxGeometry x="60" width="60.00000000000001" height="30.000000000000004" as="geometry" />
        </mxCell>
        <mxCell id="tT3CNW5afVvHy7vdmMBc-33" value="" style="group" parent="1" vertex="1" connectable="0">
          <mxGeometry x="980" y="650" width="180" height="90" as="geometry" />
        </mxCell>
        <mxCell id="tT3CNW5afVvHy7vdmMBc-34" value="" style="group" parent="tT3CNW5afVvHy7vdmMBc-33" vertex="1" connectable="0">
          <mxGeometry width="180" height="90" as="geometry" />
        </mxCell>
        <mxCell id="tT3CNW5afVvHy7vdmMBc-35" value="" style="group" parent="tT3CNW5afVvHy7vdmMBc-34" vertex="1" connectable="0">
          <mxGeometry width="180" height="90" as="geometry" />
        </mxCell>
        <mxCell id="tT3CNW5afVvHy7vdmMBc-36" value="&lt;font face=&quot;Times New Roman&quot;&gt;&lt;span style=&quot;font-size: 16px;&quot;&gt;Кевин Митник&lt;/span&gt;&lt;/font&gt;" style="rounded=0;whiteSpace=wrap;html=1;movable=1;resizable=1;rotatable=1;deletable=1;editable=1;locked=0;connectable=1;" parent="tT3CNW5afVvHy7vdmMBc-35" vertex="1">
          <mxGeometry width="180" height="90" as="geometry" />
        </mxCell>
        <mxCell id="tT3CNW5afVvHy7vdmMBc-37" value="&lt;font face=&quot;Times New Roman&quot; style=&quot;font-size: 14px;&quot;&gt;9&lt;/font&gt;" style="rounded=0;whiteSpace=wrap;html=1;movable=1;resizable=1;rotatable=1;deletable=1;editable=1;locked=0;connectable=1;" parent="tT3CNW5afVvHy7vdmMBc-35" vertex="1">
          <mxGeometry x="60" width="60.00000000000001" height="30.000000000000004" as="geometry" />
        </mxCell>
        <mxCell id="tT3CNW5afVvHy7vdmMBc-38" value="" style="group" parent="1" vertex="1" connectable="0">
          <mxGeometry x="660" y="660" width="180" height="90" as="geometry" />
        </mxCell>
        <mxCell id="tT3CNW5afVvHy7vdmMBc-39" value="&lt;font face=&quot;Times New Roman&quot; style=&quot;font-size: 16px;&quot;&gt;Елена Блиновская&lt;/font&gt;" style="rounded=0;whiteSpace=wrap;html=1;movable=1;resizable=1;rotatable=1;deletable=1;editable=1;locked=0;connectable=1;" parent="tT3CNW5afVvHy7vdmMBc-38" vertex="1">
          <mxGeometry width="180" height="90" as="geometry" />
        </mxCell>
        <mxCell id="tT3CNW5afVvHy7vdmMBc-40" value="&lt;font face=&quot;Times New Roman&quot; style=&quot;font-size: 14px;&quot;&gt;10&lt;/font&gt;" style="rounded=0;whiteSpace=wrap;html=1;movable=1;resizable=1;rotatable=1;deletable=1;editable=1;locked=0;connectable=1;" parent="tT3CNW5afVvHy7vdmMBc-38" vertex="1">
          <mxGeometry x="60" width="60.00000000000001" height="30.000000000000004" as="geometry" />
        </mxCell>
        <mxCell id="zUVFkpdxyR4G5cu8hCsa-25" value="" style="group" parent="1" vertex="1" connectable="0">
          <mxGeometry x="40" y="460" width="170" height="100" as="geometry" />
        </mxCell>
        <mxCell id="zUVFkpdxyR4G5cu8hCsa-26" value="&lt;font face=&quot;Times New Roman&quot; style=&quot;font-size: 16px;&quot;&gt;Отпечаток пальца&lt;/font&gt;" style="shape=hexagon;perimeter=hexagonPerimeter2;whiteSpace=wrap;html=1;fixedSize=1;" parent="zUVFkpdxyR4G5cu8hCsa-25" vertex="1">
          <mxGeometry width="170" height="100" as="geometry" />
        </mxCell>
        <mxCell id="zUVFkpdxyR4G5cu8hCsa-27" value="&lt;font face=&quot;Times New Roman&quot; style=&quot;font-size: 14px;&quot;&gt;1&lt;/font&gt;" style="shape=hexagon;perimeter=hexagonPerimeter2;whiteSpace=wrap;html=1;fixedSize=1;" parent="zUVFkpdxyR4G5cu8hCsa-25" vertex="1">
          <mxGeometry x="54.09" width="61.82" height="30" as="geometry" />
        </mxCell>
        <mxCell id="zUVFkpdxyR4G5cu8hCsa-28" value="" style="group" parent="1" vertex="1" connectable="0">
          <mxGeometry x="250" y="460" width="170" height="100" as="geometry" />
        </mxCell>
        <mxCell id="zUVFkpdxyR4G5cu8hCsa-29" value="&lt;font face=&quot;Times New Roman&quot; style=&quot;font-size: 16px;&quot;&gt;Чеки и документы&lt;/font&gt;" style="shape=hexagon;perimeter=hexagonPerimeter2;whiteSpace=wrap;html=1;fixedSize=1;" parent="zUVFkpdxyR4G5cu8hCsa-28" vertex="1">
          <mxGeometry width="170" height="100" as="geometry" />
        </mxCell>
        <mxCell id="zUVFkpdxyR4G5cu8hCsa-30" value="&lt;font face=&quot;Times New Roman&quot; style=&quot;font-size: 14px;&quot;&gt;2&lt;/font&gt;" style="shape=hexagon;perimeter=hexagonPerimeter2;whiteSpace=wrap;html=1;fixedSize=1;" parent="zUVFkpdxyR4G5cu8hCsa-28" vertex="1">
          <mxGeometry x="54.09" width="61.82" height="30" as="geometry" />
        </mxCell>
        <mxCell id="zUVFkpdxyR4G5cu8hCsa-31" value="" style="group;" parent="1" vertex="1" connectable="0">
          <mxGeometry x="1420" y="460" width="170" height="100" as="geometry" />
        </mxCell>
        <mxCell id="zUVFkpdxyR4G5cu8hCsa-32" value="&lt;font face=&quot;Times New Roman&quot; style=&quot;font-size: 16px;&quot;&gt;Свидетели&lt;/font&gt;" style="shape=hexagon;perimeter=hexagonPerimeter2;whiteSpace=wrap;html=1;fixedSize=1;" parent="zUVFkpdxyR4G5cu8hCsa-31" vertex="1">
          <mxGeometry width="170" height="100" as="geometry" />
        </mxCell>
        <mxCell id="zUVFkpdxyR4G5cu8hCsa-33" value="&lt;font face=&quot;Times New Roman&quot; style=&quot;font-size: 14px;&quot;&gt;3&lt;/font&gt;" style="shape=hexagon;perimeter=hexagonPerimeter2;whiteSpace=wrap;html=1;fixedSize=1;" parent="zUVFkpdxyR4G5cu8hCsa-31" vertex="1">
          <mxGeometry x="54.09" width="61.82" height="30" as="geometry" />
        </mxCell>
        <mxCell id="zUVFkpdxyR4G5cu8hCsa-34" value="" style="group" parent="1" vertex="1" connectable="0">
          <mxGeometry x="640" y="460" width="170" height="100" as="geometry" />
        </mxCell>
        <mxCell id="zUVFkpdxyR4G5cu8hCsa-35" value="&lt;font face=&quot;Times New Roman&quot; style=&quot;font-size: 16px;&quot;&gt;Показания&lt;/font&gt;&lt;div&gt;&lt;font face=&quot;Times New Roman&quot; style=&quot;font-size: 16px;&quot;&gt;потерпевших&lt;/font&gt;&lt;/div&gt;" style="shape=hexagon;perimeter=hexagonPerimeter2;whiteSpace=wrap;html=1;fixedSize=1;" parent="zUVFkpdxyR4G5cu8hCsa-34" vertex="1">
          <mxGeometry width="170" height="100" as="geometry" />
        </mxCell>
        <mxCell id="zUVFkpdxyR4G5cu8hCsa-36" value="&lt;font face=&quot;Times New Roman&quot; style=&quot;font-size: 14px;&quot;&gt;4&lt;/font&gt;" style="shape=hexagon;perimeter=hexagonPerimeter2;whiteSpace=wrap;html=1;fixedSize=1;" parent="zUVFkpdxyR4G5cu8hCsa-34" vertex="1">
          <mxGeometry x="54.09" width="61.82" height="30" as="geometry" />
        </mxCell>
        <mxCell id="zUVFkpdxyR4G5cu8hCsa-37" value="" style="group" parent="1" vertex="1" connectable="0">
          <mxGeometry x="840" y="460" width="170" height="100" as="geometry" />
        </mxCell>
        <mxCell id="zUVFkpdxyR4G5cu8hCsa-38" value="&lt;font face=&quot;Times New Roman&quot; style=&quot;font-size: 16px;&quot;&gt;Образец ДНК&lt;/font&gt;" style="shape=hexagon;perimeter=hexagonPerimeter2;whiteSpace=wrap;html=1;fixedSize=1;" parent="zUVFkpdxyR4G5cu8hCsa-37" vertex="1">
          <mxGeometry width="170" height="100" as="geometry" />
        </mxCell>
        <mxCell id="zUVFkpdxyR4G5cu8hCsa-39" value="&lt;font face=&quot;Times New Roman&quot; style=&quot;font-size: 14px;&quot;&gt;5&lt;/font&gt;" style="shape=hexagon;perimeter=hexagonPerimeter2;whiteSpace=wrap;html=1;fixedSize=1;" parent="zUVFkpdxyR4G5cu8hCsa-37" vertex="1">
          <mxGeometry x="54.09" width="61.82" height="30" as="geometry" />
        </mxCell>
        <mxCell id="zUVFkpdxyR4G5cu8hCsa-40" value="" style="group" parent="1" vertex="1" connectable="0">
          <mxGeometry x="1030" y="460" width="170" height="100" as="geometry" />
        </mxCell>
        <mxCell id="zUVFkpdxyR4G5cu8hCsa-41" value="&lt;font face=&quot;Times New Roman&quot; style=&quot;font-size: 16px;&quot;&gt;Следы выстрелов&lt;/font&gt;" style="shape=hexagon;perimeter=hexagonPerimeter2;whiteSpace=wrap;html=1;fixedSize=1;" parent="zUVFkpdxyR4G5cu8hCsa-40" vertex="1">
          <mxGeometry width="170" height="100" as="geometry" />
        </mxCell>
        <mxCell id="zUVFkpdxyR4G5cu8hCsa-42" value="&lt;font face=&quot;Times New Roman&quot; style=&quot;font-size: 14px;&quot;&gt;6&lt;/font&gt;" style="shape=hexagon;perimeter=hexagonPerimeter2;whiteSpace=wrap;html=1;fixedSize=1;" parent="zUVFkpdxyR4G5cu8hCsa-40" vertex="1">
          <mxGeometry x="54.09" width="61.82" height="30" as="geometry" />
        </mxCell>
        <mxCell id="zUVFkpdxyR4G5cu8hCsa-43" value="" style="group" parent="1" vertex="1" connectable="0">
          <mxGeometry x="1220" y="460" width="170" height="100" as="geometry" />
        </mxCell>
        <mxCell id="zUVFkpdxyR4G5cu8hCsa-44" value="&lt;font face=&quot;Times New Roman&quot; style=&quot;font-size: 16px;&quot;&gt;Неосторожность в&lt;/font&gt;&lt;div&gt;&lt;font face=&quot;Times New Roman&quot; style=&quot;font-size: 16px;&quot;&gt;сети&lt;/font&gt;&lt;/div&gt;" style="shape=hexagon;perimeter=hexagonPerimeter2;whiteSpace=wrap;html=1;fixedSize=1;" parent="zUVFkpdxyR4G5cu8hCsa-43" vertex="1">
          <mxGeometry width="170" height="100" as="geometry" />
        </mxCell>
        <mxCell id="zUVFkpdxyR4G5cu8hCsa-45" value="&lt;font face=&quot;Times New Roman&quot; style=&quot;font-size: 14px;&quot;&gt;7&lt;/font&gt;" style="shape=hexagon;perimeter=hexagonPerimeter2;whiteSpace=wrap;html=1;fixedSize=1;" parent="zUVFkpdxyR4G5cu8hCsa-43" vertex="1">
          <mxGeometry x="54.09" width="61.82" height="30" as="geometry" />
        </mxCell>
        <mxCell id="zUVFkpdxyR4G5cu8hCsa-46" value="" style="group;" parent="1" vertex="1" connectable="0">
          <mxGeometry x="440" y="460" width="190" height="100" as="geometry" />
        </mxCell>
        <mxCell id="zUVFkpdxyR4G5cu8hCsa-47" value="&lt;font face=&quot;Times New Roman&quot; style=&quot;font-size: 16px;&quot;&gt;Жалобы в комиссию по&lt;/font&gt;&lt;div&gt;&lt;font face=&quot;Times New Roman&quot; style=&quot;font-size: 16px;&quot;&gt;ценным бумагам&lt;/font&gt;&lt;/div&gt;" style="shape=hexagon;perimeter=hexagonPerimeter2;whiteSpace=wrap;html=1;fixedSize=1;" parent="zUVFkpdxyR4G5cu8hCsa-46" vertex="1">
          <mxGeometry width="190" height="100" as="geometry" />
        </mxCell>
        <mxCell id="zUVFkpdxyR4G5cu8hCsa-48" value="&lt;font face=&quot;Times New Roman&quot; style=&quot;font-size: 14px;&quot;&gt;8&lt;/font&gt;" style="shape=hexagon;perimeter=hexagonPerimeter2;whiteSpace=wrap;html=1;fixedSize=1;" parent="zUVFkpdxyR4G5cu8hCsa-46" vertex="1">
          <mxGeometry x="60.45352941176471" width="69.09294117647059" height="30" as="geometry" />
        </mxCell>
        <mxCell id="zUVFkpdxyR4G5cu8hCsa-50" style="edgeStyle=orthogonalEdgeStyle;rounded=0;orthogonalLoop=1;jettySize=auto;html=1;entryX=0.5;entryY=0;entryDx=0;entryDy=0;" parent="1" source="tT3CNW5afVvHy7vdmMBc-7" target="zUVFkpdxyR4G5cu8hCsa-27" edge="1">
          <mxGeometry relative="1" as="geometry">
            <Array as="points">
              <mxPoint x="520" y="400" />
              <mxPoint x="125" y="400" />
            </Array>
          </mxGeometry>
        </mxCell>
        <mxCell id="zUVFkpdxyR4G5cu8hCsa-52" style="edgeStyle=orthogonalEdgeStyle;rounded=0;orthogonalLoop=1;jettySize=auto;html=1;entryX=0.66;entryY=0.994;entryDx=0;entryDy=0;entryPerimeter=0;" parent="1" source="tT3CNW5afVvHy7vdmMBc-28" target="zUVFkpdxyR4G5cu8hCsa-29" edge="1">
          <mxGeometry relative="1" as="geometry" />
        </mxCell>
        <mxCell id="zUVFkpdxyR4G5cu8hCsa-53" style="edgeStyle=orthogonalEdgeStyle;rounded=0;orthogonalLoop=1;jettySize=auto;html=1;entryX=0.5;entryY=1;entryDx=0;entryDy=0;" parent="1" source="tT3CNW5afVvHy7vdmMBc-31" target="zUVFkpdxyR4G5cu8hCsa-47" edge="1">
          <mxGeometry relative="1" as="geometry">
            <Array as="points">
              <mxPoint x="180" y="630" />
              <mxPoint x="535" y="630" />
            </Array>
          </mxGeometry>
        </mxCell>
        <mxCell id="zUVFkpdxyR4G5cu8hCsa-54" style="edgeStyle=orthogonalEdgeStyle;rounded=0;orthogonalLoop=1;jettySize=auto;html=1;exitX=0.5;exitY=0;exitDx=0;exitDy=0;entryX=0.5;entryY=1;entryDx=0;entryDy=0;" parent="1" source="tT3CNW5afVvHy7vdmMBc-32" target="zUVFkpdxyR4G5cu8hCsa-29" edge="1">
          <mxGeometry relative="1" as="geometry">
            <Array as="points">
              <mxPoint x="180" y="630" />
              <mxPoint x="335" y="630" />
            </Array>
          </mxGeometry>
        </mxCell>
        <mxCell id="zUVFkpdxyR4G5cu8hCsa-56" style="edgeStyle=orthogonalEdgeStyle;rounded=0;orthogonalLoop=1;jettySize=auto;html=1;entryX=0.625;entryY=1;entryDx=0;entryDy=0;" parent="1" source="tT3CNW5afVvHy7vdmMBc-39" target="zUVFkpdxyR4G5cu8hCsa-35" edge="1">
          <mxGeometry relative="1" as="geometry" />
        </mxCell>
        <mxCell id="zUVFkpdxyR4G5cu8hCsa-57" style="edgeStyle=orthogonalEdgeStyle;rounded=0;orthogonalLoop=1;jettySize=auto;html=1;entryX=0.569;entryY=0.983;entryDx=0;entryDy=0;entryPerimeter=0;" parent="1" source="tT3CNW5afVvHy7vdmMBc-36" target="zUVFkpdxyR4G5cu8hCsa-44" edge="1">
          <mxGeometry relative="1" as="geometry" />
        </mxCell>
        <mxCell id="zUVFkpdxyR4G5cu8hCsa-58" style="edgeStyle=orthogonalEdgeStyle;rounded=0;orthogonalLoop=1;jettySize=auto;html=1;entryX=1;entryY=0.25;entryDx=0;entryDy=0;" parent="1" source="tT3CNW5afVvHy7vdmMBc-4" target="zUVFkpdxyR4G5cu8hCsa-26" edge="1">
          <mxGeometry relative="1" as="geometry">
            <Array as="points">
              <mxPoint x="220" y="488" />
            </Array>
          </mxGeometry>
        </mxCell>
        <mxCell id="zUVFkpdxyR4G5cu8hCsa-60" style="edgeStyle=orthogonalEdgeStyle;rounded=0;orthogonalLoop=1;jettySize=auto;html=1;entryX=0.325;entryY=0.008;entryDx=0;entryDy=0;entryPerimeter=0;" parent="1" source="tT3CNW5afVvHy7vdmMBc-15" target="zUVFkpdxyR4G5cu8hCsa-35" edge="1">
          <mxGeometry relative="1" as="geometry">
            <Array as="points">
              <mxPoint x="750" y="420" />
              <mxPoint x="695" y="420" />
            </Array>
          </mxGeometry>
        </mxCell>
        <mxCell id="zUVFkpdxyR4G5cu8hCsa-62" style="edgeStyle=orthogonalEdgeStyle;rounded=0;orthogonalLoop=1;jettySize=auto;html=1;entryX=0.287;entryY=0.018;entryDx=0;entryDy=0;entryPerimeter=0;" parent="1" source="tT3CNW5afVvHy7vdmMBc-12" target="zUVFkpdxyR4G5cu8hCsa-41" edge="1">
          <mxGeometry relative="1" as="geometry">
            <Array as="points">
              <mxPoint x="1060" y="420" />
              <mxPoint x="1079" y="420" />
            </Array>
          </mxGeometry>
        </mxCell>
        <mxCell id="zUVFkpdxyR4G5cu8hCsa-63" style="edgeStyle=orthogonalEdgeStyle;rounded=0;orthogonalLoop=1;jettySize=auto;html=1;entryX=0.375;entryY=0;entryDx=0;entryDy=0;" parent="1" source="tT3CNW5afVvHy7vdmMBc-12" target="zUVFkpdxyR4G5cu8hCsa-32" edge="1">
          <mxGeometry relative="1" as="geometry">
            <Array as="points">
              <mxPoint x="1060" y="420" />
              <mxPoint x="1484" y="420" />
            </Array>
          </mxGeometry>
        </mxCell>
        <mxCell id="zUVFkpdxyR4G5cu8hCsa-64" style="edgeStyle=orthogonalEdgeStyle;rounded=0;orthogonalLoop=1;jettySize=auto;html=1;entryX=0.246;entryY=-0.011;entryDx=0;entryDy=0;entryPerimeter=0;" parent="1" source="tT3CNW5afVvHy7vdmMBc-20" target="zUVFkpdxyR4G5cu8hCsa-32" edge="1">
          <mxGeometry relative="1" as="geometry">
            <Array as="points">
              <mxPoint x="1450" y="459" />
            </Array>
          </mxGeometry>
        </mxCell>
        <mxCell id="zUVFkpdxyR4G5cu8hCsa-66" style="edgeStyle=orthogonalEdgeStyle;rounded=0;orthogonalLoop=1;jettySize=auto;html=1;entryX=0.282;entryY=0.964;entryDx=0;entryDy=0;entryPerimeter=0;" parent="1" source="tT3CNW5afVvHy7vdmMBc-23" target="zUVFkpdxyR4G5cu8hCsa-32" edge="1">
          <mxGeometry relative="1" as="geometry" />
        </mxCell>
        <mxCell id="zUVFkpdxyR4G5cu8hCsa-67" style="edgeStyle=orthogonalEdgeStyle;rounded=0;orthogonalLoop=1;jettySize=auto;html=1;exitX=0.75;exitY=1;exitDx=0;exitDy=0;entryX=0.287;entryY=0.003;entryDx=0;entryDy=0;entryPerimeter=0;" parent="1" source="tT3CNW5afVvHy7vdmMBc-7" target="zUVFkpdxyR4G5cu8hCsa-38" edge="1">
          <mxGeometry relative="1" as="geometry" />
        </mxCell>
        <mxCell id="zUVFkpdxyR4G5cu8hCsa-68" style="edgeStyle=orthogonalEdgeStyle;rounded=0;orthogonalLoop=1;jettySize=auto;html=1;entryX=0.268;entryY=1.002;entryDx=0;entryDy=0;entryPerimeter=0;" parent="1" source="tT3CNW5afVvHy7vdmMBc-36" target="zUVFkpdxyR4G5cu8hCsa-38" edge="1">
          <mxGeometry relative="1" as="geometry" />
        </mxCell>
        <mxCell id="1JGGUzSgTTRiPT79vw18-2" style="edgeStyle=orthogonalEdgeStyle;rounded=0;orthogonalLoop=1;jettySize=auto;html=1;entryX=0;entryY=0.25;entryDx=0;entryDy=0;" edge="1" parent="1" source="tT3CNW5afVvHy7vdmMBc-7" target="zUVFkpdxyR4G5cu8hCsa-35">
          <mxGeometry relative="1" as="geometry">
            <Array as="points">
              <mxPoint x="649" y="305" />
            </Array>
          </mxGeometry>
        </mxCell>
        <mxCell id="1JGGUzSgTTRiPT79vw18-3" style="edgeStyle=orthogonalEdgeStyle;rounded=0;orthogonalLoop=1;jettySize=auto;html=1;entryX=0.625;entryY=0;entryDx=0;entryDy=0;" edge="1" parent="1" source="tT3CNW5afVvHy7vdmMBc-20" target="zUVFkpdxyR4G5cu8hCsa-38">
          <mxGeometry relative="1" as="geometry">
            <Array as="points">
              <mxPoint x="1380" y="220" />
              <mxPoint x="946" y="220" />
            </Array>
          </mxGeometry>
        </mxCell>
        <mxCell id="1JGGUzSgTTRiPT79vw18-4" style="edgeStyle=orthogonalEdgeStyle;rounded=0;orthogonalLoop=1;jettySize=auto;html=1;entryX=0.375;entryY=1;entryDx=0;entryDy=0;" edge="1" parent="1" source="tT3CNW5afVvHy7vdmMBc-39" target="zUVFkpdxyR4G5cu8hCsa-44">
          <mxGeometry relative="1" as="geometry">
            <Array as="points">
              <mxPoint x="750" y="800" />
              <mxPoint x="1284" y="800" />
            </Array>
          </mxGeometry>
        </mxCell>
        <mxCell id="1JGGUzSgTTRiPT79vw18-5" style="edgeStyle=orthogonalEdgeStyle;rounded=0;orthogonalLoop=1;jettySize=auto;html=1;entryX=0.625;entryY=0;entryDx=0;entryDy=0;" edge="1" parent="1" source="tT3CNW5afVvHy7vdmMBc-4" target="zUVFkpdxyR4G5cu8hCsa-32">
          <mxGeometry relative="1" as="geometry">
            <Array as="points">
              <mxPoint x="220" y="170" />
              <mxPoint x="1526" y="170" />
            </Array>
          </mxGeometry>
        </mxCell>
      </root>
    </mxGraphModel>
  </diagram>
  <diagram id="LCz4h13pol_N-eQIqfKN" name="Совершает преступление">
    <mxGraphModel dx="2084" dy="1140" grid="1" gridSize="10" guides="1" tooltips="1" connect="1" arrows="1" fold="1" page="1" pageScale="1" pageWidth="850" pageHeight="1100" math="0" shadow="0">
      <root>
        <mxCell id="0" />
        <mxCell id="1" parent="0" />
        <mxCell id="6xLyDwRKGcgcF2vIMWMP-1" value="" style="group" parent="1" vertex="1" connectable="0">
          <mxGeometry x="100" y="580" width="180" height="90" as="geometry" />
        </mxCell>
        <mxCell id="6xLyDwRKGcgcF2vIMWMP-2" value="" style="group" parent="6xLyDwRKGcgcF2vIMWMP-1" vertex="1" connectable="0">
          <mxGeometry width="180" height="90" as="geometry" />
        </mxCell>
        <mxCell id="6xLyDwRKGcgcF2vIMWMP-3" value="" style="group" parent="6xLyDwRKGcgcF2vIMWMP-2" vertex="1" connectable="0">
          <mxGeometry width="180" height="90" as="geometry" />
        </mxCell>
        <mxCell id="6xLyDwRKGcgcF2vIMWMP-4" value="&lt;font face=&quot;Times New Roman&quot; style=&quot;font-size: 16px;&quot;&gt;Виктор Люстиг&lt;/font&gt;" style="rounded=0;whiteSpace=wrap;html=1;movable=1;resizable=1;rotatable=1;deletable=1;editable=1;locked=0;connectable=1;" parent="6xLyDwRKGcgcF2vIMWMP-3" vertex="1">
          <mxGeometry width="180" height="90" as="geometry" />
        </mxCell>
        <mxCell id="6xLyDwRKGcgcF2vIMWMP-5" value="&lt;font face=&quot;Times New Roman&quot; style=&quot;font-size: 14px;&quot;&gt;1&lt;/font&gt;" style="rounded=0;whiteSpace=wrap;html=1;movable=1;resizable=1;rotatable=1;deletable=1;editable=1;locked=0;connectable=1;" parent="6xLyDwRKGcgcF2vIMWMP-3" vertex="1">
          <mxGeometry x="60" width="60.00000000000001" height="30.000000000000004" as="geometry" />
        </mxCell>
        <mxCell id="6xLyDwRKGcgcF2vIMWMP-6" value="" style="group" parent="1" vertex="1" connectable="0">
          <mxGeometry x="700" y="830" width="180" height="90" as="geometry" />
        </mxCell>
        <mxCell id="6xLyDwRKGcgcF2vIMWMP-7" value="&lt;font face=&quot;Times New Roman&quot; style=&quot;font-size: 16px;&quot;&gt;Мориарти&lt;/font&gt;" style="rounded=0;whiteSpace=wrap;html=1;movable=1;resizable=1;rotatable=1;deletable=1;editable=1;locked=0;connectable=1;" parent="6xLyDwRKGcgcF2vIMWMP-6" vertex="1">
          <mxGeometry width="180" height="90" as="geometry" />
        </mxCell>
        <mxCell id="6xLyDwRKGcgcF2vIMWMP-8" value="&lt;font face=&quot;Times New Roman&quot; style=&quot;font-size: 14px;&quot;&gt;2&lt;/font&gt;" style="rounded=0;whiteSpace=wrap;html=1;movable=1;resizable=1;rotatable=1;deletable=1;editable=1;locked=0;connectable=1;" parent="6xLyDwRKGcgcF2vIMWMP-6" vertex="1">
          <mxGeometry x="60" width="60.00000000000001" height="30.000000000000004" as="geometry" />
        </mxCell>
        <mxCell id="6xLyDwRKGcgcF2vIMWMP-9" value="" style="group" parent="1" vertex="1" connectable="0">
          <mxGeometry x="460" y="600" width="180" height="90" as="geometry" />
        </mxCell>
        <mxCell id="6xLyDwRKGcgcF2vIMWMP-10" value="" style="group" parent="6xLyDwRKGcgcF2vIMWMP-9" vertex="1" connectable="0">
          <mxGeometry width="180" height="90" as="geometry" />
        </mxCell>
        <mxCell id="6xLyDwRKGcgcF2vIMWMP-11" value="" style="group" parent="6xLyDwRKGcgcF2vIMWMP-10" vertex="1" connectable="0">
          <mxGeometry width="180" height="90" as="geometry" />
        </mxCell>
        <mxCell id="6xLyDwRKGcgcF2vIMWMP-12" value="&lt;font face=&quot;Times New Roman&quot;&gt;&lt;span style=&quot;font-size: 16px;&quot;&gt;Аль Капоне&lt;/span&gt;&lt;/font&gt;" style="rounded=0;whiteSpace=wrap;html=1;movable=1;resizable=1;rotatable=1;deletable=1;editable=1;locked=0;connectable=1;" parent="6xLyDwRKGcgcF2vIMWMP-11" vertex="1">
          <mxGeometry width="180" height="90" as="geometry" />
        </mxCell>
        <mxCell id="6xLyDwRKGcgcF2vIMWMP-13" value="&lt;font face=&quot;Times New Roman&quot; style=&quot;font-size: 14px;&quot;&gt;3&lt;/font&gt;" style="rounded=0;whiteSpace=wrap;html=1;movable=1;resizable=1;rotatable=1;deletable=1;editable=1;locked=0;connectable=1;" parent="6xLyDwRKGcgcF2vIMWMP-11" vertex="1">
          <mxGeometry x="60" width="60.00000000000001" height="30.000000000000004" as="geometry" />
        </mxCell>
        <mxCell id="6xLyDwRKGcgcF2vIMWMP-14" value="" style="group" parent="1" vertex="1" connectable="0">
          <mxGeometry x="1120" y="240" width="180" height="90" as="geometry" />
        </mxCell>
        <mxCell id="6xLyDwRKGcgcF2vIMWMP-15" value="&lt;font face=&quot;Times New Roman&quot; style=&quot;&quot;&gt;&lt;span style=&quot;font-size: 16px;&quot;&gt;Сергей Мавроди&lt;/span&gt;&lt;/font&gt;" style="rounded=0;whiteSpace=wrap;html=1;movable=1;resizable=1;rotatable=1;deletable=1;editable=1;locked=0;connectable=1;" parent="6xLyDwRKGcgcF2vIMWMP-14" vertex="1">
          <mxGeometry width="180" height="90" as="geometry" />
        </mxCell>
        <mxCell id="6xLyDwRKGcgcF2vIMWMP-16" value="&lt;font face=&quot;Times New Roman&quot; style=&quot;font-size: 14px;&quot;&gt;4&lt;/font&gt;" style="rounded=0;whiteSpace=wrap;html=1;movable=1;resizable=1;rotatable=1;deletable=1;editable=1;locked=0;connectable=1;" parent="6xLyDwRKGcgcF2vIMWMP-14" vertex="1">
          <mxGeometry x="60" width="60.00000000000001" height="30.000000000000004" as="geometry" />
        </mxCell>
        <mxCell id="6xLyDwRKGcgcF2vIMWMP-17" value="" style="group" parent="1" vertex="1" connectable="0">
          <mxGeometry x="510" y="260" width="180" height="90" as="geometry" />
        </mxCell>
        <mxCell id="6xLyDwRKGcgcF2vIMWMP-18" value="" style="group" parent="6xLyDwRKGcgcF2vIMWMP-17" vertex="1" connectable="0">
          <mxGeometry width="180" height="90" as="geometry" />
        </mxCell>
        <mxCell id="6xLyDwRKGcgcF2vIMWMP-19" value="" style="group" parent="6xLyDwRKGcgcF2vIMWMP-18" vertex="1" connectable="0">
          <mxGeometry width="180" height="90" as="geometry" />
        </mxCell>
        <mxCell id="6xLyDwRKGcgcF2vIMWMP-20" value="&lt;font face=&quot;Times New Roman&quot;&gt;&lt;span style=&quot;font-size: 16px;&quot;&gt;Пабло Эскобар&lt;/span&gt;&lt;/font&gt;" style="rounded=0;whiteSpace=wrap;html=1;movable=1;resizable=1;rotatable=1;deletable=1;editable=1;locked=0;connectable=1;" parent="6xLyDwRKGcgcF2vIMWMP-19" vertex="1">
          <mxGeometry width="180" height="90" as="geometry" />
        </mxCell>
        <mxCell id="6xLyDwRKGcgcF2vIMWMP-21" value="&lt;font face=&quot;Times New Roman&quot; style=&quot;font-size: 14px;&quot;&gt;5&lt;/font&gt;" style="rounded=0;whiteSpace=wrap;html=1;movable=1;resizable=1;rotatable=1;deletable=1;editable=1;locked=0;connectable=1;" parent="6xLyDwRKGcgcF2vIMWMP-19" vertex="1">
          <mxGeometry x="60" width="60.00000000000001" height="30.000000000000004" as="geometry" />
        </mxCell>
        <mxCell id="6xLyDwRKGcgcF2vIMWMP-22" value="" style="group" parent="1" vertex="1" connectable="0">
          <mxGeometry x="800" y="240" width="180" height="90" as="geometry" />
        </mxCell>
        <mxCell id="6xLyDwRKGcgcF2vIMWMP-23" value="&lt;font face=&quot;Times New Roman&quot;&gt;&lt;span style=&quot;font-size: 16px;&quot;&gt;Вольдеморт&lt;/span&gt;&lt;/font&gt;" style="rounded=0;whiteSpace=wrap;html=1;movable=1;resizable=1;rotatable=1;deletable=1;editable=1;locked=0;connectable=1;" parent="6xLyDwRKGcgcF2vIMWMP-22" vertex="1">
          <mxGeometry width="180" height="90" as="geometry" />
        </mxCell>
        <mxCell id="6xLyDwRKGcgcF2vIMWMP-24" value="&lt;font face=&quot;Times New Roman&quot; style=&quot;font-size: 14px;&quot;&gt;6&lt;/font&gt;" style="rounded=0;whiteSpace=wrap;html=1;movable=1;resizable=1;rotatable=1;deletable=1;editable=1;locked=0;connectable=1;" parent="6xLyDwRKGcgcF2vIMWMP-22" vertex="1">
          <mxGeometry x="60" width="60.00000000000001" height="30.000000000000004" as="geometry" />
        </mxCell>
        <mxCell id="6xLyDwRKGcgcF2vIMWMP-25" value="" style="group" parent="1" vertex="1" connectable="0">
          <mxGeometry x="1350" y="260" width="180" height="90" as="geometry" />
        </mxCell>
        <mxCell id="6xLyDwRKGcgcF2vIMWMP-26" value="" style="group" parent="6xLyDwRKGcgcF2vIMWMP-25" vertex="1" connectable="0">
          <mxGeometry width="180" height="90" as="geometry" />
        </mxCell>
        <mxCell id="6xLyDwRKGcgcF2vIMWMP-27" value="" style="group" parent="6xLyDwRKGcgcF2vIMWMP-26" vertex="1" connectable="0">
          <mxGeometry width="180" height="90" as="geometry" />
        </mxCell>
        <mxCell id="6xLyDwRKGcgcF2vIMWMP-28" value="&lt;font face=&quot;Times New Roman&quot;&gt;&lt;span style=&quot;font-size: 16px;&quot;&gt;Джордан Белфорт&lt;/span&gt;&lt;/font&gt;" style="rounded=0;whiteSpace=wrap;html=1;movable=1;resizable=1;rotatable=1;deletable=1;editable=1;locked=0;connectable=1;" parent="6xLyDwRKGcgcF2vIMWMP-27" vertex="1">
          <mxGeometry width="180" height="90" as="geometry" />
        </mxCell>
        <mxCell id="6xLyDwRKGcgcF2vIMWMP-29" value="&lt;font face=&quot;Times New Roman&quot; style=&quot;font-size: 14px;&quot;&gt;7&lt;/font&gt;" style="rounded=0;whiteSpace=wrap;html=1;movable=1;resizable=1;rotatable=1;deletable=1;editable=1;locked=0;connectable=1;" parent="6xLyDwRKGcgcF2vIMWMP-27" vertex="1">
          <mxGeometry x="60" width="60.00000000000001" height="30.000000000000004" as="geometry" />
        </mxCell>
        <mxCell id="6xLyDwRKGcgcF2vIMWMP-30" value="" style="group" parent="1" vertex="1" connectable="0">
          <mxGeometry x="245" y="260" width="180" height="90" as="geometry" />
        </mxCell>
        <mxCell id="6xLyDwRKGcgcF2vIMWMP-31" value="&lt;font face=&quot;Times New Roman&quot;&gt;&lt;span style=&quot;font-size: 16px;&quot;&gt;Фрэнк Абигнейл&lt;/span&gt;&lt;/font&gt;" style="rounded=0;whiteSpace=wrap;html=1;movable=1;resizable=1;rotatable=1;deletable=1;editable=1;locked=0;connectable=1;" parent="6xLyDwRKGcgcF2vIMWMP-30" vertex="1">
          <mxGeometry width="180" height="90" as="geometry" />
        </mxCell>
        <mxCell id="6xLyDwRKGcgcF2vIMWMP-32" value="&lt;font face=&quot;Times New Roman&quot;&gt;&lt;span style=&quot;font-size: 14px;&quot;&gt;8&lt;/span&gt;&lt;/font&gt;" style="rounded=0;whiteSpace=wrap;html=1;movable=1;resizable=1;rotatable=1;deletable=1;editable=1;locked=0;connectable=1;" parent="6xLyDwRKGcgcF2vIMWMP-30" vertex="1">
          <mxGeometry x="60" width="60.00000000000001" height="30.000000000000004" as="geometry" />
        </mxCell>
        <mxCell id="6xLyDwRKGcgcF2vIMWMP-33" value="" style="group" parent="1" vertex="1" connectable="0">
          <mxGeometry x="1010" y="600" width="180" height="90" as="geometry" />
        </mxCell>
        <mxCell id="6xLyDwRKGcgcF2vIMWMP-34" value="" style="group" parent="6xLyDwRKGcgcF2vIMWMP-33" vertex="1" connectable="0">
          <mxGeometry width="180" height="90" as="geometry" />
        </mxCell>
        <mxCell id="6xLyDwRKGcgcF2vIMWMP-35" value="" style="group" parent="6xLyDwRKGcgcF2vIMWMP-34" vertex="1" connectable="0">
          <mxGeometry width="180" height="90" as="geometry" />
        </mxCell>
        <mxCell id="6xLyDwRKGcgcF2vIMWMP-36" value="&lt;font face=&quot;Times New Roman&quot;&gt;&lt;span style=&quot;font-size: 16px;&quot;&gt;Кевин Митник&lt;/span&gt;&lt;/font&gt;" style="rounded=0;whiteSpace=wrap;html=1;movable=1;resizable=1;rotatable=1;deletable=1;editable=1;locked=0;connectable=1;" parent="6xLyDwRKGcgcF2vIMWMP-35" vertex="1">
          <mxGeometry width="180" height="90" as="geometry" />
        </mxCell>
        <mxCell id="6xLyDwRKGcgcF2vIMWMP-37" value="&lt;font face=&quot;Times New Roman&quot; style=&quot;font-size: 14px;&quot;&gt;9&lt;/font&gt;" style="rounded=0;whiteSpace=wrap;html=1;movable=1;resizable=1;rotatable=1;deletable=1;editable=1;locked=0;connectable=1;" parent="6xLyDwRKGcgcF2vIMWMP-35" vertex="1">
          <mxGeometry x="60" width="60.00000000000001" height="30.000000000000004" as="geometry" />
        </mxCell>
        <mxCell id="6xLyDwRKGcgcF2vIMWMP-38" value="" style="group" parent="1" vertex="1" connectable="0">
          <mxGeometry x="1500" y="600" width="180" height="90" as="geometry" />
        </mxCell>
        <mxCell id="6xLyDwRKGcgcF2vIMWMP-39" value="&lt;font face=&quot;Times New Roman&quot; style=&quot;font-size: 16px;&quot;&gt;Елена Блиновская&lt;/font&gt;" style="rounded=0;whiteSpace=wrap;html=1;movable=1;resizable=1;rotatable=1;deletable=1;editable=1;locked=0;connectable=1;" parent="6xLyDwRKGcgcF2vIMWMP-38" vertex="1">
          <mxGeometry width="180" height="90" as="geometry" />
        </mxCell>
        <mxCell id="6xLyDwRKGcgcF2vIMWMP-40" value="&lt;font face=&quot;Times New Roman&quot; style=&quot;font-size: 14px;&quot;&gt;10&lt;/font&gt;" style="rounded=0;whiteSpace=wrap;html=1;movable=1;resizable=1;rotatable=1;deletable=1;editable=1;locked=0;connectable=1;" parent="6xLyDwRKGcgcF2vIMWMP-38" vertex="1">
          <mxGeometry x="60" width="60.00000000000001" height="30.000000000000004" as="geometry" />
        </mxCell>
        <mxCell id="2_r2QNr0GAkUmkoJv-m9-1" value="" style="group" parent="1" vertex="1" connectable="0">
          <mxGeometry x="20" y="390" width="170" height="130" as="geometry" />
        </mxCell>
        <mxCell id="2_r2QNr0GAkUmkoJv-m9-2" value="&lt;font face=&quot;Times New Roman&quot; style=&quot;font-size: 16px;&quot;&gt;Продажа Эйфелевой башни&lt;/font&gt;" style="ellipse;whiteSpace=wrap;html=1;" parent="2_r2QNr0GAkUmkoJv-m9-1" vertex="1">
          <mxGeometry width="170" height="130" as="geometry" />
        </mxCell>
        <mxCell id="2_r2QNr0GAkUmkoJv-m9-3" value="&lt;font face=&quot;Times New Roman&quot; style=&quot;font-size: 14px;&quot;&gt;1&lt;/font&gt;" style="ellipse;whiteSpace=wrap;html=1;" parent="2_r2QNr0GAkUmkoJv-m9-1" vertex="1">
          <mxGeometry x="55" width="60" height="40" as="geometry" />
        </mxCell>
        <mxCell id="2_r2QNr0GAkUmkoJv-m9-4" value="" style="group" parent="1" vertex="1" connectable="0">
          <mxGeometry x="970" y="390" width="170" height="130" as="geometry" />
        </mxCell>
        <mxCell id="2_r2QNr0GAkUmkoJv-m9-5" value="&lt;font face=&quot;Times New Roman&quot;&gt;&lt;span style=&quot;font-size: 16px;&quot;&gt;Похищение данных телефонной компании&lt;/span&gt;&lt;/font&gt;" style="ellipse;whiteSpace=wrap;html=1;" parent="2_r2QNr0GAkUmkoJv-m9-4" vertex="1">
          <mxGeometry width="170" height="130" as="geometry" />
        </mxCell>
        <mxCell id="2_r2QNr0GAkUmkoJv-m9-6" value="&lt;font face=&quot;Times New Roman&quot; style=&quot;font-size: 14px;&quot;&gt;2&lt;/font&gt;" style="ellipse;whiteSpace=wrap;html=1;" parent="2_r2QNr0GAkUmkoJv-m9-4" vertex="1">
          <mxGeometry x="55" width="60" height="40" as="geometry" />
        </mxCell>
        <mxCell id="2_r2QNr0GAkUmkoJv-m9-7" value="" style="group" parent="1" vertex="1" connectable="0">
          <mxGeometry x="1150" y="390" width="170" height="130" as="geometry" />
        </mxCell>
        <mxCell id="2_r2QNr0GAkUmkoJv-m9-8" value="&lt;font face=&quot;Times New Roman&quot; style=&quot;font-size: 16px;&quot;&gt;Создание финансовой пирамиды&lt;/font&gt;" style="ellipse;whiteSpace=wrap;html=1;" parent="2_r2QNr0GAkUmkoJv-m9-7" vertex="1">
          <mxGeometry width="170" height="130" as="geometry" />
        </mxCell>
        <mxCell id="2_r2QNr0GAkUmkoJv-m9-9" value="&lt;font face=&quot;Times New Roman&quot; style=&quot;font-size: 14px;&quot;&gt;5&lt;/font&gt;" style="ellipse;whiteSpace=wrap;html=1;" parent="2_r2QNr0GAkUmkoJv-m9-7" vertex="1">
          <mxGeometry x="55" width="60" height="40" as="geometry" />
        </mxCell>
        <mxCell id="2_r2QNr0GAkUmkoJv-m9-10" value="" style="group" parent="1" vertex="1" connectable="0">
          <mxGeometry x="210" y="390" width="170" height="130" as="geometry" />
        </mxCell>
        <mxCell id="2_r2QNr0GAkUmkoJv-m9-11" value="&lt;font face=&quot;Times New Roman&quot; style=&quot;font-size: 16px;&quot;&gt;Продажа Эйфелевой башни второй раз&lt;/font&gt;" style="ellipse;whiteSpace=wrap;html=1;" parent="2_r2QNr0GAkUmkoJv-m9-10" vertex="1">
          <mxGeometry width="170" height="130" as="geometry" />
        </mxCell>
        <mxCell id="2_r2QNr0GAkUmkoJv-m9-12" value="&lt;font face=&quot;Times New Roman&quot; style=&quot;font-size: 14px;&quot;&gt;6&lt;/font&gt;" style="ellipse;whiteSpace=wrap;html=1;" parent="2_r2QNr0GAkUmkoJv-m9-10" vertex="1">
          <mxGeometry x="55" width="60" height="40" as="geometry" />
        </mxCell>
        <mxCell id="2_r2QNr0GAkUmkoJv-m9-13" value="" style="group" parent="1" vertex="1" connectable="0">
          <mxGeometry x="510" y="70" width="170" height="130" as="geometry" />
        </mxCell>
        <mxCell id="2_r2QNr0GAkUmkoJv-m9-14" value="&lt;font face=&quot;Times New Roman&quot; style=&quot;font-size: 16px;&quot;&gt;Наркоторговля&lt;/font&gt;" style="ellipse;whiteSpace=wrap;html=1;" parent="2_r2QNr0GAkUmkoJv-m9-13" vertex="1">
          <mxGeometry width="170" height="130" as="geometry" />
        </mxCell>
        <mxCell id="2_r2QNr0GAkUmkoJv-m9-15" value="&lt;font face=&quot;Times New Roman&quot; style=&quot;font-size: 14px;&quot;&gt;9&lt;/font&gt;" style="ellipse;whiteSpace=wrap;html=1;" parent="2_r2QNr0GAkUmkoJv-m9-13" vertex="1">
          <mxGeometry x="55" width="60" height="40" as="geometry" />
        </mxCell>
        <mxCell id="2_r2QNr0GAkUmkoJv-m9-16" value="" style="group" parent="1" vertex="1" connectable="0">
          <mxGeometry x="1340" y="390" width="170" height="130" as="geometry" />
        </mxCell>
        <mxCell id="2_r2QNr0GAkUmkoJv-m9-17" value="&lt;font face=&quot;Times New Roman&quot;&gt;&lt;span style=&quot;font-size: 16px;&quot;&gt;Финансовые&lt;/span&gt;&lt;/font&gt;&lt;div&gt;&lt;font face=&quot;Times New Roman&quot;&gt;&lt;span style=&quot;font-size: 16px;&quot;&gt;махинации&lt;/span&gt;&lt;/font&gt;&lt;/div&gt;" style="ellipse;whiteSpace=wrap;html=1;" parent="2_r2QNr0GAkUmkoJv-m9-16" vertex="1">
          <mxGeometry width="170" height="130" as="geometry" />
        </mxCell>
        <mxCell id="2_r2QNr0GAkUmkoJv-m9-18" value="&lt;font face=&quot;Times New Roman&quot; style=&quot;font-size: 14px;&quot;&gt;10&lt;/font&gt;" style="ellipse;whiteSpace=wrap;html=1;" parent="2_r2QNr0GAkUmkoJv-m9-16" vertex="1">
          <mxGeometry x="55" width="60" height="40" as="geometry" />
        </mxCell>
        <mxCell id="2_r2QNr0GAkUmkoJv-m9-19" value="" style="group" parent="1" vertex="1" connectable="0">
          <mxGeometry x="410" y="400" width="170" height="130" as="geometry" />
        </mxCell>
        <mxCell id="2_r2QNr0GAkUmkoJv-m9-20" value="&lt;font face=&quot;Times New Roman&quot;&gt;&lt;span style=&quot;font-size: 16px;&quot;&gt;Отмывание денег&lt;/span&gt;&lt;/font&gt;" style="ellipse;whiteSpace=wrap;html=1;" parent="2_r2QNr0GAkUmkoJv-m9-19" vertex="1">
          <mxGeometry width="170" height="130" as="geometry" />
        </mxCell>
        <mxCell id="2_r2QNr0GAkUmkoJv-m9-21" value="&lt;font face=&quot;Times New Roman&quot; style=&quot;font-size: 14px;&quot;&gt;3&lt;/font&gt;" style="ellipse;whiteSpace=wrap;html=1;" parent="2_r2QNr0GAkUmkoJv-m9-19" vertex="1">
          <mxGeometry x="55" width="60" height="40" as="geometry" />
        </mxCell>
        <mxCell id="2_r2QNr0GAkUmkoJv-m9-22" value="" style="group" parent="1" vertex="1" connectable="0">
          <mxGeometry x="790" y="400" width="170" height="130" as="geometry" />
        </mxCell>
        <mxCell id="2_r2QNr0GAkUmkoJv-m9-23" value="&lt;font face=&quot;Times New Roman&quot; style=&quot;font-size: 16px;&quot;&gt;Убийство родителей Поттера&lt;/font&gt;" style="ellipse;whiteSpace=wrap;html=1;" parent="2_r2QNr0GAkUmkoJv-m9-22" vertex="1">
          <mxGeometry width="170" height="130" as="geometry" />
        </mxCell>
        <mxCell id="2_r2QNr0GAkUmkoJv-m9-24" value="&lt;font face=&quot;Times New Roman&quot; style=&quot;font-size: 14px;&quot;&gt;4&lt;/font&gt;" style="ellipse;whiteSpace=wrap;html=1;" parent="2_r2QNr0GAkUmkoJv-m9-22" vertex="1">
          <mxGeometry x="55" width="60" height="40" as="geometry" />
        </mxCell>
        <mxCell id="2_r2QNr0GAkUmkoJv-m9-25" value="" style="group" parent="1" vertex="1" connectable="0">
          <mxGeometry x="600" y="400" width="170" height="130" as="geometry" />
        </mxCell>
        <mxCell id="2_r2QNr0GAkUmkoJv-m9-26" value="&lt;font face=&quot;Times New Roman&quot; style=&quot;font-size: 16px;&quot;&gt;Убийство&lt;/font&gt;" style="ellipse;whiteSpace=wrap;html=1;" parent="2_r2QNr0GAkUmkoJv-m9-25" vertex="1">
          <mxGeometry width="170" height="130" as="geometry" />
        </mxCell>
        <mxCell id="2_r2QNr0GAkUmkoJv-m9-27" value="&lt;font face=&quot;Times New Roman&quot; style=&quot;font-size: 14px;&quot;&gt;7&lt;/font&gt;" style="ellipse;whiteSpace=wrap;html=1;" parent="2_r2QNr0GAkUmkoJv-m9-25" vertex="1">
          <mxGeometry x="55" width="60" height="40" as="geometry" />
        </mxCell>
        <mxCell id="2_r2QNr0GAkUmkoJv-m9-28" value="" style="group" parent="1" vertex="1" connectable="0">
          <mxGeometry x="220" y="90" width="170" height="130" as="geometry" />
        </mxCell>
        <mxCell id="2_r2QNr0GAkUmkoJv-m9-29" value="&lt;font face=&quot;Times New Roman&quot; style=&quot;font-size: 16px;&quot;&gt;Кража денег у банков&lt;/font&gt;" style="ellipse;whiteSpace=wrap;html=1;" parent="2_r2QNr0GAkUmkoJv-m9-28" vertex="1">
          <mxGeometry width="170" height="130" as="geometry" />
        </mxCell>
        <mxCell id="2_r2QNr0GAkUmkoJv-m9-30" value="&lt;font face=&quot;Times New Roman&quot; style=&quot;font-size: 14px;&quot;&gt;8&lt;/font&gt;" style="ellipse;whiteSpace=wrap;html=1;" parent="2_r2QNr0GAkUmkoJv-m9-28" vertex="1">
          <mxGeometry x="55" width="60" height="40" as="geometry" />
        </mxCell>
        <mxCell id="2_r2QNr0GAkUmkoJv-m9-31" value="" style="group" parent="1" vertex="1" connectable="0">
          <mxGeometry x="1520" y="390" width="170" height="130" as="geometry" />
        </mxCell>
        <mxCell id="2_r2QNr0GAkUmkoJv-m9-32" value="&lt;font face=&quot;Times New Roman&quot; style=&quot;font-size: 16px;&quot;&gt;Мошенничество и инфоциганство&lt;/font&gt;" style="ellipse;whiteSpace=wrap;html=1;" parent="2_r2QNr0GAkUmkoJv-m9-31" vertex="1">
          <mxGeometry width="170" height="130" as="geometry" />
        </mxCell>
        <mxCell id="2_r2QNr0GAkUmkoJv-m9-33" value="&lt;font face=&quot;Times New Roman&quot; style=&quot;font-size: 14px;&quot;&gt;11&lt;/font&gt;" style="ellipse;whiteSpace=wrap;html=1;" parent="2_r2QNr0GAkUmkoJv-m9-31" vertex="1">
          <mxGeometry x="55" width="60" height="40" as="geometry" />
        </mxCell>
        <mxCell id="2_r2QNr0GAkUmkoJv-m9-36" style="edgeStyle=orthogonalEdgeStyle;rounded=0;orthogonalLoop=1;jettySize=auto;html=1;entryX=0.683;entryY=0.947;entryDx=0;entryDy=0;entryPerimeter=0;" parent="1" source="6xLyDwRKGcgcF2vIMWMP-31" target="2_r2QNr0GAkUmkoJv-m9-29" edge="1">
          <mxGeometry relative="1" as="geometry" />
        </mxCell>
        <mxCell id="2_r2QNr0GAkUmkoJv-m9-37" style="edgeStyle=orthogonalEdgeStyle;rounded=0;orthogonalLoop=1;jettySize=auto;html=1;entryX=0.257;entryY=0.084;entryDx=0;entryDy=0;entryPerimeter=0;" parent="1" source="6xLyDwRKGcgcF2vIMWMP-31" target="2_r2QNr0GAkUmkoJv-m9-20" edge="1">
          <mxGeometry relative="1" as="geometry" />
        </mxCell>
        <mxCell id="2_r2QNr0GAkUmkoJv-m9-38" style="edgeStyle=orthogonalEdgeStyle;rounded=0;orthogonalLoop=1;jettySize=auto;html=1;entryX=0.367;entryY=0.969;entryDx=0;entryDy=0;entryPerimeter=0;" parent="1" source="6xLyDwRKGcgcF2vIMWMP-4" target="2_r2QNr0GAkUmkoJv-m9-2" edge="1">
          <mxGeometry relative="1" as="geometry" />
        </mxCell>
        <mxCell id="2_r2QNr0GAkUmkoJv-m9-39" style="edgeStyle=orthogonalEdgeStyle;rounded=0;orthogonalLoop=1;jettySize=auto;html=1;entryX=0.641;entryY=0.952;entryDx=0;entryDy=0;entryPerimeter=0;" parent="1" source="6xLyDwRKGcgcF2vIMWMP-4" target="2_r2QNr0GAkUmkoJv-m9-11" edge="1">
          <mxGeometry relative="1" as="geometry" />
        </mxCell>
        <mxCell id="2_r2QNr0GAkUmkoJv-m9-40" style="edgeStyle=orthogonalEdgeStyle;rounded=0;orthogonalLoop=1;jettySize=auto;html=1;entryX=0.687;entryY=0.936;entryDx=0;entryDy=0;entryPerimeter=0;" parent="1" source="6xLyDwRKGcgcF2vIMWMP-12" target="2_r2QNr0GAkUmkoJv-m9-20" edge="1">
          <mxGeometry relative="1" as="geometry" />
        </mxCell>
        <mxCell id="2_r2QNr0GAkUmkoJv-m9-41" style="edgeStyle=orthogonalEdgeStyle;rounded=0;orthogonalLoop=1;jettySize=auto;html=1;entryX=0.771;entryY=0.898;entryDx=0;entryDy=0;entryPerimeter=0;" parent="1" source="6xLyDwRKGcgcF2vIMWMP-7" target="2_r2QNr0GAkUmkoJv-m9-26" edge="1">
          <mxGeometry relative="1" as="geometry" />
        </mxCell>
        <mxCell id="2_r2QNr0GAkUmkoJv-m9-42" style="edgeStyle=orthogonalEdgeStyle;rounded=0;orthogonalLoop=1;jettySize=auto;html=1;entryX=0.266;entryY=0.951;entryDx=0;entryDy=0;entryPerimeter=0;" parent="1" source="6xLyDwRKGcgcF2vIMWMP-12" target="2_r2QNr0GAkUmkoJv-m9-26" edge="1">
          <mxGeometry relative="1" as="geometry" />
        </mxCell>
        <mxCell id="2_r2QNr0GAkUmkoJv-m9-43" style="edgeStyle=orthogonalEdgeStyle;rounded=0;orthogonalLoop=1;jettySize=auto;html=1;entryX=0.923;entryY=0.277;entryDx=0;entryDy=0;entryPerimeter=0;" parent="1" source="6xLyDwRKGcgcF2vIMWMP-20" target="2_r2QNr0GAkUmkoJv-m9-20" edge="1">
          <mxGeometry relative="1" as="geometry" />
        </mxCell>
        <mxCell id="2_r2QNr0GAkUmkoJv-m9-44" style="edgeStyle=orthogonalEdgeStyle;rounded=0;orthogonalLoop=1;jettySize=auto;html=1;entryX=0.29;entryY=0.057;entryDx=0;entryDy=0;entryPerimeter=0;" parent="1" source="6xLyDwRKGcgcF2vIMWMP-20" target="2_r2QNr0GAkUmkoJv-m9-26" edge="1">
          <mxGeometry relative="1" as="geometry" />
        </mxCell>
        <mxCell id="2_r2QNr0GAkUmkoJv-m9-45" style="edgeStyle=orthogonalEdgeStyle;rounded=0;orthogonalLoop=1;jettySize=auto;html=1;entryX=0.604;entryY=0.96;entryDx=0;entryDy=0;entryPerimeter=0;" parent="1" source="6xLyDwRKGcgcF2vIMWMP-20" target="2_r2QNr0GAkUmkoJv-m9-14" edge="1">
          <mxGeometry relative="1" as="geometry" />
        </mxCell>
        <mxCell id="2_r2QNr0GAkUmkoJv-m9-46" style="edgeStyle=orthogonalEdgeStyle;rounded=0;orthogonalLoop=1;jettySize=auto;html=1;entryX=0.688;entryY=0.055;entryDx=0;entryDy=0;entryPerimeter=0;" parent="1" source="6xLyDwRKGcgcF2vIMWMP-15" target="2_r2QNr0GAkUmkoJv-m9-8" edge="1">
          <mxGeometry relative="1" as="geometry" />
        </mxCell>
        <mxCell id="2_r2QNr0GAkUmkoJv-m9-47" style="edgeStyle=orthogonalEdgeStyle;rounded=0;orthogonalLoop=1;jettySize=auto;html=1;entryX=0.334;entryY=0.96;entryDx=0;entryDy=0;entryPerimeter=0;" parent="1" source="6xLyDwRKGcgcF2vIMWMP-36" target="2_r2QNr0GAkUmkoJv-m9-5" edge="1">
          <mxGeometry relative="1" as="geometry" />
        </mxCell>
        <mxCell id="2_r2QNr0GAkUmkoJv-m9-48" style="edgeStyle=orthogonalEdgeStyle;rounded=0;orthogonalLoop=1;jettySize=auto;html=1;entryX=0.5;entryY=0;entryDx=0;entryDy=0;" parent="1" source="6xLyDwRKGcgcF2vIMWMP-23" target="2_r2QNr0GAkUmkoJv-m9-24" edge="1">
          <mxGeometry relative="1" as="geometry" />
        </mxCell>
        <mxCell id="2_r2QNr0GAkUmkoJv-m9-49" style="edgeStyle=orthogonalEdgeStyle;rounded=0;orthogonalLoop=1;jettySize=auto;html=1;entryX=0.73;entryY=0.057;entryDx=0;entryDy=0;entryPerimeter=0;" parent="1" source="6xLyDwRKGcgcF2vIMWMP-28" target="2_r2QNr0GAkUmkoJv-m9-17" edge="1">
          <mxGeometry relative="1" as="geometry" />
        </mxCell>
        <mxCell id="2_r2QNr0GAkUmkoJv-m9-50" style="edgeStyle=orthogonalEdgeStyle;rounded=0;orthogonalLoop=1;jettySize=auto;html=1;entryX=0.352;entryY=0.971;entryDx=0;entryDy=0;entryPerimeter=0;" parent="1" source="6xLyDwRKGcgcF2vIMWMP-39" target="2_r2QNr0GAkUmkoJv-m9-32" edge="1">
          <mxGeometry relative="1" as="geometry" />
        </mxCell>
        <mxCell id="2PFtdEMhJ07nfC1MNWC6-1" style="edgeStyle=orthogonalEdgeStyle;rounded=0;orthogonalLoop=1;jettySize=auto;html=1;entryX=0.765;entryY=0.923;entryDx=0;entryDy=0;entryPerimeter=0;" edge="1" parent="1" source="6xLyDwRKGcgcF2vIMWMP-39" target="2_r2QNr0GAkUmkoJv-m9-17">
          <mxGeometry relative="1" as="geometry" />
        </mxCell>
        <mxCell id="2PFtdEMhJ07nfC1MNWC6-2" style="edgeStyle=orthogonalEdgeStyle;rounded=0;orthogonalLoop=1;jettySize=auto;html=1;entryX=0.5;entryY=1;entryDx=0;entryDy=0;" edge="1" parent="1" source="6xLyDwRKGcgcF2vIMWMP-39" target="2_r2QNr0GAkUmkoJv-m9-8">
          <mxGeometry relative="1" as="geometry" />
        </mxCell>
        <mxCell id="2PFtdEMhJ07nfC1MNWC6-3" style="edgeStyle=orthogonalEdgeStyle;rounded=0;orthogonalLoop=1;jettySize=auto;html=1;entryX=0.727;entryY=0.066;entryDx=0;entryDy=0;entryPerimeter=0;" edge="1" parent="1" source="6xLyDwRKGcgcF2vIMWMP-23" target="2_r2QNr0GAkUmkoJv-m9-26">
          <mxGeometry relative="1" as="geometry" />
        </mxCell>
        <mxCell id="2PFtdEMhJ07nfC1MNWC6-4" style="edgeStyle=orthogonalEdgeStyle;rounded=0;orthogonalLoop=1;jettySize=auto;html=1;entryX=0.5;entryY=1;entryDx=0;entryDy=0;" edge="1" parent="1" source="6xLyDwRKGcgcF2vIMWMP-7" target="2_r2QNr0GAkUmkoJv-m9-17">
          <mxGeometry relative="1" as="geometry">
            <Array as="points">
              <mxPoint x="790" y="720" />
              <mxPoint x="1425" y="720" />
            </Array>
          </mxGeometry>
        </mxCell>
      </root>
    </mxGraphModel>
  </diagram>
  <diagram name="Признается в преступлении" id="nxl1o8_WBBQTgi8Bnj3a">
    <mxGraphModel dx="1603" dy="877" grid="1" gridSize="10" guides="1" tooltips="1" connect="1" arrows="1" fold="1" page="1" pageScale="1" pageWidth="850" pageHeight="1100" math="0" shadow="0">
      <root>
        <mxCell id="jVtSvJ1gY6u5sCy4Pvuh-0" />
        <mxCell id="jVtSvJ1gY6u5sCy4Pvuh-1" parent="jVtSvJ1gY6u5sCy4Pvuh-0" />
        <mxCell id="jVtSvJ1gY6u5sCy4Pvuh-2" value="" style="group" vertex="1" connectable="0" parent="jVtSvJ1gY6u5sCy4Pvuh-1">
          <mxGeometry x="100" y="580" width="180" height="90" as="geometry" />
        </mxCell>
        <mxCell id="jVtSvJ1gY6u5sCy4Pvuh-3" value="" style="group" vertex="1" connectable="0" parent="jVtSvJ1gY6u5sCy4Pvuh-2">
          <mxGeometry width="180" height="90" as="geometry" />
        </mxCell>
        <mxCell id="jVtSvJ1gY6u5sCy4Pvuh-4" value="" style="group" vertex="1" connectable="0" parent="jVtSvJ1gY6u5sCy4Pvuh-3">
          <mxGeometry width="180" height="90" as="geometry" />
        </mxCell>
        <mxCell id="jVtSvJ1gY6u5sCy4Pvuh-5" value="&lt;font face=&quot;Times New Roman&quot; style=&quot;font-size: 16px;&quot;&gt;Виктор Люстиг&lt;/font&gt;" style="rounded=0;whiteSpace=wrap;html=1;movable=1;resizable=1;rotatable=1;deletable=1;editable=1;locked=0;connectable=1;" vertex="1" parent="jVtSvJ1gY6u5sCy4Pvuh-4">
          <mxGeometry width="180" height="90" as="geometry" />
        </mxCell>
        <mxCell id="jVtSvJ1gY6u5sCy4Pvuh-6" value="&lt;font face=&quot;Times New Roman&quot; style=&quot;font-size: 14px;&quot;&gt;1&lt;/font&gt;" style="rounded=0;whiteSpace=wrap;html=1;movable=1;resizable=1;rotatable=1;deletable=1;editable=1;locked=0;connectable=1;" vertex="1" parent="jVtSvJ1gY6u5sCy4Pvuh-4">
          <mxGeometry x="60" width="60.00000000000001" height="30.000000000000004" as="geometry" />
        </mxCell>
        <mxCell id="jVtSvJ1gY6u5sCy4Pvuh-7" value="" style="group" vertex="1" connectable="0" parent="jVtSvJ1gY6u5sCy4Pvuh-1">
          <mxGeometry x="740" y="600" width="180" height="90" as="geometry" />
        </mxCell>
        <mxCell id="jVtSvJ1gY6u5sCy4Pvuh-8" value="&lt;font face=&quot;Times New Roman&quot; style=&quot;font-size: 16px;&quot;&gt;Мориарти&lt;/font&gt;" style="rounded=0;whiteSpace=wrap;html=1;movable=1;resizable=1;rotatable=1;deletable=1;editable=1;locked=0;connectable=1;" vertex="1" parent="jVtSvJ1gY6u5sCy4Pvuh-7">
          <mxGeometry width="180" height="90" as="geometry" />
        </mxCell>
        <mxCell id="jVtSvJ1gY6u5sCy4Pvuh-9" value="&lt;font face=&quot;Times New Roman&quot; style=&quot;font-size: 14px;&quot;&gt;2&lt;/font&gt;" style="rounded=0;whiteSpace=wrap;html=1;movable=1;resizable=1;rotatable=1;deletable=1;editable=1;locked=0;connectable=1;" vertex="1" parent="jVtSvJ1gY6u5sCy4Pvuh-7">
          <mxGeometry x="60" width="60.00000000000001" height="30.000000000000004" as="geometry" />
        </mxCell>
        <mxCell id="jVtSvJ1gY6u5sCy4Pvuh-10" value="" style="group" vertex="1" connectable="0" parent="jVtSvJ1gY6u5sCy4Pvuh-1">
          <mxGeometry x="460" y="600" width="180" height="90" as="geometry" />
        </mxCell>
        <mxCell id="jVtSvJ1gY6u5sCy4Pvuh-11" value="" style="group" vertex="1" connectable="0" parent="jVtSvJ1gY6u5sCy4Pvuh-10">
          <mxGeometry width="180" height="90" as="geometry" />
        </mxCell>
        <mxCell id="jVtSvJ1gY6u5sCy4Pvuh-12" value="" style="group" vertex="1" connectable="0" parent="jVtSvJ1gY6u5sCy4Pvuh-11">
          <mxGeometry width="180" height="90" as="geometry" />
        </mxCell>
        <mxCell id="jVtSvJ1gY6u5sCy4Pvuh-13" value="&lt;font face=&quot;Times New Roman&quot;&gt;&lt;span style=&quot;font-size: 16px;&quot;&gt;Аль Капоне&lt;/span&gt;&lt;/font&gt;" style="rounded=0;whiteSpace=wrap;html=1;movable=1;resizable=1;rotatable=1;deletable=1;editable=1;locked=0;connectable=1;" vertex="1" parent="jVtSvJ1gY6u5sCy4Pvuh-12">
          <mxGeometry width="180" height="90" as="geometry" />
        </mxCell>
        <mxCell id="jVtSvJ1gY6u5sCy4Pvuh-14" value="&lt;font face=&quot;Times New Roman&quot; style=&quot;font-size: 14px;&quot;&gt;3&lt;/font&gt;" style="rounded=0;whiteSpace=wrap;html=1;movable=1;resizable=1;rotatable=1;deletable=1;editable=1;locked=0;connectable=1;" vertex="1" parent="jVtSvJ1gY6u5sCy4Pvuh-12">
          <mxGeometry x="60" width="60.00000000000001" height="30.000000000000004" as="geometry" />
        </mxCell>
        <mxCell id="jVtSvJ1gY6u5sCy4Pvuh-18" value="" style="group" vertex="1" connectable="0" parent="jVtSvJ1gY6u5sCy4Pvuh-1">
          <mxGeometry x="510" y="260" width="180" height="90" as="geometry" />
        </mxCell>
        <mxCell id="jVtSvJ1gY6u5sCy4Pvuh-19" value="" style="group" vertex="1" connectable="0" parent="jVtSvJ1gY6u5sCy4Pvuh-18">
          <mxGeometry width="180" height="90" as="geometry" />
        </mxCell>
        <mxCell id="jVtSvJ1gY6u5sCy4Pvuh-20" value="" style="group" vertex="1" connectable="0" parent="jVtSvJ1gY6u5sCy4Pvuh-19">
          <mxGeometry width="180" height="90" as="geometry" />
        </mxCell>
        <mxCell id="jVtSvJ1gY6u5sCy4Pvuh-21" value="&lt;font face=&quot;Times New Roman&quot;&gt;&lt;span style=&quot;font-size: 16px;&quot;&gt;Пабло Эскобар&lt;/span&gt;&lt;/font&gt;" style="rounded=0;whiteSpace=wrap;html=1;movable=1;resizable=1;rotatable=1;deletable=1;editable=1;locked=0;connectable=1;" vertex="1" parent="jVtSvJ1gY6u5sCy4Pvuh-20">
          <mxGeometry width="180" height="90" as="geometry" />
        </mxCell>
        <mxCell id="jVtSvJ1gY6u5sCy4Pvuh-22" value="&lt;font face=&quot;Times New Roman&quot; style=&quot;font-size: 14px;&quot;&gt;5&lt;/font&gt;" style="rounded=0;whiteSpace=wrap;html=1;movable=1;resizable=1;rotatable=1;deletable=1;editable=1;locked=0;connectable=1;" vertex="1" parent="jVtSvJ1gY6u5sCy4Pvuh-20">
          <mxGeometry x="60" width="60.00000000000001" height="30.000000000000004" as="geometry" />
        </mxCell>
        <mxCell id="jVtSvJ1gY6u5sCy4Pvuh-23" value="" style="group" vertex="1" connectable="0" parent="jVtSvJ1gY6u5sCy4Pvuh-1">
          <mxGeometry x="1170" y="605" width="180" height="90" as="geometry" />
        </mxCell>
        <mxCell id="jVtSvJ1gY6u5sCy4Pvuh-24" value="&lt;font face=&quot;Times New Roman&quot;&gt;&lt;span style=&quot;font-size: 16px;&quot;&gt;Вольдеморт&lt;/span&gt;&lt;/font&gt;" style="rounded=0;whiteSpace=wrap;html=1;movable=1;resizable=1;rotatable=1;deletable=1;editable=1;locked=0;connectable=1;" vertex="1" parent="jVtSvJ1gY6u5sCy4Pvuh-23">
          <mxGeometry width="180" height="90" as="geometry" />
        </mxCell>
        <mxCell id="jVtSvJ1gY6u5sCy4Pvuh-25" value="&lt;font face=&quot;Times New Roman&quot; style=&quot;font-size: 14px;&quot;&gt;6&lt;/font&gt;" style="rounded=0;whiteSpace=wrap;html=1;movable=1;resizable=1;rotatable=1;deletable=1;editable=1;locked=0;connectable=1;" vertex="1" parent="jVtSvJ1gY6u5sCy4Pvuh-23">
          <mxGeometry x="60" width="60.00000000000001" height="30.000000000000004" as="geometry" />
        </mxCell>
        <mxCell id="jVtSvJ1gY6u5sCy4Pvuh-26" value="" style="group" vertex="1" connectable="0" parent="jVtSvJ1gY6u5sCy4Pvuh-1">
          <mxGeometry x="1360" y="590" width="180" height="90" as="geometry" />
        </mxCell>
        <mxCell id="jVtSvJ1gY6u5sCy4Pvuh-27" value="" style="group" vertex="1" connectable="0" parent="jVtSvJ1gY6u5sCy4Pvuh-26">
          <mxGeometry width="180" height="90" as="geometry" />
        </mxCell>
        <mxCell id="jVtSvJ1gY6u5sCy4Pvuh-28" value="" style="group" vertex="1" connectable="0" parent="jVtSvJ1gY6u5sCy4Pvuh-27">
          <mxGeometry width="180" height="90" as="geometry" />
        </mxCell>
        <mxCell id="jVtSvJ1gY6u5sCy4Pvuh-29" value="&lt;font face=&quot;Times New Roman&quot;&gt;&lt;span style=&quot;font-size: 16px;&quot;&gt;Джордан Белфорт&lt;/span&gt;&lt;/font&gt;" style="rounded=0;whiteSpace=wrap;html=1;movable=1;resizable=1;rotatable=1;deletable=1;editable=1;locked=0;connectable=1;" vertex="1" parent="jVtSvJ1gY6u5sCy4Pvuh-28">
          <mxGeometry width="180" height="90" as="geometry" />
        </mxCell>
        <mxCell id="jVtSvJ1gY6u5sCy4Pvuh-30" value="&lt;font face=&quot;Times New Roman&quot; style=&quot;font-size: 14px;&quot;&gt;7&lt;/font&gt;" style="rounded=0;whiteSpace=wrap;html=1;movable=1;resizable=1;rotatable=1;deletable=1;editable=1;locked=0;connectable=1;" vertex="1" parent="jVtSvJ1gY6u5sCy4Pvuh-28">
          <mxGeometry x="60" width="60.00000000000001" height="30.000000000000004" as="geometry" />
        </mxCell>
        <mxCell id="jVtSvJ1gY6u5sCy4Pvuh-31" value="" style="group" vertex="1" connectable="0" parent="jVtSvJ1gY6u5sCy4Pvuh-1">
          <mxGeometry x="215" y="260" width="180" height="90" as="geometry" />
        </mxCell>
        <mxCell id="jVtSvJ1gY6u5sCy4Pvuh-32" value="&lt;font face=&quot;Times New Roman&quot;&gt;&lt;span style=&quot;font-size: 16px;&quot;&gt;Фрэнк Абигнейл&lt;/span&gt;&lt;/font&gt;" style="rounded=0;whiteSpace=wrap;html=1;movable=1;resizable=1;rotatable=1;deletable=1;editable=1;locked=0;connectable=1;" vertex="1" parent="jVtSvJ1gY6u5sCy4Pvuh-31">
          <mxGeometry width="180" height="90" as="geometry" />
        </mxCell>
        <mxCell id="jVtSvJ1gY6u5sCy4Pvuh-33" value="&lt;font face=&quot;Times New Roman&quot;&gt;&lt;span style=&quot;font-size: 14px;&quot;&gt;8&lt;/span&gt;&lt;/font&gt;" style="rounded=0;whiteSpace=wrap;html=1;movable=1;resizable=1;rotatable=1;deletable=1;editable=1;locked=0;connectable=1;" vertex="1" parent="jVtSvJ1gY6u5sCy4Pvuh-31">
          <mxGeometry x="60" width="60.00000000000001" height="30.000000000000004" as="geometry" />
        </mxCell>
        <mxCell id="jVtSvJ1gY6u5sCy4Pvuh-34" value="" style="group" vertex="1" connectable="0" parent="jVtSvJ1gY6u5sCy4Pvuh-1">
          <mxGeometry x="940" y="600" width="180" height="90" as="geometry" />
        </mxCell>
        <mxCell id="jVtSvJ1gY6u5sCy4Pvuh-35" value="" style="group" vertex="1" connectable="0" parent="jVtSvJ1gY6u5sCy4Pvuh-34">
          <mxGeometry width="180" height="90" as="geometry" />
        </mxCell>
        <mxCell id="jVtSvJ1gY6u5sCy4Pvuh-36" value="" style="group" vertex="1" connectable="0" parent="jVtSvJ1gY6u5sCy4Pvuh-35">
          <mxGeometry width="180" height="90" as="geometry" />
        </mxCell>
        <mxCell id="jVtSvJ1gY6u5sCy4Pvuh-37" value="&lt;font face=&quot;Times New Roman&quot;&gt;&lt;span style=&quot;font-size: 16px;&quot;&gt;Кевин Митник&lt;/span&gt;&lt;/font&gt;" style="rounded=0;whiteSpace=wrap;html=1;movable=1;resizable=1;rotatable=1;deletable=1;editable=1;locked=0;connectable=1;" vertex="1" parent="jVtSvJ1gY6u5sCy4Pvuh-36">
          <mxGeometry width="180" height="90" as="geometry" />
        </mxCell>
        <mxCell id="jVtSvJ1gY6u5sCy4Pvuh-38" value="&lt;font face=&quot;Times New Roman&quot; style=&quot;font-size: 14px;&quot;&gt;9&lt;/font&gt;" style="rounded=0;whiteSpace=wrap;html=1;movable=1;resizable=1;rotatable=1;deletable=1;editable=1;locked=0;connectable=1;" vertex="1" parent="jVtSvJ1gY6u5sCy4Pvuh-36">
          <mxGeometry x="60" width="60.00000000000001" height="30.000000000000004" as="geometry" />
        </mxCell>
        <mxCell id="jVtSvJ1gY6u5sCy4Pvuh-42" value="" style="group" vertex="1" connectable="0" parent="jVtSvJ1gY6u5sCy4Pvuh-1">
          <mxGeometry x="20" y="390" width="170" height="130" as="geometry" />
        </mxCell>
        <mxCell id="jVtSvJ1gY6u5sCy4Pvuh-43" value="&lt;font face=&quot;Times New Roman&quot; style=&quot;font-size: 16px;&quot;&gt;Продажа Эйфелевой башни&lt;/font&gt;" style="ellipse;whiteSpace=wrap;html=1;" vertex="1" parent="jVtSvJ1gY6u5sCy4Pvuh-42">
          <mxGeometry width="170" height="130" as="geometry" />
        </mxCell>
        <mxCell id="jVtSvJ1gY6u5sCy4Pvuh-44" value="&lt;font face=&quot;Times New Roman&quot; style=&quot;font-size: 14px;&quot;&gt;1&lt;/font&gt;" style="ellipse;whiteSpace=wrap;html=1;" vertex="1" parent="jVtSvJ1gY6u5sCy4Pvuh-42">
          <mxGeometry x="55" width="60" height="40" as="geometry" />
        </mxCell>
        <mxCell id="jVtSvJ1gY6u5sCy4Pvuh-45" value="" style="group" vertex="1" connectable="0" parent="jVtSvJ1gY6u5sCy4Pvuh-1">
          <mxGeometry x="970" y="390" width="170" height="130" as="geometry" />
        </mxCell>
        <mxCell id="jVtSvJ1gY6u5sCy4Pvuh-46" value="&lt;font face=&quot;Times New Roman&quot;&gt;&lt;span style=&quot;font-size: 16px;&quot;&gt;Похищение данных телефонной компании&lt;/span&gt;&lt;/font&gt;" style="ellipse;whiteSpace=wrap;html=1;" vertex="1" parent="jVtSvJ1gY6u5sCy4Pvuh-45">
          <mxGeometry width="170" height="130" as="geometry" />
        </mxCell>
        <mxCell id="jVtSvJ1gY6u5sCy4Pvuh-47" value="&lt;font face=&quot;Times New Roman&quot; style=&quot;font-size: 14px;&quot;&gt;2&lt;/font&gt;" style="ellipse;whiteSpace=wrap;html=1;" vertex="1" parent="jVtSvJ1gY6u5sCy4Pvuh-45">
          <mxGeometry x="55" width="60" height="40" as="geometry" />
        </mxCell>
        <mxCell id="jVtSvJ1gY6u5sCy4Pvuh-57" value="" style="group" vertex="1" connectable="0" parent="jVtSvJ1gY6u5sCy4Pvuh-1">
          <mxGeometry x="1340" y="390" width="170" height="130" as="geometry" />
        </mxCell>
        <mxCell id="jVtSvJ1gY6u5sCy4Pvuh-58" value="&lt;font face=&quot;Times New Roman&quot;&gt;&lt;span style=&quot;font-size: 16px;&quot;&gt;Финансовые&lt;/span&gt;&lt;/font&gt;&lt;div&gt;&lt;font face=&quot;Times New Roman&quot;&gt;&lt;span style=&quot;font-size: 16px;&quot;&gt;махинации&lt;/span&gt;&lt;/font&gt;&lt;/div&gt;" style="ellipse;whiteSpace=wrap;html=1;" vertex="1" parent="jVtSvJ1gY6u5sCy4Pvuh-57">
          <mxGeometry width="170" height="130" as="geometry" />
        </mxCell>
        <mxCell id="jVtSvJ1gY6u5sCy4Pvuh-59" value="&lt;font face=&quot;Times New Roman&quot; style=&quot;font-size: 14px;&quot;&gt;10&lt;/font&gt;" style="ellipse;whiteSpace=wrap;html=1;" vertex="1" parent="jVtSvJ1gY6u5sCy4Pvuh-57">
          <mxGeometry x="55" width="60" height="40" as="geometry" />
        </mxCell>
        <mxCell id="jVtSvJ1gY6u5sCy4Pvuh-60" value="" style="group" vertex="1" connectable="0" parent="jVtSvJ1gY6u5sCy4Pvuh-1">
          <mxGeometry x="500" y="400" width="170" height="130" as="geometry" />
        </mxCell>
        <mxCell id="jVtSvJ1gY6u5sCy4Pvuh-61" value="&lt;font face=&quot;Times New Roman&quot;&gt;&lt;span style=&quot;font-size: 16px;&quot;&gt;Отмывание денег&lt;/span&gt;&lt;/font&gt;" style="ellipse;whiteSpace=wrap;html=1;" vertex="1" parent="jVtSvJ1gY6u5sCy4Pvuh-60">
          <mxGeometry width="170" height="130" as="geometry" />
        </mxCell>
        <mxCell id="jVtSvJ1gY6u5sCy4Pvuh-62" value="&lt;font face=&quot;Times New Roman&quot; style=&quot;font-size: 14px;&quot;&gt;3&lt;/font&gt;" style="ellipse;whiteSpace=wrap;html=1;" vertex="1" parent="jVtSvJ1gY6u5sCy4Pvuh-60">
          <mxGeometry x="55" width="60" height="40" as="geometry" />
        </mxCell>
        <mxCell id="jVtSvJ1gY6u5sCy4Pvuh-63" value="" style="group" vertex="1" connectable="0" parent="jVtSvJ1gY6u5sCy4Pvuh-1">
          <mxGeometry x="1150" y="390" width="170" height="130" as="geometry" />
        </mxCell>
        <mxCell id="jVtSvJ1gY6u5sCy4Pvuh-64" value="&lt;font face=&quot;Times New Roman&quot; style=&quot;font-size: 16px;&quot;&gt;Убийство родителей Поттера&lt;/font&gt;" style="ellipse;whiteSpace=wrap;html=1;" vertex="1" parent="jVtSvJ1gY6u5sCy4Pvuh-63">
          <mxGeometry width="170" height="130" as="geometry" />
        </mxCell>
        <mxCell id="jVtSvJ1gY6u5sCy4Pvuh-65" value="&lt;font face=&quot;Times New Roman&quot; style=&quot;font-size: 14px;&quot;&gt;4&lt;/font&gt;" style="ellipse;whiteSpace=wrap;html=1;" vertex="1" parent="jVtSvJ1gY6u5sCy4Pvuh-63">
          <mxGeometry x="55" width="60" height="40" as="geometry" />
        </mxCell>
        <mxCell id="jVtSvJ1gY6u5sCy4Pvuh-66" value="" style="group" vertex="1" connectable="0" parent="jVtSvJ1gY6u5sCy4Pvuh-1">
          <mxGeometry x="730" y="390" width="170" height="130" as="geometry" />
        </mxCell>
        <mxCell id="jVtSvJ1gY6u5sCy4Pvuh-67" value="&lt;font face=&quot;Times New Roman&quot; style=&quot;font-size: 16px;&quot;&gt;Убийство&lt;/font&gt;" style="ellipse;whiteSpace=wrap;html=1;" vertex="1" parent="jVtSvJ1gY6u5sCy4Pvuh-66">
          <mxGeometry width="170" height="130" as="geometry" />
        </mxCell>
        <mxCell id="jVtSvJ1gY6u5sCy4Pvuh-68" value="&lt;font face=&quot;Times New Roman&quot; style=&quot;font-size: 14px;&quot;&gt;7&lt;/font&gt;" style="ellipse;whiteSpace=wrap;html=1;" vertex="1" parent="jVtSvJ1gY6u5sCy4Pvuh-66">
          <mxGeometry x="55" width="60" height="40" as="geometry" />
        </mxCell>
        <mxCell id="jVtSvJ1gY6u5sCy4Pvuh-69" value="" style="group" vertex="1" connectable="0" parent="jVtSvJ1gY6u5sCy4Pvuh-1">
          <mxGeometry x="220" y="400" width="170" height="130" as="geometry" />
        </mxCell>
        <mxCell id="jVtSvJ1gY6u5sCy4Pvuh-70" value="&lt;font face=&quot;Times New Roman&quot; style=&quot;font-size: 16px;&quot;&gt;Кража денег у банков&lt;/font&gt;" style="ellipse;whiteSpace=wrap;html=1;" vertex="1" parent="jVtSvJ1gY6u5sCy4Pvuh-69">
          <mxGeometry width="170" height="130" as="geometry" />
        </mxCell>
        <mxCell id="jVtSvJ1gY6u5sCy4Pvuh-71" value="&lt;font face=&quot;Times New Roman&quot; style=&quot;font-size: 14px;&quot;&gt;8&lt;/font&gt;" style="ellipse;whiteSpace=wrap;html=1;" vertex="1" parent="jVtSvJ1gY6u5sCy4Pvuh-69">
          <mxGeometry x="55" width="60" height="40" as="geometry" />
        </mxCell>
        <mxCell id="jVtSvJ1gY6u5sCy4Pvuh-75" style="edgeStyle=orthogonalEdgeStyle;rounded=0;orthogonalLoop=1;jettySize=auto;html=1;entryX=0.759;entryY=0.087;entryDx=0;entryDy=0;entryPerimeter=0;" edge="1" parent="jVtSvJ1gY6u5sCy4Pvuh-1" source="jVtSvJ1gY6u5sCy4Pvuh-32" target="jVtSvJ1gY6u5sCy4Pvuh-70">
          <mxGeometry relative="1" as="geometry" />
        </mxCell>
        <mxCell id="jVtSvJ1gY6u5sCy4Pvuh-77" style="edgeStyle=orthogonalEdgeStyle;rounded=0;orthogonalLoop=1;jettySize=auto;html=1;entryX=0.367;entryY=0.969;entryDx=0;entryDy=0;entryPerimeter=0;" edge="1" parent="jVtSvJ1gY6u5sCy4Pvuh-1" source="jVtSvJ1gY6u5sCy4Pvuh-5" target="jVtSvJ1gY6u5sCy4Pvuh-43">
          <mxGeometry relative="1" as="geometry" />
        </mxCell>
        <mxCell id="jVtSvJ1gY6u5sCy4Pvuh-79" style="edgeStyle=orthogonalEdgeStyle;rounded=0;orthogonalLoop=1;jettySize=auto;html=1;entryX=0.582;entryY=0.967;entryDx=0;entryDy=0;entryPerimeter=0;" edge="1" parent="jVtSvJ1gY6u5sCy4Pvuh-1" source="jVtSvJ1gY6u5sCy4Pvuh-13" target="jVtSvJ1gY6u5sCy4Pvuh-61">
          <mxGeometry relative="1" as="geometry" />
        </mxCell>
        <mxCell id="jVtSvJ1gY6u5sCy4Pvuh-80" style="edgeStyle=orthogonalEdgeStyle;rounded=0;orthogonalLoop=1;jettySize=auto;html=1;entryX=0.771;entryY=0.898;entryDx=0;entryDy=0;entryPerimeter=0;" edge="1" parent="jVtSvJ1gY6u5sCy4Pvuh-1" source="jVtSvJ1gY6u5sCy4Pvuh-8" target="jVtSvJ1gY6u5sCy4Pvuh-67">
          <mxGeometry relative="1" as="geometry" />
        </mxCell>
        <mxCell id="jVtSvJ1gY6u5sCy4Pvuh-82" style="edgeStyle=orthogonalEdgeStyle;rounded=0;orthogonalLoop=1;jettySize=auto;html=1;entryX=0.701;entryY=0.066;entryDx=0;entryDy=0;entryPerimeter=0;" edge="1" parent="jVtSvJ1gY6u5sCy4Pvuh-1" source="jVtSvJ1gY6u5sCy4Pvuh-21" target="jVtSvJ1gY6u5sCy4Pvuh-61">
          <mxGeometry relative="1" as="geometry" />
        </mxCell>
        <mxCell id="jVtSvJ1gY6u5sCy4Pvuh-85" style="edgeStyle=orthogonalEdgeStyle;rounded=0;orthogonalLoop=1;jettySize=auto;html=1;entryX=0.688;entryY=0.055;entryDx=0;entryDy=0;entryPerimeter=0;" edge="1" parent="jVtSvJ1gY6u5sCy4Pvuh-1" source="jVtSvJ1gY6u5sCy4Pvuh-16">
          <mxGeometry relative="1" as="geometry">
            <mxPoint x="906.96" y="397.1500000000001" as="targetPoint" />
          </mxGeometry>
        </mxCell>
        <mxCell id="jVtSvJ1gY6u5sCy4Pvuh-86" style="edgeStyle=orthogonalEdgeStyle;rounded=0;orthogonalLoop=1;jettySize=auto;html=1;entryX=0.334;entryY=0.96;entryDx=0;entryDy=0;entryPerimeter=0;" edge="1" parent="jVtSvJ1gY6u5sCy4Pvuh-1" source="jVtSvJ1gY6u5sCy4Pvuh-37" target="jVtSvJ1gY6u5sCy4Pvuh-46">
          <mxGeometry relative="1" as="geometry" />
        </mxCell>
        <mxCell id="jVtSvJ1gY6u5sCy4Pvuh-87" style="edgeStyle=orthogonalEdgeStyle;rounded=0;orthogonalLoop=1;jettySize=auto;html=1;entryX=0.448;entryY=0.995;entryDx=0;entryDy=0;entryPerimeter=0;" edge="1" parent="jVtSvJ1gY6u5sCy4Pvuh-1" source="jVtSvJ1gY6u5sCy4Pvuh-24" target="jVtSvJ1gY6u5sCy4Pvuh-64">
          <mxGeometry relative="1" as="geometry" />
        </mxCell>
        <mxCell id="jVtSvJ1gY6u5sCy4Pvuh-88" style="edgeStyle=orthogonalEdgeStyle;rounded=0;orthogonalLoop=1;jettySize=auto;html=1;entryX=0.578;entryY=0.997;entryDx=0;entryDy=0;entryPerimeter=0;" edge="1" parent="jVtSvJ1gY6u5sCy4Pvuh-1" source="jVtSvJ1gY6u5sCy4Pvuh-29" target="jVtSvJ1gY6u5sCy4Pvuh-58">
          <mxGeometry relative="1" as="geometry" />
        </mxCell>
        <mxCell id="jVtSvJ1gY6u5sCy4Pvuh-89" style="edgeStyle=orthogonalEdgeStyle;rounded=0;orthogonalLoop=1;jettySize=auto;html=1;entryX=0.352;entryY=0.971;entryDx=0;entryDy=0;entryPerimeter=0;" edge="1" parent="jVtSvJ1gY6u5sCy4Pvuh-1" target="jVtSvJ1gY6u5sCy4Pvuh-73">
          <mxGeometry relative="1" as="geometry">
            <mxPoint x="1590.0769230769229" y="600" as="sourcePoint" />
          </mxGeometry>
        </mxCell>
      </root>
    </mxGraphModel>
  </diagram>
  <diagram id="xB1fbRPH2KZGnJCENjCR" name="Расследует">
    <mxGraphModel dx="947" dy="518" grid="1" gridSize="10" guides="1" tooltips="1" connect="1" arrows="1" fold="1" page="1" pageScale="1" pageWidth="850" pageHeight="1100" math="0" shadow="0">
      <root>
        <mxCell id="0" />
        <mxCell id="1" parent="0" />
        <mxCell id="-I_-JJscchGBlXhT_a3A-1" value="" style="group" parent="1" vertex="1" connectable="0">
          <mxGeometry x="245" y="450" width="180" height="90" as="geometry" />
        </mxCell>
        <mxCell id="-I_-JJscchGBlXhT_a3A-2" value="&lt;font face=&quot;Times New Roman&quot; style=&quot;font-size: 16px;&quot;&gt;Шерлок Холмс&lt;/font&gt;" style="shape=parallelogram;perimeter=parallelogramPerimeter;whiteSpace=wrap;html=1;fixedSize=1;" parent="-I_-JJscchGBlXhT_a3A-1" vertex="1">
          <mxGeometry width="180" height="90" as="geometry" />
        </mxCell>
        <mxCell id="-I_-JJscchGBlXhT_a3A-3" value="&lt;font face=&quot;Times New Roman&quot; style=&quot;font-size: 14px;&quot;&gt;1&lt;/font&gt;" style="shape=parallelogram;perimeter=parallelogramPerimeter;whiteSpace=wrap;html=1;fixedSize=1;" parent="-I_-JJscchGBlXhT_a3A-1" vertex="1">
          <mxGeometry x="55" width="70" height="30" as="geometry" />
        </mxCell>
        <mxCell id="-I_-JJscchGBlXhT_a3A-4" value="" style="group" parent="1" vertex="1" connectable="0">
          <mxGeometry x="230" y="760" width="180" height="90" as="geometry" />
        </mxCell>
        <mxCell id="-I_-JJscchGBlXhT_a3A-5" value="&lt;font face=&quot;Times New Roman&quot;&gt;&lt;span style=&quot;font-size: 16px;&quot;&gt;Экрюль Пуаро&lt;/span&gt;&lt;/font&gt;" style="shape=parallelogram;perimeter=parallelogramPerimeter;whiteSpace=wrap;html=1;fixedSize=1;" parent="-I_-JJscchGBlXhT_a3A-4" vertex="1">
          <mxGeometry width="180" height="90" as="geometry" />
        </mxCell>
        <mxCell id="-I_-JJscchGBlXhT_a3A-6" value="&lt;font face=&quot;Times New Roman&quot; style=&quot;font-size: 14px;&quot;&gt;2&lt;/font&gt;" style="shape=parallelogram;perimeter=parallelogramPerimeter;whiteSpace=wrap;html=1;fixedSize=1;" parent="-I_-JJscchGBlXhT_a3A-4" vertex="1">
          <mxGeometry x="55" width="70" height="30" as="geometry" />
        </mxCell>
        <mxCell id="-I_-JJscchGBlXhT_a3A-7" value="" style="group" parent="1" vertex="1" connectable="0">
          <mxGeometry x="680" y="660" width="180" height="90" as="geometry" />
        </mxCell>
        <mxCell id="-I_-JJscchGBlXhT_a3A-8" value="&lt;font face=&quot;Times New Roman&quot;&gt;&lt;span style=&quot;font-size: 16px;&quot;&gt;Мухтар&lt;/span&gt;&lt;/font&gt;" style="shape=parallelogram;perimeter=parallelogramPerimeter;whiteSpace=wrap;html=1;fixedSize=1;" parent="-I_-JJscchGBlXhT_a3A-7" vertex="1">
          <mxGeometry width="180" height="90" as="geometry" />
        </mxCell>
        <mxCell id="-I_-JJscchGBlXhT_a3A-9" value="&lt;font face=&quot;Times New Roman&quot; style=&quot;font-size: 14px;&quot;&gt;3&lt;/font&gt;" style="shape=parallelogram;perimeter=parallelogramPerimeter;whiteSpace=wrap;html=1;fixedSize=1;" parent="-I_-JJscchGBlXhT_a3A-7" vertex="1">
          <mxGeometry x="55" width="70" height="30" as="geometry" />
        </mxCell>
        <mxCell id="-I_-JJscchGBlXhT_a3A-10" value="" style="group" parent="1" vertex="1" connectable="0">
          <mxGeometry x="1370" y="260" width="180" height="90" as="geometry" />
        </mxCell>
        <mxCell id="-I_-JJscchGBlXhT_a3A-11" value="&lt;font face=&quot;Times New Roman&quot;&gt;&lt;span style=&quot;font-size: 16px;&quot;&gt;Инспектор Сидоров&lt;/span&gt;&lt;/font&gt;" style="shape=parallelogram;perimeter=parallelogramPerimeter;whiteSpace=wrap;html=1;fixedSize=1;" parent="-I_-JJscchGBlXhT_a3A-10" vertex="1">
          <mxGeometry width="180" height="90" as="geometry" />
        </mxCell>
        <mxCell id="-I_-JJscchGBlXhT_a3A-12" value="&lt;font face=&quot;Times New Roman&quot; style=&quot;font-size: 14px;&quot;&gt;4&lt;/font&gt;" style="shape=parallelogram;perimeter=parallelogramPerimeter;whiteSpace=wrap;html=1;fixedSize=1;" parent="-I_-JJscchGBlXhT_a3A-10" vertex="1">
          <mxGeometry x="55" width="70" height="30" as="geometry" />
        </mxCell>
        <mxCell id="-I_-JJscchGBlXhT_a3A-13" value="" style="group" parent="1" vertex="1" connectable="0">
          <mxGeometry x="1500" y="390" width="180" height="90" as="geometry" />
        </mxCell>
        <mxCell id="-I_-JJscchGBlXhT_a3A-14" value="&lt;font face=&quot;Times New Roman&quot;&gt;&lt;span style=&quot;font-size: 16px;&quot;&gt;Оперуполномоченный&lt;/span&gt;&lt;/font&gt;&lt;div&gt;&lt;font face=&quot;Times New Roman&quot;&gt;&lt;span style=&quot;font-size: 16px;&quot;&gt;Евгений&lt;/span&gt;&lt;/font&gt;&lt;/div&gt;" style="shape=parallelogram;perimeter=parallelogramPerimeter;whiteSpace=wrap;html=1;fixedSize=1;" parent="-I_-JJscchGBlXhT_a3A-13" vertex="1">
          <mxGeometry width="180" height="90" as="geometry" />
        </mxCell>
        <mxCell id="-I_-JJscchGBlXhT_a3A-15" value="&lt;font face=&quot;Times New Roman&quot; style=&quot;font-size: 14px;&quot;&gt;5&lt;/font&gt;" style="shape=parallelogram;perimeter=parallelogramPerimeter;whiteSpace=wrap;html=1;fixedSize=1;" parent="-I_-JJscchGBlXhT_a3A-13" vertex="1">
          <mxGeometry x="55" width="70" height="30" as="geometry" />
        </mxCell>
        <mxCell id="-I_-JJscchGBlXhT_a3A-16" value="" style="group" parent="1" vertex="1" connectable="0">
          <mxGeometry x="880" y="670" width="180" height="90" as="geometry" />
        </mxCell>
        <mxCell id="-I_-JJscchGBlXhT_a3A-17" value="&lt;font face=&quot;Times New Roman&quot;&gt;&lt;span style=&quot;font-size: 16px;&quot;&gt;Капитан Воробьев&lt;/span&gt;&lt;/font&gt;" style="shape=parallelogram;perimeter=parallelogramPerimeter;whiteSpace=wrap;html=1;fixedSize=1;" parent="-I_-JJscchGBlXhT_a3A-16" vertex="1">
          <mxGeometry width="180" height="90" as="geometry" />
        </mxCell>
        <mxCell id="-I_-JJscchGBlXhT_a3A-18" value="&lt;font face=&quot;Times New Roman&quot; style=&quot;font-size: 14px;&quot;&gt;6&lt;/font&gt;" style="shape=parallelogram;perimeter=parallelogramPerimeter;whiteSpace=wrap;html=1;fixedSize=1;" parent="-I_-JJscchGBlXhT_a3A-16" vertex="1">
          <mxGeometry x="55" width="70" height="30" as="geometry" />
        </mxCell>
        <mxCell id="-I_-JJscchGBlXhT_a3A-19" value="" style="group" parent="1" vertex="1" connectable="0">
          <mxGeometry x="660" y="270" width="180" height="90" as="geometry" />
        </mxCell>
        <mxCell id="-I_-JJscchGBlXhT_a3A-20" value="&lt;font face=&quot;Times New Roman&quot;&gt;&lt;span style=&quot;font-size: 16px;&quot;&gt;Следователь Петров&lt;/span&gt;&lt;/font&gt;" style="shape=parallelogram;perimeter=parallelogramPerimeter;whiteSpace=wrap;html=1;fixedSize=1;" parent="-I_-JJscchGBlXhT_a3A-19" vertex="1">
          <mxGeometry width="180" height="90" as="geometry" />
        </mxCell>
        <mxCell id="-I_-JJscchGBlXhT_a3A-21" value="&lt;font face=&quot;Times New Roman&quot; style=&quot;font-size: 14px;&quot;&gt;7&lt;/font&gt;" style="shape=parallelogram;perimeter=parallelogramPerimeter;whiteSpace=wrap;html=1;fixedSize=1;" parent="-I_-JJscchGBlXhT_a3A-19" vertex="1">
          <mxGeometry x="55" width="70" height="30" as="geometry" />
        </mxCell>
        <mxCell id="-I_-JJscchGBlXhT_a3A-22" value="" style="group" parent="1" vertex="1" connectable="0">
          <mxGeometry x="1110" y="880" width="180" height="90" as="geometry" />
        </mxCell>
        <mxCell id="-I_-JJscchGBlXhT_a3A-23" value="&lt;font face=&quot;Times New Roman&quot;&gt;&lt;span style=&quot;font-size: 16px;&quot;&gt;Инспектор Лестрейд&lt;/span&gt;&lt;/font&gt;" style="shape=parallelogram;perimeter=parallelogramPerimeter;whiteSpace=wrap;html=1;fixedSize=1;" parent="-I_-JJscchGBlXhT_a3A-22" vertex="1">
          <mxGeometry width="180" height="90" as="geometry" />
        </mxCell>
        <mxCell id="-I_-JJscchGBlXhT_a3A-24" value="&lt;font face=&quot;Times New Roman&quot; style=&quot;font-size: 14px;&quot;&gt;8&lt;/font&gt;" style="shape=parallelogram;perimeter=parallelogramPerimeter;whiteSpace=wrap;html=1;fixedSize=1;" parent="-I_-JJscchGBlXhT_a3A-22" vertex="1">
          <mxGeometry x="55" width="70" height="30" as="geometry" />
        </mxCell>
        <mxCell id="-I_-JJscchGBlXhT_a3A-25" value="" style="group" parent="1" vertex="1" connectable="0">
          <mxGeometry x="1060" y="260" width="180" height="90" as="geometry" />
        </mxCell>
        <mxCell id="-I_-JJscchGBlXhT_a3A-26" value="&lt;font face=&quot;Times New Roman&quot; style=&quot;font-size: 16px;&quot;&gt;Хлоя Декер&lt;/font&gt;" style="shape=parallelogram;perimeter=parallelogramPerimeter;whiteSpace=wrap;html=1;fixedSize=1;" parent="-I_-JJscchGBlXhT_a3A-25" vertex="1">
          <mxGeometry width="180" height="90" as="geometry" />
        </mxCell>
        <mxCell id="-I_-JJscchGBlXhT_a3A-27" value="&lt;font face=&quot;Times New Roman&quot; style=&quot;font-size: 14px;&quot;&gt;9&lt;/font&gt;" style="shape=parallelogram;perimeter=parallelogramPerimeter;whiteSpace=wrap;html=1;fixedSize=1;" parent="-I_-JJscchGBlXhT_a3A-25" vertex="1">
          <mxGeometry x="55" width="70" height="30" as="geometry" />
        </mxCell>
        <mxCell id="-I_-JJscchGBlXhT_a3A-28" value="" style="group" parent="1" vertex="1" connectable="0">
          <mxGeometry x="1320" y="610" width="180" height="90" as="geometry" />
        </mxCell>
        <mxCell id="-I_-JJscchGBlXhT_a3A-29" value="&lt;font face=&quot;Times New Roman&quot;&gt;&lt;span style=&quot;font-size: 16px;&quot;&gt;Джейсон Стейтем&lt;/span&gt;&lt;/font&gt;" style="shape=parallelogram;perimeter=parallelogramPerimeter;whiteSpace=wrap;html=1;fixedSize=1;" parent="-I_-JJscchGBlXhT_a3A-28" vertex="1">
          <mxGeometry width="180" height="90" as="geometry" />
        </mxCell>
        <mxCell id="-I_-JJscchGBlXhT_a3A-30" value="&lt;font face=&quot;Times New Roman&quot; style=&quot;font-size: 14px;&quot;&gt;10&lt;/font&gt;" style="shape=parallelogram;perimeter=parallelogramPerimeter;whiteSpace=wrap;html=1;fixedSize=1;" parent="-I_-JJscchGBlXhT_a3A-28" vertex="1">
          <mxGeometry x="55" width="70" height="30" as="geometry" />
        </mxCell>
        <mxCell id="7_geCRnaLLimkSaNWYZb-1" value="" style="group" parent="1" vertex="1" connectable="0">
          <mxGeometry x="110" y="570" width="170" height="130" as="geometry" />
        </mxCell>
        <mxCell id="7_geCRnaLLimkSaNWYZb-2" value="&lt;font face=&quot;Times New Roman&quot; style=&quot;font-size: 16px;&quot;&gt;Продажа Эйфелевой башни&lt;/font&gt;" style="ellipse;whiteSpace=wrap;html=1;" parent="7_geCRnaLLimkSaNWYZb-1" vertex="1">
          <mxGeometry width="170" height="130" as="geometry" />
        </mxCell>
        <mxCell id="7_geCRnaLLimkSaNWYZb-3" value="&lt;font face=&quot;Times New Roman&quot; style=&quot;font-size: 14px;&quot;&gt;1&lt;/font&gt;" style="ellipse;whiteSpace=wrap;html=1;" parent="7_geCRnaLLimkSaNWYZb-1" vertex="1">
          <mxGeometry x="55" width="60" height="40" as="geometry" />
        </mxCell>
        <mxCell id="7_geCRnaLLimkSaNWYZb-4" value="" style="group" parent="1" vertex="1" connectable="0">
          <mxGeometry x="740" y="110" width="170" height="130" as="geometry" />
        </mxCell>
        <mxCell id="7_geCRnaLLimkSaNWYZb-5" value="&lt;font face=&quot;Times New Roman&quot;&gt;&lt;span style=&quot;font-size: 16px;&quot;&gt;Похищение данных телефонной компании&lt;/span&gt;&lt;/font&gt;" style="ellipse;whiteSpace=wrap;html=1;" parent="7_geCRnaLLimkSaNWYZb-4" vertex="1">
          <mxGeometry width="170" height="130" as="geometry" />
        </mxCell>
        <mxCell id="7_geCRnaLLimkSaNWYZb-6" value="&lt;font face=&quot;Times New Roman&quot; style=&quot;font-size: 14px;&quot;&gt;2&lt;/font&gt;" style="ellipse;whiteSpace=wrap;html=1;" parent="7_geCRnaLLimkSaNWYZb-4" vertex="1">
          <mxGeometry x="55" width="60" height="40" as="geometry" />
        </mxCell>
        <mxCell id="7_geCRnaLLimkSaNWYZb-7" value="" style="group" parent="1" vertex="1" connectable="0">
          <mxGeometry x="1120" y="710" width="170" height="130" as="geometry" />
        </mxCell>
        <mxCell id="7_geCRnaLLimkSaNWYZb-8" value="&lt;font face=&quot;Times New Roman&quot; style=&quot;font-size: 16px;&quot;&gt;Создание финансовой пирамиды&lt;/font&gt;" style="ellipse;whiteSpace=wrap;html=1;" parent="7_geCRnaLLimkSaNWYZb-7" vertex="1">
          <mxGeometry width="170" height="130" as="geometry" />
        </mxCell>
        <mxCell id="7_geCRnaLLimkSaNWYZb-9" value="&lt;font face=&quot;Times New Roman&quot; style=&quot;font-size: 14px;&quot;&gt;5&lt;/font&gt;" style="ellipse;whiteSpace=wrap;html=1;" parent="7_geCRnaLLimkSaNWYZb-7" vertex="1">
          <mxGeometry x="55" width="60" height="40" as="geometry" />
        </mxCell>
        <mxCell id="7_geCRnaLLimkSaNWYZb-10" value="" style="group" parent="1" vertex="1" connectable="0">
          <mxGeometry x="60" y="350" width="170" height="130" as="geometry" />
        </mxCell>
        <mxCell id="7_geCRnaLLimkSaNWYZb-11" value="&lt;font face=&quot;Times New Roman&quot; style=&quot;font-size: 16px;&quot;&gt;Продажа Эйфелевой башни второй раз&lt;/font&gt;" style="ellipse;whiteSpace=wrap;html=1;" parent="7_geCRnaLLimkSaNWYZb-10" vertex="1">
          <mxGeometry width="170" height="130" as="geometry" />
        </mxCell>
        <mxCell id="7_geCRnaLLimkSaNWYZb-12" value="&lt;font face=&quot;Times New Roman&quot; style=&quot;font-size: 14px;&quot;&gt;6&lt;/font&gt;" style="ellipse;whiteSpace=wrap;html=1;" parent="7_geCRnaLLimkSaNWYZb-10" vertex="1">
          <mxGeometry x="55" width="60" height="40" as="geometry" />
        </mxCell>
        <mxCell id="7_geCRnaLLimkSaNWYZb-13" value="" style="group" parent="1" vertex="1" connectable="0">
          <mxGeometry x="750" y="460" width="170" height="130" as="geometry" />
        </mxCell>
        <mxCell id="7_geCRnaLLimkSaNWYZb-14" value="&lt;font face=&quot;Times New Roman&quot; style=&quot;font-size: 16px;&quot;&gt;Наркоторговля&lt;/font&gt;" style="ellipse;whiteSpace=wrap;html=1;" parent="7_geCRnaLLimkSaNWYZb-13" vertex="1">
          <mxGeometry width="170" height="130" as="geometry" />
        </mxCell>
        <mxCell id="7_geCRnaLLimkSaNWYZb-15" value="&lt;font face=&quot;Times New Roman&quot; style=&quot;font-size: 14px;&quot;&gt;9&lt;/font&gt;" style="ellipse;whiteSpace=wrap;html=1;" parent="7_geCRnaLLimkSaNWYZb-13" vertex="1">
          <mxGeometry x="55" width="60" height="40" as="geometry" />
        </mxCell>
        <mxCell id="7_geCRnaLLimkSaNWYZb-16" value="" style="group" parent="1" vertex="1" connectable="0">
          <mxGeometry x="1040" y="390" width="170" height="130" as="geometry" />
        </mxCell>
        <mxCell id="7_geCRnaLLimkSaNWYZb-17" value="&lt;font face=&quot;Times New Roman&quot;&gt;&lt;span style=&quot;font-size: 16px;&quot;&gt;Финансовые&lt;/span&gt;&lt;/font&gt;&lt;div&gt;&lt;font face=&quot;Times New Roman&quot;&gt;&lt;span style=&quot;font-size: 16px;&quot;&gt;махинации&lt;/span&gt;&lt;/font&gt;&lt;/div&gt;" style="ellipse;whiteSpace=wrap;html=1;" parent="7_geCRnaLLimkSaNWYZb-16" vertex="1">
          <mxGeometry width="170" height="130" as="geometry" />
        </mxCell>
        <mxCell id="7_geCRnaLLimkSaNWYZb-18" value="&lt;font face=&quot;Times New Roman&quot; style=&quot;font-size: 14px;&quot;&gt;10&lt;/font&gt;" style="ellipse;whiteSpace=wrap;html=1;" parent="7_geCRnaLLimkSaNWYZb-16" vertex="1">
          <mxGeometry x="55" width="60" height="40" as="geometry" />
        </mxCell>
        <mxCell id="7_geCRnaLLimkSaNWYZb-19" value="" style="group" parent="1" vertex="1" connectable="0">
          <mxGeometry x="1260" y="100" width="170" height="130" as="geometry" />
        </mxCell>
        <mxCell id="7_geCRnaLLimkSaNWYZb-20" value="&lt;font face=&quot;Times New Roman&quot;&gt;&lt;span style=&quot;font-size: 16px;&quot;&gt;Отмывание денег&lt;/span&gt;&lt;/font&gt;" style="ellipse;whiteSpace=wrap;html=1;" parent="7_geCRnaLLimkSaNWYZb-19" vertex="1">
          <mxGeometry width="170" height="130" as="geometry" />
        </mxCell>
        <mxCell id="7_geCRnaLLimkSaNWYZb-21" value="&lt;font face=&quot;Times New Roman&quot; style=&quot;font-size: 14px;&quot;&gt;3&lt;/font&gt;" style="ellipse;whiteSpace=wrap;html=1;" parent="7_geCRnaLLimkSaNWYZb-19" vertex="1">
          <mxGeometry x="55" width="60" height="40" as="geometry" />
        </mxCell>
        <mxCell id="7_geCRnaLLimkSaNWYZb-22" value="" style="group" parent="1" vertex="1" connectable="0">
          <mxGeometry x="350" y="560" width="170" height="130" as="geometry" />
        </mxCell>
        <mxCell id="7_geCRnaLLimkSaNWYZb-23" value="&lt;font face=&quot;Times New Roman&quot; style=&quot;font-size: 16px;&quot;&gt;Убийство родителей Поттера&lt;/font&gt;" style="ellipse;whiteSpace=wrap;html=1;" parent="7_geCRnaLLimkSaNWYZb-22" vertex="1">
          <mxGeometry width="170" height="130" as="geometry" />
        </mxCell>
        <mxCell id="7_geCRnaLLimkSaNWYZb-24" value="&lt;font face=&quot;Times New Roman&quot; style=&quot;font-size: 14px;&quot;&gt;4&lt;/font&gt;" style="ellipse;whiteSpace=wrap;html=1;" parent="7_geCRnaLLimkSaNWYZb-22" vertex="1">
          <mxGeometry x="55" width="60" height="40" as="geometry" />
        </mxCell>
        <mxCell id="7_geCRnaLLimkSaNWYZb-25" value="" style="group" parent="1" vertex="1" connectable="0">
          <mxGeometry x="270" y="270" width="170" height="130" as="geometry" />
        </mxCell>
        <mxCell id="7_geCRnaLLimkSaNWYZb-26" value="&lt;font face=&quot;Times New Roman&quot; style=&quot;font-size: 16px;&quot;&gt;Убийство&lt;/font&gt;" style="ellipse;whiteSpace=wrap;html=1;" parent="7_geCRnaLLimkSaNWYZb-25" vertex="1">
          <mxGeometry width="170" height="130" as="geometry" />
        </mxCell>
        <mxCell id="7_geCRnaLLimkSaNWYZb-27" value="&lt;font face=&quot;Times New Roman&quot; style=&quot;font-size: 14px;&quot;&gt;7&lt;/font&gt;" style="ellipse;whiteSpace=wrap;html=1;" parent="7_geCRnaLLimkSaNWYZb-25" vertex="1">
          <mxGeometry x="55" width="60" height="40" as="geometry" />
        </mxCell>
        <mxCell id="7_geCRnaLLimkSaNWYZb-28" value="" style="group" parent="1" vertex="1" connectable="0">
          <mxGeometry x="460" y="390" width="170" height="130" as="geometry" />
        </mxCell>
        <mxCell id="7_geCRnaLLimkSaNWYZb-29" value="&lt;font face=&quot;Times New Roman&quot; style=&quot;font-size: 16px;&quot;&gt;Кража денег у банков&lt;/font&gt;" style="ellipse;whiteSpace=wrap;html=1;" parent="7_geCRnaLLimkSaNWYZb-28" vertex="1">
          <mxGeometry width="170" height="130" as="geometry" />
        </mxCell>
        <mxCell id="7_geCRnaLLimkSaNWYZb-30" value="&lt;font face=&quot;Times New Roman&quot; style=&quot;font-size: 14px;&quot;&gt;8&lt;/font&gt;" style="ellipse;whiteSpace=wrap;html=1;" parent="7_geCRnaLLimkSaNWYZb-28" vertex="1">
          <mxGeometry x="55" width="60" height="40" as="geometry" />
        </mxCell>
        <mxCell id="7_geCRnaLLimkSaNWYZb-31" value="" style="group" parent="1" vertex="1" connectable="0">
          <mxGeometry x="1260" y="440" width="170" height="130" as="geometry" />
        </mxCell>
        <mxCell id="7_geCRnaLLimkSaNWYZb-32" value="&lt;font face=&quot;Times New Roman&quot; style=&quot;font-size: 16px;&quot;&gt;Мошенничество и инфоциганство&lt;/font&gt;" style="ellipse;whiteSpace=wrap;html=1;" parent="7_geCRnaLLimkSaNWYZb-31" vertex="1">
          <mxGeometry width="170" height="130" as="geometry" />
        </mxCell>
        <mxCell id="7_geCRnaLLimkSaNWYZb-33" value="&lt;font face=&quot;Times New Roman&quot; style=&quot;font-size: 14px;&quot;&gt;11&lt;/font&gt;" style="ellipse;whiteSpace=wrap;html=1;" parent="7_geCRnaLLimkSaNWYZb-31" vertex="1">
          <mxGeometry x="55" width="60" height="40" as="geometry" />
        </mxCell>
        <mxCell id="7_geCRnaLLimkSaNWYZb-34" style="edgeStyle=orthogonalEdgeStyle;rounded=0;orthogonalLoop=1;jettySize=auto;html=1;entryX=0.5;entryY=1;entryDx=0;entryDy=0;" parent="1" source="-I_-JJscchGBlXhT_a3A-5" target="7_geCRnaLLimkSaNWYZb-2" edge="1">
          <mxGeometry relative="1" as="geometry" />
        </mxCell>
        <mxCell id="PyJ4-kkuKJ2dLi0AwCLW-8" value="7" style="edgeLabel;html=1;align=center;verticalAlign=middle;resizable=0;points=[];" vertex="1" connectable="0" parent="7_geCRnaLLimkSaNWYZb-34">
          <mxGeometry x="-0.083" y="1" relative="1" as="geometry">
            <mxPoint as="offset" />
          </mxGeometry>
        </mxCell>
        <mxCell id="7_geCRnaLLimkSaNWYZb-35" style="edgeStyle=orthogonalEdgeStyle;rounded=0;orthogonalLoop=1;jettySize=auto;html=1;entryX=0.5;entryY=1;entryDx=0;entryDy=0;" parent="1" source="-I_-JJscchGBlXhT_a3A-5" target="7_geCRnaLLimkSaNWYZb-23" edge="1">
          <mxGeometry relative="1" as="geometry" />
        </mxCell>
        <mxCell id="PyJ4-kkuKJ2dLi0AwCLW-3" value="3" style="edgeLabel;html=1;align=center;verticalAlign=middle;resizable=0;points=[];" vertex="1" connectable="0" parent="7_geCRnaLLimkSaNWYZb-35">
          <mxGeometry x="0.0929" y="-2" relative="1" as="geometry">
            <mxPoint as="offset" />
          </mxGeometry>
        </mxCell>
        <mxCell id="7_geCRnaLLimkSaNWYZb-36" style="edgeStyle=orthogonalEdgeStyle;rounded=0;orthogonalLoop=1;jettySize=auto;html=1;entryX=0.5;entryY=1;entryDx=0;entryDy=0;" parent="1" source="-I_-JJscchGBlXhT_a3A-2" target="7_geCRnaLLimkSaNWYZb-11" edge="1">
          <mxGeometry relative="1" as="geometry" />
        </mxCell>
        <mxCell id="PyJ4-kkuKJ2dLi0AwCLW-7" value="11" style="edgeLabel;html=1;align=center;verticalAlign=middle;resizable=0;points=[];" vertex="1" connectable="0" parent="7_geCRnaLLimkSaNWYZb-36">
          <mxGeometry x="-0.0128" y="1" relative="1" as="geometry">
            <mxPoint as="offset" />
          </mxGeometry>
        </mxCell>
        <mxCell id="7_geCRnaLLimkSaNWYZb-37" style="edgeStyle=orthogonalEdgeStyle;rounded=0;orthogonalLoop=1;jettySize=auto;html=1;entryX=0.5;entryY=1;entryDx=0;entryDy=0;" parent="1" source="-I_-JJscchGBlXhT_a3A-2" target="7_geCRnaLLimkSaNWYZb-26" edge="1">
          <mxGeometry relative="1" as="geometry" />
        </mxCell>
        <mxCell id="PyJ4-kkuKJ2dLi0AwCLW-1" value="4" style="edgeLabel;html=1;align=center;verticalAlign=middle;resizable=0;points=[];fontSize=14;fontFamily=Times New Roman;" vertex="1" connectable="0" parent="7_geCRnaLLimkSaNWYZb-37">
          <mxGeometry x="-0.1986" y="-3" relative="1" as="geometry">
            <mxPoint x="-3" y="2" as="offset" />
          </mxGeometry>
        </mxCell>
        <mxCell id="7_geCRnaLLimkSaNWYZb-38" style="edgeStyle=orthogonalEdgeStyle;rounded=0;orthogonalLoop=1;jettySize=auto;html=1;" parent="1" source="-I_-JJscchGBlXhT_a3A-2" target="7_geCRnaLLimkSaNWYZb-29" edge="1">
          <mxGeometry relative="1" as="geometry" />
        </mxCell>
        <mxCell id="PyJ4-kkuKJ2dLi0AwCLW-2" value="7" style="edgeLabel;html=1;align=center;verticalAlign=middle;resizable=0;points=[];" vertex="1" connectable="0" parent="7_geCRnaLLimkSaNWYZb-38">
          <mxGeometry x="-0.4396" relative="1" as="geometry">
            <mxPoint as="offset" />
          </mxGeometry>
        </mxCell>
        <mxCell id="7_geCRnaLLimkSaNWYZb-39" style="edgeStyle=orthogonalEdgeStyle;rounded=0;orthogonalLoop=1;jettySize=auto;html=1;entryX=0.096;entryY=0.207;entryDx=0;entryDy=0;entryPerimeter=0;" parent="1" source="-I_-JJscchGBlXhT_a3A-2" target="7_geCRnaLLimkSaNWYZb-23" edge="1">
          <mxGeometry relative="1" as="geometry" />
        </mxCell>
        <mxCell id="PyJ4-kkuKJ2dLi0AwCLW-6" value="6" style="edgeLabel;html=1;align=center;verticalAlign=middle;resizable=0;points=[];" vertex="1" connectable="0" parent="7_geCRnaLLimkSaNWYZb-39">
          <mxGeometry x="0.1209" y="-1" relative="1" as="geometry">
            <mxPoint as="offset" />
          </mxGeometry>
        </mxCell>
        <mxCell id="7_geCRnaLLimkSaNWYZb-40" style="edgeStyle=orthogonalEdgeStyle;rounded=0;orthogonalLoop=1;jettySize=auto;html=1;entryX=0.78;entryY=0.104;entryDx=0;entryDy=0;entryPerimeter=0;" parent="1" source="-I_-JJscchGBlXhT_a3A-2" target="7_geCRnaLLimkSaNWYZb-2" edge="1">
          <mxGeometry relative="1" as="geometry" />
        </mxCell>
        <mxCell id="PyJ4-kkuKJ2dLi0AwCLW-5" value="10" style="edgeLabel;html=1;align=center;verticalAlign=middle;resizable=0;points=[];" vertex="1" connectable="0" parent="7_geCRnaLLimkSaNWYZb-40">
          <mxGeometry x="-0.1999" y="1" relative="1" as="geometry">
            <mxPoint as="offset" />
          </mxGeometry>
        </mxCell>
        <mxCell id="7_geCRnaLLimkSaNWYZb-41" style="edgeStyle=orthogonalEdgeStyle;rounded=0;orthogonalLoop=1;jettySize=auto;html=1;entryX=1;entryY=0.5;entryDx=0;entryDy=0;" parent="1" source="-I_-JJscchGBlXhT_a3A-17" target="7_geCRnaLLimkSaNWYZb-14" edge="1">
          <mxGeometry relative="1" as="geometry" />
        </mxCell>
        <mxCell id="PyJ4-kkuKJ2dLi0AwCLW-10" value="5" style="edgeLabel;html=1;align=center;verticalAlign=middle;resizable=0;points=[];" vertex="1" connectable="0" parent="7_geCRnaLLimkSaNWYZb-41">
          <mxGeometry x="-0.5916" y="1" relative="1" as="geometry">
            <mxPoint as="offset" />
          </mxGeometry>
        </mxCell>
        <mxCell id="7_geCRnaLLimkSaNWYZb-42" style="edgeStyle=orthogonalEdgeStyle;rounded=0;orthogonalLoop=1;jettySize=auto;html=1;entryX=0;entryY=0.5;entryDx=0;entryDy=0;" parent="1" source="-I_-JJscchGBlXhT_a3A-8" target="7_geCRnaLLimkSaNWYZb-14" edge="1">
          <mxGeometry relative="1" as="geometry" />
        </mxCell>
        <mxCell id="PyJ4-kkuKJ2dLi0AwCLW-9" value="4" style="edgeLabel;html=1;align=center;verticalAlign=middle;resizable=0;points=[];" vertex="1" connectable="0" parent="7_geCRnaLLimkSaNWYZb-42">
          <mxGeometry x="-0.0601" y="2" relative="1" as="geometry">
            <mxPoint as="offset" />
          </mxGeometry>
        </mxCell>
        <mxCell id="7_geCRnaLLimkSaNWYZb-43" style="edgeStyle=orthogonalEdgeStyle;rounded=0;orthogonalLoop=1;jettySize=auto;html=1;entryX=0.5;entryY=1;entryDx=0;entryDy=0;" parent="1" source="-I_-JJscchGBlXhT_a3A-20" target="7_geCRnaLLimkSaNWYZb-5" edge="1">
          <mxGeometry relative="1" as="geometry" />
        </mxCell>
        <mxCell id="PyJ4-kkuKJ2dLi0AwCLW-16" value="3" style="edgeLabel;html=1;align=center;verticalAlign=middle;resizable=0;points=[];" vertex="1" connectable="0" parent="7_geCRnaLLimkSaNWYZb-43">
          <mxGeometry x="0.0961" y="1" relative="1" as="geometry">
            <mxPoint as="offset" />
          </mxGeometry>
        </mxCell>
        <mxCell id="7_geCRnaLLimkSaNWYZb-44" style="edgeStyle=orthogonalEdgeStyle;rounded=0;orthogonalLoop=1;jettySize=auto;html=1;entryX=0.5;entryY=0;entryDx=0;entryDy=0;" parent="1" source="-I_-JJscchGBlXhT_a3A-26" target="7_geCRnaLLimkSaNWYZb-17" edge="1">
          <mxGeometry relative="1" as="geometry" />
        </mxCell>
        <mxCell id="PyJ4-kkuKJ2dLi0AwCLW-15" value="4" style="edgeLabel;html=1;align=center;verticalAlign=middle;resizable=0;points=[];" vertex="1" connectable="0" parent="7_geCRnaLLimkSaNWYZb-44">
          <mxGeometry x="-0.3035" y="3" relative="1" as="geometry">
            <mxPoint as="offset" />
          </mxGeometry>
        </mxCell>
        <mxCell id="7_geCRnaLLimkSaNWYZb-45" style="edgeStyle=orthogonalEdgeStyle;rounded=0;orthogonalLoop=1;jettySize=auto;html=1;entryX=0;entryY=0.5;entryDx=0;entryDy=0;" parent="1" source="-I_-JJscchGBlXhT_a3A-26" target="7_geCRnaLLimkSaNWYZb-20" edge="1">
          <mxGeometry relative="1" as="geometry" />
        </mxCell>
        <mxCell id="PyJ4-kkuKJ2dLi0AwCLW-20" value="4" style="edgeLabel;html=1;align=center;verticalAlign=middle;resizable=0;points=[];" vertex="1" connectable="0" parent="7_geCRnaLLimkSaNWYZb-45">
          <mxGeometry x="0.3203" relative="1" as="geometry">
            <mxPoint as="offset" />
          </mxGeometry>
        </mxCell>
        <mxCell id="7_geCRnaLLimkSaNWYZb-46" style="edgeStyle=orthogonalEdgeStyle;rounded=0;orthogonalLoop=1;jettySize=auto;html=1;entryX=1;entryY=0.5;entryDx=0;entryDy=0;" parent="1" source="-I_-JJscchGBlXhT_a3A-11" target="7_geCRnaLLimkSaNWYZb-20" edge="1">
          <mxGeometry relative="1" as="geometry" />
        </mxCell>
        <mxCell id="PyJ4-kkuKJ2dLi0AwCLW-19" value="5" style="edgeLabel;html=1;align=center;verticalAlign=middle;resizable=0;points=[];" vertex="1" connectable="0" parent="7_geCRnaLLimkSaNWYZb-46">
          <mxGeometry x="-0.3164" y="-2" relative="1" as="geometry">
            <mxPoint as="offset" />
          </mxGeometry>
        </mxCell>
        <mxCell id="7_geCRnaLLimkSaNWYZb-47" style="edgeStyle=orthogonalEdgeStyle;rounded=0;orthogonalLoop=1;jettySize=auto;html=1;entryX=0.5;entryY=1;entryDx=0;entryDy=0;" parent="1" source="-I_-JJscchGBlXhT_a3A-29" target="7_geCRnaLLimkSaNWYZb-32" edge="1">
          <mxGeometry relative="1" as="geometry" />
        </mxCell>
        <mxCell id="PyJ4-kkuKJ2dLi0AwCLW-14" value="1" style="edgeLabel;html=1;align=center;verticalAlign=middle;resizable=0;points=[];" vertex="1" connectable="0" parent="7_geCRnaLLimkSaNWYZb-47">
          <mxGeometry x="0.1965" relative="1" as="geometry">
            <mxPoint as="offset" />
          </mxGeometry>
        </mxCell>
        <mxCell id="7_geCRnaLLimkSaNWYZb-48" style="edgeStyle=orthogonalEdgeStyle;rounded=0;orthogonalLoop=1;jettySize=auto;html=1;entryX=0.461;entryY=0.975;entryDx=0;entryDy=0;entryPerimeter=0;" parent="1" source="-I_-JJscchGBlXhT_a3A-23" target="7_geCRnaLLimkSaNWYZb-8" edge="1">
          <mxGeometry relative="1" as="geometry" />
        </mxCell>
        <mxCell id="PyJ4-kkuKJ2dLi0AwCLW-12" value="3" style="edgeLabel;html=1;align=center;verticalAlign=middle;resizable=0;points=[];" vertex="1" connectable="0" parent="7_geCRnaLLimkSaNWYZb-48">
          <mxGeometry x="0.0937" y="-1" relative="1" as="geometry">
            <mxPoint as="offset" />
          </mxGeometry>
        </mxCell>
        <mxCell id="7_geCRnaLLimkSaNWYZb-49" style="edgeStyle=orthogonalEdgeStyle;rounded=0;orthogonalLoop=1;jettySize=auto;html=1;entryX=0.008;entryY=0.568;entryDx=0;entryDy=0;entryPerimeter=0;" parent="1" source="-I_-JJscchGBlXhT_a3A-17" target="7_geCRnaLLimkSaNWYZb-8" edge="1">
          <mxGeometry relative="1" as="geometry" />
        </mxCell>
        <mxCell id="PyJ4-kkuKJ2dLi0AwCLW-11" value="2" style="edgeLabel;html=1;align=center;verticalAlign=middle;resizable=0;points=[];" vertex="1" connectable="0" parent="7_geCRnaLLimkSaNWYZb-49">
          <mxGeometry x="0.1064" y="1" relative="1" as="geometry">
            <mxPoint as="offset" />
          </mxGeometry>
        </mxCell>
        <mxCell id="7_geCRnaLLimkSaNWYZb-50" style="edgeStyle=orthogonalEdgeStyle;rounded=0;orthogonalLoop=1;jettySize=auto;html=1;entryX=1;entryY=0.5;entryDx=0;entryDy=0;" parent="1" source="-I_-JJscchGBlXhT_a3A-26" target="7_geCRnaLLimkSaNWYZb-5" edge="1">
          <mxGeometry relative="1" as="geometry" />
        </mxCell>
        <mxCell id="PyJ4-kkuKJ2dLi0AwCLW-17" value="6" style="edgeLabel;html=1;align=center;verticalAlign=middle;resizable=0;points=[];" vertex="1" connectable="0" parent="7_geCRnaLLimkSaNWYZb-50">
          <mxGeometry x="-0.0332" y="4" relative="1" as="geometry">
            <mxPoint as="offset" />
          </mxGeometry>
        </mxCell>
        <mxCell id="7_geCRnaLLimkSaNWYZb-51" style="edgeStyle=orthogonalEdgeStyle;rounded=0;orthogonalLoop=1;jettySize=auto;html=1;entryX=1;entryY=0.5;entryDx=0;entryDy=0;" parent="1" source="-I_-JJscchGBlXhT_a3A-29" target="7_geCRnaLLimkSaNWYZb-8" edge="1">
          <mxGeometry relative="1" as="geometry" />
        </mxCell>
        <mxCell id="PyJ4-kkuKJ2dLi0AwCLW-13" value="5" style="edgeLabel;html=1;align=center;verticalAlign=middle;resizable=0;points=[];" vertex="1" connectable="0" parent="7_geCRnaLLimkSaNWYZb-51">
          <mxGeometry x="0.0232" y="1" relative="1" as="geometry">
            <mxPoint as="offset" />
          </mxGeometry>
        </mxCell>
        <mxCell id="7_geCRnaLLimkSaNWYZb-52" style="edgeStyle=orthogonalEdgeStyle;rounded=0;orthogonalLoop=1;jettySize=auto;html=1;entryX=0.5;entryY=0;entryDx=0;entryDy=0;" parent="1" source="-I_-JJscchGBlXhT_a3A-20" target="7_geCRnaLLimkSaNWYZb-29" edge="1">
          <mxGeometry relative="1" as="geometry" />
        </mxCell>
        <mxCell id="PyJ4-kkuKJ2dLi0AwCLW-18" value="8" style="edgeLabel;html=1;align=center;verticalAlign=middle;resizable=0;points=[];" vertex="1" connectable="0" parent="7_geCRnaLLimkSaNWYZb-52">
          <mxGeometry x="-0.2355" y="-3" relative="1" as="geometry">
            <mxPoint as="offset" />
          </mxGeometry>
        </mxCell>
        <mxCell id="7_geCRnaLLimkSaNWYZb-53" style="edgeStyle=orthogonalEdgeStyle;rounded=0;orthogonalLoop=1;jettySize=auto;html=1;entryX=1;entryY=0.5;entryDx=0;entryDy=0;" parent="1" source="-I_-JJscchGBlXhT_a3A-14" target="7_geCRnaLLimkSaNWYZb-32" edge="1">
          <mxGeometry relative="1" as="geometry" />
        </mxCell>
        <mxCell id="PyJ4-kkuKJ2dLi0AwCLW-21" value="3" style="edgeLabel;html=1;align=center;verticalAlign=middle;resizable=0;points=[];" vertex="1" connectable="0" parent="7_geCRnaLLimkSaNWYZb-53">
          <mxGeometry x="0.1636" y="-2" relative="1" as="geometry">
            <mxPoint as="offset" />
          </mxGeometry>
        </mxCell>
      </root>
    </mxGraphModel>
  </diagram>
</mxfile>
